SplineFontDB: 3.0
FontName: Nayana
FullName: Nayana
FamilyName: Nayana
Weight: Medium
Copyright: Created by Afrin Pinjari,Pooja Nayak,Sonal Bhavsar,Johnson Chetty,Vickram Crishna,Nagarjuna G,Rafik Shaikh
Version: 001.000
ItalicAngle: 0
UnderlinePosition: 0
UnderlineWidth: 0
Ascent: 819
Descent: 205
LayerCount: 2
Layer: 0 1 "Back"  1
Layer: 1 1 "Fore"  0
XUID: [1021 556 402827869 12778310]
FSType: 0
OS2Version: 1
OS2_WeightWidthSlopeOnly: 0
OS2_UseTypoMetrics: 1
CreationTime: 1038573559
ModificationTime: 1335461806
PfmFamily: 33
TTFWeight: 500
TTFWidth: 5
LineGap: 57
VLineGap: 0
Panose: 2 0 6 6 0 0 0 0 0 0
OS2TypoAscent: 35
OS2TypoAOffset: 1
OS2TypoDescent: 205
OS2TypoDOffset: 1
OS2TypoLinegap: 57
OS2WinAscent: 1
OS2WinAOffset: 1
OS2WinDescent: 0
OS2WinDOffset: 1
HheadAscent: 85
HheadAOffset: 1
HheadDescent: -85
HheadDOffset: 1
OS2SubXSize: 205
OS2SubYSize: 205
OS2SubXOff: 0
OS2SubYOff: 205
OS2SupXSize: 205
OS2SupYSize: 205
OS2SupXOff: 0
OS2SupYOff: 205
OS2StrikeYSize: 50
OS2StrikeYPos: 265
OS2Vendor: 'PfEd'
OS2CodePages: 00000001.00000000
OS2UnicodeRanges: 00000000.00000000.00040000.00000000
Lookup: 4 256 0 "'akhn' Akhand in Devanagari lookup 1"  {"'akhn' Akhand in Devanagari lookup 1-1"  } ['akhn' ('deva' <'dflt' > ) ]
Lookup: 260 256 0 "'abvm' Above Base Mark lookup 1"  {"'abvm' Above Base Mark lookup 1-1"  } ['abvm' ('DFLT' <'dflt' > 'brai' <'dflt' > 'deva' <'dflt' > 'latn' <'dflt' > ) ]
Lookup: 258 12 0 "'vkrn' Vertical Kerning lookup1-1"  {"'vkrn' Vertical Kerning lookup1-1-1" (1)[180,0,0] "'vkrn' Vertical Kerning lookup1-1-2" [153,15,0] } ['vkrn' ('DFLT' <'dflt' > 'brai' <'dflt' > 'deva' <'dflt' > 'latn' <'dflt' > ) ]
MarkAttachClasses: 2

StartChar: uni0932_uni094D_uni0932.akhn
Encoding: 65536 -1 0
Width: 443
GlyphClass: 3
Flags: W
LayerCount: 2
Fore
SplineSet
243 264 m 1,0,-1
 243 268 l 1,1,-1
 243 274 l 1,2,-1
 249 274 l 1,3,-1
 253 274 l 1,4,-1
 759 274 l 1,5,-1
 759 -126 l 1,6,-1
 759 -130 l 1,7,-1
 759 -136 l 1,8,-1
 754 -136 l 1,9,-1
 749 -136 l 1,10,-1
 243 -136 l 1,11,-1
 243 264 l 1,0,-1
728 -120 m 1,12,-1
 259 250 l 1,13,-1
 259 -120 l 1,14,-1
 728 -120 l 1,12,-1
743 -112 m 1,15,-1
 743 258 l 1,16,-1
 274 258 l 1,17,-1
 743 -112 l 1,15,-1
243 759 m 1,18,-1
 243 764 l 1,19,-1
 243 770 l 1,20,-1
 249 770 l 1,21,-1
 253 770 l 1,22,-1
 759 770 l 1,23,-1
 759 370 l 1,24,-1
 759 365 l 1,25,-1
 759 360 l 1,26,-1
 754 360 l 1,27,-1
 749 360 l 1,28,-1
 243 360 l 1,29,-1
 243 759 l 1,18,-1
728 375 m 1,30,-1
 259 746 l 1,31,-1
 259 375 l 1,32,-1
 728 375 l 1,30,-1
743 384 m 1,33,-1
 743 754 l 1,34,-1
 274 754 l 1,35,-1
 743 384 l 1,33,-1
EndSplineSet
Validated: 1
LCarets2: 2 0 0 
Ligature2: "'akhn' Akhand in Devanagari lookup 1-1" uni0932 uni094D uni0932
EndChar

StartChar: "22uni2823uni2824uni2825uni2826uni2827uni2828uni28" 
Encoding: 10241 10241 196
Width: 682
Flags: W
LayerCount: 2
Fore
SplineSet
346 853 m 256,0,1
 361 853 361 853 374 848 c 1,2,3
 388 841 388 841 397.5 832 c 128,-1,4
 407 823 407 823 413 809 c 0,5,6
 419 796 419 796 419 782 c 2,7,-1
 419 780 l 2,8,9
 419 765 419 765 413 753 c 0,10,11
 407 739 407 739 397 729.5 c 128,-1,12
 387 720 387 720 374 713 c 1,13,14
 361 708 361 708 346 708 c 256,15,16
 331 708 331 708 317 713 c 1,17,18
 304 720 304 720 294.5 729.5 c 128,-1,19
 285 739 285 739 279 753 c 0,20,21
 273 766 273 766 273 779 c 2,22,-1
 273 780 l 2,23,24
 273 796 273 796 279 809 c 0,25,26
 285 823 285 823 295 832 c 128,-1,27
 305 841 305 841 317 848 c 1,28,29
 331 853 331 853 346 853 c 256,0,1
EndSplineSet
Validated: 513
EndChar

StartChar: "9uni282Auni282Buni282Cuni282Duni282Euni282F" 
Encoding: 10242 10242 197
Width: 682
Flags: W
LayerCount: 2
Fore
SplineSet
345 631 m 0,0,1
 361 631 361 631 374 625 c 0,2,3
 388 619 388 619 397 609.5 c 128,-1,4
 406 600 406 600 413 587 c 1,5,6
 418 573 418 573 418 559 c 2,7,-1
 418 558 l 2,8,9
 418 543 418 543 413 531 c 1,10,11
 406 517 406 517 396.5 507 c 128,-1,12
 387 497 387 497 374 492 c 0,13,14
 361 486 361 486 345 486 c 0,15,16
 330 486 330 486 317 492 c 0,17,18
 303 498 303 498 294 507.5 c 128,-1,19
 285 517 285 517 278 531 c 1,20,21
 273 544 273 544 273 557 c 2,22,-1
 273 558 l 2,23,24
 273 573 273 573 278 587 c 1,25,26
 285 600 285 600 294.5 610 c 128,-1,27
 304 620 304 620 317 625 c 0,28,29
 330 631 330 631 345 631 c 0,0,1
EndSplineSet
Validated: 513
EndChar

StartChar: "ni2830uni2831uni2832uni2833uni2834uni2835uni2836uni2837uni2838uni2839uni283Auni283Buni283Cuni283Duni283" 
Encoding: 10243 10243 198
Width: 682
Flags: W
LayerCount: 2
Fore
SplineSet
345 631 m 0,0,1
 361 631 361 631 374 625 c 0,2,3
 388 619 388 619 397 609.5 c 128,-1,4
 406 600 406 600 413 587 c 1,5,6
 418 573 418 573 418 559 c 2,7,-1
 418 558 l 2,8,9
 418 543 418 543 413 531 c 1,10,11
 406 517 406 517 396.5 507 c 128,-1,12
 387 497 387 497 374 492 c 0,13,14
 361 486 361 486 345 486 c 0,15,16
 330 486 330 486 317 492 c 0,17,18
 303 498 303 498 294 507.5 c 128,-1,19
 285 517 285 517 278 531 c 1,20,21
 273 544 273 544 273 557 c 2,22,-1
 273 558 l 2,23,24
 273 573 273 573 278 587 c 1,25,26
 285 600 285 600 294.5 610 c 128,-1,27
 304 620 304 620 317 625 c 0,28,29
 330 631 330 631 345 631 c 0,0,1
346 853 m 256,30,31
 361 853 361 853 374 848 c 1,32,33
 388 841 388 841 397.5 832 c 128,-1,34
 407 823 407 823 413 809 c 0,35,36
 419 796 419 796 419 782 c 2,37,-1
 419 780 l 2,38,39
 419 765 419 765 413 753 c 0,40,41
 407 739 407 739 397 729.5 c 128,-1,42
 387 720 387 720 374 713 c 1,43,44
 361 708 361 708 346 708 c 256,45,46
 331 708 331 708 317 713 c 1,47,48
 304 720 304 720 294.5 729.5 c 128,-1,49
 285 739 285 739 279 753 c 0,50,51
 273 766 273 766 273 779 c 2,52,-1
 273 780 l 2,53,54
 273 796 273 796 279 809 c 0,55,56
 285 823 285 823 295 832 c 128,-1,57
 305 841 305 841 317 848 c 1,58,59
 331 853 331 853 346 853 c 256,30,31
EndSplineSet
Validated: 513
EndChar

StartChar: "uni283Funi2840uni2841uni2842uni2843uni2844uni2845uni2846uni2" 
Encoding: 10244 10244 199
Width: 682
Flags: W
LayerCount: 2
Fore
SplineSet
345 410 m 256,0,1
 360 410 360 410 374 404 c 1,2,3
 387 397 387 397 396.5 388 c 128,-1,4
 406 379 406 379 412 365 c 0,5,6
 418 352 418 352 418 338 c 2,7,-1
 418 336 l 2,8,9
 418 321 418 321 412 309 c 0,10,11
 406 295 406 295 396.5 285.5 c 128,-1,12
 387 276 387 276 374 270 c 1,13,14
 360 265 360 265 345 265 c 256,15,16
 330 265 330 265 317 270 c 1,17,18
 303 277 303 277 293.5 286 c 128,-1,19
 284 295 284 295 278 309 c 0,20,21
 272 322 272 322 272 335 c 2,22,-1
 272 336 l 2,23,24
 272 352 272 352 278 365 c 0,25,26
 284 379 284 379 294 388.5 c 128,-1,27
 304 398 304 398 317 404 c 257,28,29
 330 410 330 410 345 410 c 256,0,1
EndSplineSet
Validated: 513
EndChar

StartChar: "47uni2848uni2849uni284Auni284Buni284Cuni284Duni28" 
Encoding: 10245 10245 200
Width: 682
Flags: W
LayerCount: 2
Fore
SplineSet
345 410 m 256,0,1
 360 410 360 410 374 404 c 1,2,3
 387 397 387 397 396.5 388 c 128,-1,4
 406 379 406 379 412 365 c 0,5,6
 418 352 418 352 418 338 c 2,7,-1
 418 336 l 2,8,9
 418 321 418 321 412 309 c 0,10,11
 406 295 406 295 396.5 285.5 c 128,-1,12
 387 276 387 276 374 270 c 1,13,14
 360 265 360 265 345 265 c 256,15,16
 330 265 330 265 317 270 c 1,17,18
 303 277 303 277 293.5 286 c 128,-1,19
 284 295 284 295 278 309 c 0,20,21
 272 322 272 322 272 335 c 2,22,-1
 272 336 l 2,23,24
 272 352 272 352 278 365 c 0,25,26
 284 379 284 379 294 388.5 c 128,-1,27
 304 398 304 398 317 404 c 257,28,29
 330 410 330 410 345 410 c 256,0,1
346 853 m 256,30,31
 361 853 361 853 374 848 c 1,32,33
 388 841 388 841 397.5 832 c 128,-1,34
 407 823 407 823 413 809 c 0,35,36
 419 796 419 796 419 782 c 2,37,-1
 419 780 l 2,38,39
 419 765 419 765 413 753 c 0,40,41
 407 739 407 739 397 729.5 c 128,-1,42
 387 720 387 720 374 713 c 1,43,44
 361 708 361 708 346 708 c 256,45,46
 331 708 331 708 317 713 c 1,47,48
 304 720 304 720 294.5 729.5 c 128,-1,49
 285 739 285 739 279 753 c 0,50,51
 273 766 273 766 273 779 c 2,52,-1
 273 780 l 2,53,54
 273 796 273 796 279 809 c 0,55,56
 285 823 285 823 295 832 c 128,-1,57
 305 841 305 841 317 848 c 1,58,59
 331 853 331 853 346 853 c 256,30,31
EndSplineSet
Validated: 513
EndChar

StartChar: "Euni284Funi2850uni2851uni2852uni2853uni2854un" 
Encoding: 10246 10246 201
Width: 682
Flags: W
LayerCount: 2
Fore
SplineSet
345 410 m 256,0,1
 360 410 360 410 374 404 c 1,2,3
 387 397 387 397 396.5 388 c 128,-1,4
 406 379 406 379 412 365 c 0,5,6
 418 352 418 352 418 338 c 2,7,-1
 418 336 l 2,8,9
 418 321 418 321 412 309 c 0,10,11
 406 295 406 295 396.5 285.5 c 128,-1,12
 387 276 387 276 374 270 c 1,13,14
 360 265 360 265 345 265 c 256,15,16
 330 265 330 265 317 270 c 1,17,18
 303 277 303 277 293.5 286 c 128,-1,19
 284 295 284 295 278 309 c 0,20,21
 272 322 272 322 272 335 c 2,22,-1
 272 336 l 2,23,24
 272 352 272 352 278 365 c 0,25,26
 284 379 284 379 294 388.5 c 128,-1,27
 304 398 304 398 317 404 c 257,28,29
 330 410 330 410 345 410 c 256,0,1
345 631 m 0,30,31
 361 631 361 631 374 625 c 0,32,33
 388 619 388 619 397 609.5 c 128,-1,34
 406 600 406 600 413 587 c 1,35,36
 418 573 418 573 418 559 c 2,37,-1
 418 558 l 2,38,39
 418 543 418 543 413 531 c 1,40,41
 406 517 406 517 396.5 507 c 128,-1,42
 387 497 387 497 374 492 c 0,43,44
 361 486 361 486 345 486 c 0,45,46
 330 486 330 486 317 492 c 0,47,48
 303 498 303 498 294 507.5 c 128,-1,49
 285 517 285 517 278 531 c 1,50,51
 273 544 273 544 273 557 c 2,52,-1
 273 558 l 2,53,54
 273 573 273 573 278 587 c 1,55,56
 285 600 285 600 294.5 610 c 128,-1,57
 304 620 304 620 317 625 c 0,58,59
 330 631 330 631 345 631 c 0,30,31
EndSplineSet
Validated: 513
EndChar

StartChar: "2855uni2856uni2857uni2858uni2859uni285Auni285Buni285Cuni285Duni285Euni285Funi2860uni2861uni2" 
Encoding: 10247 10247 202
Width: 682
Flags: W
LayerCount: 2
Fore
SplineSet
345 410 m 256,0,1
 360 410 360 410 374 404 c 1,2,3
 387 397 387 397 396.5 388 c 128,-1,4
 406 379 406 379 412 365 c 0,5,6
 418 352 418 352 418 338 c 2,7,-1
 418 336 l 2,8,9
 418 321 418 321 412 309 c 0,10,11
 406 295 406 295 396.5 285.5 c 128,-1,12
 387 276 387 276 374 270 c 1,13,14
 360 265 360 265 345 265 c 256,15,16
 330 265 330 265 317 270 c 1,17,18
 303 277 303 277 293.5 286 c 128,-1,19
 284 295 284 295 278 309 c 0,20,21
 272 322 272 322 272 335 c 2,22,-1
 272 336 l 2,23,24
 272 352 272 352 278 365 c 0,25,26
 284 379 284 379 294 388.5 c 128,-1,27
 304 398 304 398 317 404 c 257,28,29
 330 410 330 410 345 410 c 256,0,1
345 631 m 0,30,31
 361 631 361 631 374 625 c 0,32,33
 388 619 388 619 397 609.5 c 128,-1,34
 406 600 406 600 413 587 c 1,35,36
 418 573 418 573 418 559 c 2,37,-1
 418 558 l 2,38,39
 418 543 418 543 413 531 c 1,40,41
 406 517 406 517 396.5 507 c 128,-1,42
 387 497 387 497 374 492 c 0,43,44
 361 486 361 486 345 486 c 0,45,46
 330 486 330 486 317 492 c 0,47,48
 303 498 303 498 294 507.5 c 128,-1,49
 285 517 285 517 278 531 c 1,50,51
 273 544 273 544 273 557 c 2,52,-1
 273 558 l 2,53,54
 273 573 273 573 278 587 c 1,55,56
 285 600 285 600 294.5 610 c 128,-1,57
 304 620 304 620 317 625 c 0,58,59
 330 631 330 631 345 631 c 0,30,31
346 853 m 256,60,61
 361 853 361 853 374 848 c 1,62,63
 388 841 388 841 397.5 832 c 128,-1,64
 407 823 407 823 413 809 c 0,65,66
 419 796 419 796 419 782 c 2,67,-1
 419 780 l 2,68,69
 419 765 419 765 413 753 c 0,70,71
 407 739 407 739 397 729.5 c 128,-1,72
 387 720 387 720 374 713 c 1,73,74
 361 708 361 708 346 708 c 256,75,76
 331 708 331 708 317 713 c 1,77,78
 304 720 304 720 294.5 729.5 c 128,-1,79
 285 739 285 739 279 753 c 0,80,81
 273 766 273 766 273 779 c 2,82,-1
 273 780 l 2,83,84
 273 796 273 796 279 809 c 0,85,86
 285 823 285 823 295 832 c 128,-1,87
 305 841 305 841 317 848 c 1,88,89
 331 853 331 853 346 853 c 256,60,61
EndSplineSet
Validated: 513
EndChar

StartChar: "62uni2863uni2864uni2865uni2866uni2867uni2868uni28" 
Encoding: 10248 10248 203
Width: 682
Flags: W
LayerCount: 2
Fore
SplineSet
567 853 m 256,0,1
 582 853 582 853 596 847 c 256,2,3
 610 841 610 841 619.5 831.5 c 128,-1,4
 629 822 629 822 635 809 c 0,5,6
 641 795 641 795 641 781 c 2,7,-1
 641 780 l 2,8,9
 641 765 641 765 635 753 c 0,10,11
 629 739 629 739 619 729 c 128,-1,12
 609 719 609 719 596 713 c 256,13,14
 583 707 583 707 567 707 c 0,15,16
 552 707 552 707 539 713 c 256,17,18
 526 719 526 719 516.5 729 c 128,-1,19
 507 739 507 739 501 753 c 0,20,21
 495 766 495 766 495 779 c 2,22,-1
 495 780 l 2,23,24
 495 795 495 795 501 809 c 0,25,26
 507 822 507 822 517 831.5 c 128,-1,27
 527 841 527 841 539 847 c 0,28,29
 552 853 552 853 567 853 c 256,0,1
EndSplineSet
Validated: 513
EndChar

StartChar: "9uni286Auni286Buni286Cuni286Duni286Euni286Funi2" 
Encoding: 10249 10249 204
Width: 682
Flags: W
LayerCount: 2
Fore
SplineSet
567 853 m 256,0,1
 582 853 582 853 596 847 c 256,2,3
 610 841 610 841 619.5 831.5 c 128,-1,4
 629 822 629 822 635 809 c 0,5,6
 641 795 641 795 641 781 c 2,7,-1
 641 780 l 2,8,9
 641 765 641 765 635 753 c 0,10,11
 629 739 629 739 619 729 c 128,-1,12
 609 719 609 719 596 713 c 256,13,14
 583 707 583 707 567 707 c 0,15,16
 552 707 552 707 539 713 c 256,17,18
 526 719 526 719 516.5 729 c 128,-1,19
 507 739 507 739 501 753 c 0,20,21
 495 766 495 766 495 779 c 2,22,-1
 495 780 l 2,23,24
 495 795 495 795 501 809 c 0,25,26
 507 822 507 822 517 831.5 c 128,-1,27
 527 841 527 841 539 847 c 0,28,29
 552 853 552 853 567 853 c 256,0,1
346 853 m 256,30,31
 361 853 361 853 374 848 c 1,32,33
 388 841 388 841 397.5 832 c 128,-1,34
 407 823 407 823 413 809 c 0,35,36
 419 796 419 796 419 782 c 2,37,-1
 419 780 l 2,38,39
 419 765 419 765 413 753 c 0,40,41
 407 739 407 739 397 729.5 c 128,-1,42
 387 720 387 720 374 713 c 1,43,44
 361 708 361 708 346 708 c 256,45,46
 331 708 331 708 317 713 c 1,47,48
 304 720 304 720 294.5 729.5 c 128,-1,49
 285 739 285 739 279 753 c 0,50,51
 273 766 273 766 273 779 c 2,52,-1
 273 780 l 2,53,54
 273 796 273 796 279 809 c 0,55,56
 285 823 285 823 295 832 c 128,-1,57
 305 841 305 841 317 848 c 1,58,59
 331 853 331 853 346 853 c 256,30,31
EndSplineSet
Validated: 513
EndChar

StartChar: "70uni2871uni2872uni2873uni2874uni2875uni2876uni28" 
Encoding: 10250 10250 205
Width: 682
Flags: W
LayerCount: 2
Fore
SplineSet
345 631 m 0,0,1
 361 631 361 631 374 625 c 0,2,3
 388 619 388 619 397 609.5 c 128,-1,4
 406 600 406 600 413 587 c 1,5,6
 418 573 418 573 418 559 c 2,7,-1
 418 558 l 2,8,9
 418 543 418 543 413 531 c 1,10,11
 406 517 406 517 396.5 507 c 128,-1,12
 387 497 387 497 374 492 c 0,13,14
 361 486 361 486 345 486 c 0,15,16
 330 486 330 486 317 492 c 0,17,18
 303 498 303 498 294 507.5 c 128,-1,19
 285 517 285 517 278 531 c 1,20,21
 273 544 273 544 273 557 c 2,22,-1
 273 558 l 2,23,24
 273 573 273 573 278 587 c 1,25,26
 285 600 285 600 294.5 610 c 128,-1,27
 304 620 304 620 317 625 c 0,28,29
 330 631 330 631 345 631 c 0,0,1
567 853 m 256,30,31
 582 853 582 853 596 847 c 256,32,33
 610 841 610 841 619.5 831.5 c 128,-1,34
 629 822 629 822 635 809 c 0,35,36
 641 795 641 795 641 781 c 2,37,-1
 641 780 l 2,38,39
 641 765 641 765 635 753 c 0,40,41
 629 739 629 739 619 729 c 128,-1,42
 609 719 609 719 596 713 c 256,43,44
 583 707 583 707 567 707 c 0,45,46
 552 707 552 707 539 713 c 256,47,48
 526 719 526 719 516.5 729 c 128,-1,49
 507 739 507 739 501 753 c 0,50,51
 495 766 495 766 495 779 c 2,52,-1
 495 780 l 2,53,54
 495 795 495 795 501 809 c 0,55,56
 507 822 507 822 517 831.5 c 128,-1,57
 527 841 527 841 539 847 c 0,58,59
 552 853 552 853 567 853 c 256,30,31
EndSplineSet
Validated: 513
EndChar

StartChar: "7uni2878uni2879uni287Auni287Buni287Cuni287Duni28" 
Encoding: 10251 10251 206
Width: 682
Flags: W
LayerCount: 2
Fore
SplineSet
345 631 m 0,0,1
 361 631 361 631 374 625 c 0,2,3
 388 619 388 619 397 609.5 c 128,-1,4
 406 600 406 600 413 587 c 1,5,6
 418 573 418 573 418 559 c 2,7,-1
 418 558 l 2,8,9
 418 543 418 543 413 531 c 1,10,11
 406 517 406 517 396.5 507 c 128,-1,12
 387 497 387 497 374 492 c 0,13,14
 361 486 361 486 345 486 c 0,15,16
 330 486 330 486 317 492 c 0,17,18
 303 498 303 498 294 507.5 c 128,-1,19
 285 517 285 517 278 531 c 1,20,21
 273 544 273 544 273 557 c 2,22,-1
 273 558 l 2,23,24
 273 573 273 573 278 587 c 1,25,26
 285 600 285 600 294.5 610 c 128,-1,27
 304 620 304 620 317 625 c 0,28,29
 330 631 330 631 345 631 c 0,0,1
567 853 m 256,30,31
 582 853 582 853 596 847 c 256,32,33
 610 841 610 841 619.5 831.5 c 128,-1,34
 629 822 629 822 635 809 c 0,35,36
 641 795 641 795 641 781 c 2,37,-1
 641 780 l 2,38,39
 641 765 641 765 635 753 c 0,40,41
 629 739 629 739 619 729 c 128,-1,42
 609 719 609 719 596 713 c 256,43,44
 583 707 583 707 567 707 c 0,45,46
 552 707 552 707 539 713 c 256,47,48
 526 719 526 719 516.5 729 c 128,-1,49
 507 739 507 739 501 753 c 0,50,51
 495 766 495 766 495 779 c 2,52,-1
 495 780 l 2,53,54
 495 795 495 795 501 809 c 0,55,56
 507 822 507 822 517 831.5 c 128,-1,57
 527 841 527 841 539 847 c 0,58,59
 552 853 552 853 567 853 c 256,30,31
346 853 m 256,60,61
 361 853 361 853 374 848 c 1,62,63
 388 841 388 841 397.5 832 c 128,-1,64
 407 823 407 823 413 809 c 0,65,66
 419 796 419 796 419 782 c 2,67,-1
 419 780 l 2,68,69
 419 765 419 765 413 753 c 0,70,71
 407 739 407 739 397 729.5 c 128,-1,72
 387 720 387 720 374 713 c 1,73,74
 361 708 361 708 346 708 c 256,75,76
 331 708 331 708 317 713 c 1,77,78
 304 720 304 720 294.5 729.5 c 128,-1,79
 285 739 285 739 279 753 c 0,80,81
 273 766 273 766 273 779 c 2,82,-1
 273 780 l 2,83,84
 273 796 273 796 279 809 c 0,85,86
 285 823 285 823 295 832 c 128,-1,87
 305 841 305 841 317 848 c 1,88,89
 331 853 331 853 346 853 c 256,60,61
EndSplineSet
Validated: 513
EndChar

StartChar: "Euni287Funi2880uni2881uni2882uni2883uni2884uni28" 
Encoding: 10252 10252 207
Width: 682
Flags: W
LayerCount: 2
Fore
SplineSet
345 410 m 256,0,1
 360 410 360 410 374 404 c 1,2,3
 387 397 387 397 396.5 388 c 128,-1,4
 406 379 406 379 412 365 c 0,5,6
 418 352 418 352 418 338 c 2,7,-1
 418 336 l 2,8,9
 418 321 418 321 412 309 c 0,10,11
 406 295 406 295 396.5 285.5 c 128,-1,12
 387 276 387 276 374 270 c 1,13,14
 360 265 360 265 345 265 c 256,15,16
 330 265 330 265 317 270 c 1,17,18
 303 277 303 277 293.5 286 c 128,-1,19
 284 295 284 295 278 309 c 0,20,21
 272 322 272 322 272 335 c 2,22,-1
 272 336 l 2,23,24
 272 352 272 352 278 365 c 0,25,26
 284 379 284 379 294 388.5 c 128,-1,27
 304 398 304 398 317 404 c 257,28,29
 330 410 330 410 345 410 c 256,0,1
567 853 m 256,30,31
 582 853 582 853 596 847 c 256,32,33
 610 841 610 841 619.5 831.5 c 128,-1,34
 629 822 629 822 635 809 c 0,35,36
 641 795 641 795 641 781 c 2,37,-1
 641 780 l 2,38,39
 641 765 641 765 635 753 c 0,40,41
 629 739 629 739 619 729 c 128,-1,42
 609 719 609 719 596 713 c 256,43,44
 583 707 583 707 567 707 c 0,45,46
 552 707 552 707 539 713 c 256,47,48
 526 719 526 719 516.5 729 c 128,-1,49
 507 739 507 739 501 753 c 0,50,51
 495 766 495 766 495 779 c 2,52,-1
 495 780 l 2,53,54
 495 795 495 795 501 809 c 0,55,56
 507 822 507 822 517 831.5 c 128,-1,57
 527 841 527 841 539 847 c 0,58,59
 552 853 552 853 567 853 c 256,30,31
EndSplineSet
Validated: 513
EndChar

StartChar: "5uni2886uni2887uni2888uni2889uni288Auni288Buni288" 
Encoding: 10253 10253 208
Width: 682
Flags: W
LayerCount: 2
Fore
SplineSet
345 410 m 256,0,1
 360 410 360 410 374 404 c 1,2,3
 387 397 387 397 396.5 388 c 128,-1,4
 406 379 406 379 412 365 c 0,5,6
 418 352 418 352 418 338 c 2,7,-1
 418 336 l 2,8,9
 418 321 418 321 412 309 c 0,10,11
 406 295 406 295 396.5 285.5 c 128,-1,12
 387 276 387 276 374 270 c 1,13,14
 360 265 360 265 345 265 c 256,15,16
 330 265 330 265 317 270 c 1,17,18
 303 277 303 277 293.5 286 c 128,-1,19
 284 295 284 295 278 309 c 0,20,21
 272 322 272 322 272 335 c 2,22,-1
 272 336 l 2,23,24
 272 352 272 352 278 365 c 0,25,26
 284 379 284 379 294 388.5 c 128,-1,27
 304 398 304 398 317 404 c 257,28,29
 330 410 330 410 345 410 c 256,0,1
567 853 m 256,30,31
 582 853 582 853 596 847 c 256,32,33
 610 841 610 841 619.5 831.5 c 128,-1,34
 629 822 629 822 635 809 c 0,35,36
 641 795 641 795 641 781 c 2,37,-1
 641 780 l 2,38,39
 641 765 641 765 635 753 c 0,40,41
 629 739 629 739 619 729 c 128,-1,42
 609 719 609 719 596 713 c 256,43,44
 583 707 583 707 567 707 c 0,45,46
 552 707 552 707 539 713 c 256,47,48
 526 719 526 719 516.5 729 c 128,-1,49
 507 739 507 739 501 753 c 0,50,51
 495 766 495 766 495 779 c 2,52,-1
 495 780 l 2,53,54
 495 795 495 795 501 809 c 0,55,56
 507 822 507 822 517 831.5 c 128,-1,57
 527 841 527 841 539 847 c 0,58,59
 552 853 552 853 567 853 c 256,30,31
346 853 m 256,60,61
 361 853 361 853 374 848 c 1,62,63
 388 841 388 841 397.5 832 c 128,-1,64
 407 823 407 823 413 809 c 0,65,66
 419 796 419 796 419 782 c 2,67,-1
 419 780 l 2,68,69
 419 765 419 765 413 753 c 0,70,71
 407 739 407 739 397 729.5 c 128,-1,72
 387 720 387 720 374 713 c 1,73,74
 361 708 361 708 346 708 c 256,75,76
 331 708 331 708 317 713 c 1,77,78
 304 720 304 720 294.5 729.5 c 128,-1,79
 285 739 285 739 279 753 c 0,80,81
 273 766 273 766 273 779 c 2,82,-1
 273 780 l 2,83,84
 273 796 273 796 279 809 c 0,85,86
 285 823 285 823 295 832 c 128,-1,87
 305 841 305 841 317 848 c 1,88,89
 331 853 331 853 346 853 c 256,60,61
EndSplineSet
Validated: 513
EndChar

StartChar: "uni288Duni288Euni288Funi2890uni2891uni2892uni2893uni2894un" 
Encoding: 10254 10254 209
Width: 682
Flags: W
LayerCount: 2
Fore
SplineSet
345 410 m 256,0,1
 360 410 360 410 374 404 c 1,2,3
 387 397 387 397 396.5 388 c 128,-1,4
 406 379 406 379 412 365 c 0,5,6
 418 352 418 352 418 338 c 2,7,-1
 418 336 l 2,8,9
 418 321 418 321 412 309 c 0,10,11
 406 295 406 295 396.5 285.5 c 128,-1,12
 387 276 387 276 374 270 c 1,13,14
 360 265 360 265 345 265 c 256,15,16
 330 265 330 265 317 270 c 1,17,18
 303 277 303 277 293.5 286 c 128,-1,19
 284 295 284 295 278 309 c 0,20,21
 272 322 272 322 272 335 c 2,22,-1
 272 336 l 2,23,24
 272 352 272 352 278 365 c 0,25,26
 284 379 284 379 294 388.5 c 128,-1,27
 304 398 304 398 317 404 c 257,28,29
 330 410 330 410 345 410 c 256,0,1
345 631 m 0,30,31
 361 631 361 631 374 625 c 0,32,33
 388 619 388 619 397 609.5 c 128,-1,34
 406 600 406 600 413 587 c 1,35,36
 418 573 418 573 418 559 c 2,37,-1
 418 558 l 2,38,39
 418 543 418 543 413 531 c 1,40,41
 406 517 406 517 396.5 507 c 128,-1,42
 387 497 387 497 374 492 c 0,43,44
 361 486 361 486 345 486 c 0,45,46
 330 486 330 486 317 492 c 0,47,48
 303 498 303 498 294 507.5 c 128,-1,49
 285 517 285 517 278 531 c 1,50,51
 273 544 273 544 273 557 c 2,52,-1
 273 558 l 2,53,54
 273 573 273 573 278 587 c 1,55,56
 285 600 285 600 294.5 610 c 128,-1,57
 304 620 304 620 317 625 c 0,58,59
 330 631 330 631 345 631 c 0,30,31
567 853 m 256,60,61
 582 853 582 853 596 847 c 256,62,63
 610 841 610 841 619.5 831.5 c 128,-1,64
 629 822 629 822 635 809 c 0,65,66
 641 795 641 795 641 781 c 2,67,-1
 641 780 l 2,68,69
 641 765 641 765 635 753 c 0,70,71
 629 739 629 739 619 729 c 128,-1,72
 609 719 609 719 596 713 c 256,73,74
 583 707 583 707 567 707 c 0,75,76
 552 707 552 707 539 713 c 256,77,78
 526 719 526 719 516.5 729 c 128,-1,79
 507 739 507 739 501 753 c 0,80,81
 495 766 495 766 495 779 c 2,82,-1
 495 780 l 2,83,84
 495 795 495 795 501 809 c 0,85,86
 507 822 507 822 517 831.5 c 128,-1,87
 527 841 527 841 539 847 c 0,88,89
 552 853 552 853 567 853 c 256,60,61
EndSplineSet
Validated: 513
EndChar

StartChar: "2895uni2896uni2897uni2898uni2899uni289Auni289Buni289Cuni289Duni289Euni289Funi28A0uni28A1uni2" 
Encoding: 10255 10255 210
Width: 682
Flags: W
LayerCount: 2
Fore
SplineSet
345 410 m 256,0,1
 360 410 360 410 374 404 c 1,2,3
 387 397 387 397 396.5 388 c 128,-1,4
 406 379 406 379 412 365 c 0,5,6
 418 352 418 352 418 338 c 2,7,-1
 418 336 l 2,8,9
 418 321 418 321 412 309 c 0,10,11
 406 295 406 295 396.5 285.5 c 128,-1,12
 387 276 387 276 374 270 c 1,13,14
 360 265 360 265 345 265 c 256,15,16
 330 265 330 265 317 270 c 1,17,18
 303 277 303 277 293.5 286 c 128,-1,19
 284 295 284 295 278 309 c 0,20,21
 272 322 272 322 272 335 c 2,22,-1
 272 336 l 2,23,24
 272 352 272 352 278 365 c 0,25,26
 284 379 284 379 294 388.5 c 128,-1,27
 304 398 304 398 317 404 c 257,28,29
 330 410 330 410 345 410 c 256,0,1
345 631 m 0,30,31
 361 631 361 631 374 625 c 0,32,33
 388 619 388 619 397 609.5 c 128,-1,34
 406 600 406 600 413 587 c 1,35,36
 418 573 418 573 418 559 c 2,37,-1
 418 558 l 2,38,39
 418 543 418 543 413 531 c 1,40,41
 406 517 406 517 396.5 507 c 128,-1,42
 387 497 387 497 374 492 c 0,43,44
 361 486 361 486 345 486 c 0,45,46
 330 486 330 486 317 492 c 0,47,48
 303 498 303 498 294 507.5 c 128,-1,49
 285 517 285 517 278 531 c 1,50,51
 273 544 273 544 273 557 c 2,52,-1
 273 558 l 2,53,54
 273 573 273 573 278 587 c 1,55,56
 285 600 285 600 294.5 610 c 128,-1,57
 304 620 304 620 317 625 c 0,58,59
 330 631 330 631 345 631 c 0,30,31
567 853 m 256,60,61
 582 853 582 853 596 847 c 256,62,63
 610 841 610 841 619.5 831.5 c 128,-1,64
 629 822 629 822 635 809 c 0,65,66
 641 795 641 795 641 781 c 2,67,-1
 641 780 l 2,68,69
 641 765 641 765 635 753 c 0,70,71
 629 739 629 739 619 729 c 128,-1,72
 609 719 609 719 596 713 c 256,73,74
 583 707 583 707 567 707 c 0,75,76
 552 707 552 707 539 713 c 256,77,78
 526 719 526 719 516.5 729 c 128,-1,79
 507 739 507 739 501 753 c 0,80,81
 495 766 495 766 495 779 c 2,82,-1
 495 780 l 2,83,84
 495 795 495 795 501 809 c 0,85,86
 507 822 507 822 517 831.5 c 128,-1,87
 527 841 527 841 539 847 c 0,88,89
 552 853 552 853 567 853 c 256,60,61
346 853 m 256,90,91
 361 853 361 853 374 848 c 1,92,93
 388 841 388 841 397.5 832 c 128,-1,94
 407 823 407 823 413 809 c 0,95,96
 419 796 419 796 419 782 c 2,97,-1
 419 780 l 2,98,99
 419 765 419 765 413 753 c 0,100,101
 407 739 407 739 397 729.5 c 128,-1,102
 387 720 387 720 374 713 c 1,103,104
 361 708 361 708 346 708 c 256,105,106
 331 708 331 708 317 713 c 1,107,108
 304 720 304 720 294.5 729.5 c 128,-1,109
 285 739 285 739 279 753 c 0,110,111
 273 766 273 766 273 779 c 2,112,-1
 273 780 l 2,113,114
 273 796 273 796 279 809 c 0,115,116
 285 823 285 823 295 832 c 128,-1,117
 305 841 305 841 317 848 c 1,118,119
 331 853 331 853 346 853 c 256,90,91
EndSplineSet
Validated: 513
EndChar

StartChar: "A2uni28A3uni28A4uni28A5uni28A6uni28A7uni28A8uni28" 
Encoding: 10256 10256 211
Width: 682
Flags: W
LayerCount: 2
Fore
SplineSet
567 631 m 256,0,1
 582 631 582 631 596 626 c 1,2,3
 610 619 610 619 619.5 610 c 128,-1,4
 629 601 629 601 635 587 c 0,5,6
 641 574 641 574 641 560 c 2,7,-1
 641 558 l 2,8,9
 641 543 641 543 635 531 c 0,10,11
 629 517 629 517 619 507.5 c 128,-1,12
 609 498 609 498 596 492 c 1,13,14
 583 487 583 487 567 486 c 0,15,16
 552 486 552 486 539 492 c 1,17,18
 526 499 526 499 516.5 508 c 128,-1,19
 507 517 507 517 501 531 c 0,20,21
 495 544 495 544 495 557 c 2,22,-1
 495 558 l 2,23,24
 495 574 495 574 501 587 c 0,25,26
 507 601 507 601 517 610.5 c 128,-1,27
 527 620 527 620 539 626 c 1,28,29
 552 631 552 631 567 631 c 256,0,1
EndSplineSet
Validated: 513
EndChar

StartChar: "9uni28AAuni28ABuni28ACuni28ADuni28AEuni28AFuni28B0uni28B1" 
Encoding: 10257 10257 212
Width: 682
Flags: W
LayerCount: 2
Fore
SplineSet
567 631 m 256,0,1
 582 631 582 631 596 626 c 1,2,3
 610 619 610 619 619.5 610 c 128,-1,4
 629 601 629 601 635 587 c 0,5,6
 641 574 641 574 641 560 c 2,7,-1
 641 558 l 2,8,9
 641 543 641 543 635 531 c 0,10,11
 629 517 629 517 619 507.5 c 128,-1,12
 609 498 609 498 596 492 c 1,13,14
 583 487 583 487 567 486 c 0,15,16
 552 486 552 486 539 492 c 1,17,18
 526 499 526 499 516.5 508 c 128,-1,19
 507 517 507 517 501 531 c 0,20,21
 495 544 495 544 495 557 c 2,22,-1
 495 558 l 2,23,24
 495 574 495 574 501 587 c 0,25,26
 507 601 507 601 517 610.5 c 128,-1,27
 527 620 527 620 539 626 c 1,28,29
 552 631 552 631 567 631 c 256,0,1
346 853 m 256,30,31
 361 853 361 853 374 848 c 1,32,33
 388 841 388 841 397.5 832 c 128,-1,34
 407 823 407 823 413 809 c 0,35,36
 419 796 419 796 419 782 c 2,37,-1
 419 780 l 2,38,39
 419 765 419 765 413 753 c 0,40,41
 407 739 407 739 397 729.5 c 128,-1,42
 387 720 387 720 374 713 c 1,43,44
 361 708 361 708 346 708 c 256,45,46
 331 708 331 708 317 713 c 1,47,48
 304 720 304 720 294.5 729.5 c 128,-1,49
 285 739 285 739 279 753 c 0,50,51
 273 766 273 766 273 779 c 2,52,-1
 273 780 l 2,53,54
 273 796 273 796 279 809 c 0,55,56
 285 823 285 823 295 832 c 128,-1,57
 305 841 305 841 317 848 c 1,58,59
 331 853 331 853 346 853 c 256,30,31
EndSplineSet
Validated: 513
EndChar

StartChar: uni28B2
Encoding: 10258 10258 213
Width: 682
Flags: W
LayerCount: 2
Fore
SplineSet
567 631 m 256,0,1
 582 631 582 631 596 626 c 1,2,3
 610 619 610 619 619.5 610 c 128,-1,4
 629 601 629 601 635 587 c 0,5,6
 641 574 641 574 641 560 c 2,7,-1
 641 558 l 2,8,9
 641 543 641 543 635 531 c 0,10,11
 629 517 629 517 619 507.5 c 128,-1,12
 609 498 609 498 596 492 c 1,13,14
 583 487 583 487 567 486 c 0,15,16
 552 486 552 486 539 492 c 1,17,18
 526 499 526 499 516.5 508 c 128,-1,19
 507 517 507 517 501 531 c 0,20,21
 495 544 495 544 495 557 c 2,22,-1
 495 558 l 2,23,24
 495 574 495 574 501 587 c 0,25,26
 507 601 507 601 517 610.5 c 128,-1,27
 527 620 527 620 539 626 c 1,28,29
 552 631 552 631 567 631 c 256,0,1
345 631 m 0,30,31
 361 631 361 631 374 625 c 0,32,33
 388 619 388 619 397 609.5 c 128,-1,34
 406 600 406 600 413 587 c 1,35,36
 418 573 418 573 418 559 c 2,37,-1
 418 558 l 2,38,39
 418 543 418 543 413 531 c 1,40,41
 406 517 406 517 396.5 507 c 128,-1,42
 387 497 387 497 374 492 c 0,43,44
 361 486 361 486 345 486 c 0,45,46
 330 486 330 486 317 492 c 0,47,48
 303 498 303 498 294 507.5 c 128,-1,49
 285 517 285 517 278 531 c 1,50,51
 273 544 273 544 273 557 c 2,52,-1
 273 558 l 2,53,54
 273 573 273 573 278 587 c 1,55,56
 285 600 285 600 294.5 610 c 128,-1,57
 304 620 304 620 317 625 c 0,58,59
 330 631 330 631 345 631 c 0,30,31
EndSplineSet
Validated: 1
EndChar

StartChar: uni28B3
Encoding: 10259 10259 214
Width: 682
Flags: W
LayerCount: 2
Fore
SplineSet
567 631 m 256,0,1
 582 631 582 631 596 626 c 1,2,3
 610 619 610 619 619.5 610 c 128,-1,4
 629 601 629 601 635 587 c 0,5,6
 641 574 641 574 641 560 c 2,7,-1
 641 558 l 2,8,9
 641 543 641 543 635 531 c 0,10,11
 629 517 629 517 619 507.5 c 128,-1,12
 609 498 609 498 596 492 c 1,13,14
 583 487 583 487 567 486 c 0,15,16
 552 486 552 486 539 492 c 1,17,18
 526 499 526 499 516.5 508 c 128,-1,19
 507 517 507 517 501 531 c 0,20,21
 495 544 495 544 495 557 c 2,22,-1
 495 558 l 2,23,24
 495 574 495 574 501 587 c 0,25,26
 507 601 507 601 517 610.5 c 128,-1,27
 527 620 527 620 539 626 c 1,28,29
 552 631 552 631 567 631 c 256,0,1
345 631 m 0,30,31
 361 631 361 631 374 625 c 0,32,33
 388 619 388 619 397 609.5 c 128,-1,34
 406 600 406 600 413 587 c 1,35,36
 418 573 418 573 418 559 c 2,37,-1
 418 558 l 2,38,39
 418 543 418 543 413 531 c 1,40,41
 406 517 406 517 396.5 507 c 128,-1,42
 387 497 387 497 374 492 c 0,43,44
 361 486 361 486 345 486 c 0,45,46
 330 486 330 486 317 492 c 0,47,48
 303 498 303 498 294 507.5 c 128,-1,49
 285 517 285 517 278 531 c 1,50,51
 273 544 273 544 273 557 c 2,52,-1
 273 558 l 2,53,54
 273 573 273 573 278 587 c 1,55,56
 285 600 285 600 294.5 610 c 128,-1,57
 304 620 304 620 317 625 c 0,58,59
 330 631 330 631 345 631 c 0,30,31
346 853 m 256,60,61
 361 853 361 853 374 848 c 1,62,63
 388 841 388 841 397.5 832 c 128,-1,64
 407 823 407 823 413 809 c 0,65,66
 419 796 419 796 419 782 c 2,67,-1
 419 780 l 2,68,69
 419 765 419 765 413 753 c 0,70,71
 407 739 407 739 397 729.5 c 128,-1,72
 387 720 387 720 374 713 c 1,73,74
 361 708 361 708 346 708 c 256,75,76
 331 708 331 708 317 713 c 1,77,78
 304 720 304 720 294.5 729.5 c 128,-1,79
 285 739 285 739 279 753 c 0,80,81
 273 766 273 766 273 779 c 2,82,-1
 273 780 l 2,83,84
 273 796 273 796 279 809 c 0,85,86
 285 823 285 823 295 832 c 128,-1,87
 305 841 305 841 317 848 c 1,88,89
 331 853 331 853 346 853 c 256,60,61
EndSplineSet
Validated: 1
EndChar

StartChar: uni28B4
Encoding: 10260 10260 215
Width: 682
Flags: W
LayerCount: 2
Fore
SplineSet
345 410 m 256,0,1
 360 410 360 410 374 404 c 1,2,3
 387 397 387 397 396.5 388 c 128,-1,4
 406 379 406 379 412 365 c 0,5,6
 418 352 418 352 418 338 c 2,7,-1
 418 336 l 2,8,9
 418 321 418 321 412 309 c 0,10,11
 406 295 406 295 396.5 285.5 c 128,-1,12
 387 276 387 276 374 270 c 1,13,14
 360 265 360 265 345 265 c 256,15,16
 330 265 330 265 317 270 c 1,17,18
 303 277 303 277 293.5 286 c 128,-1,19
 284 295 284 295 278 309 c 0,20,21
 272 322 272 322 272 335 c 2,22,-1
 272 336 l 2,23,24
 272 352 272 352 278 365 c 0,25,26
 284 379 284 379 294 388.5 c 128,-1,27
 304 398 304 398 317 404 c 257,28,29
 330 410 330 410 345 410 c 256,0,1
567 631 m 256,30,31
 582 631 582 631 596 626 c 1,32,33
 610 619 610 619 619.5 610 c 128,-1,34
 629 601 629 601 635 587 c 0,35,36
 641 574 641 574 641 560 c 2,37,-1
 641 558 l 2,38,39
 641 543 641 543 635 531 c 0,40,41
 629 517 629 517 619 507.5 c 128,-1,42
 609 498 609 498 596 492 c 1,43,44
 583 487 583 487 567 486 c 0,45,46
 552 486 552 486 539 492 c 1,47,48
 526 499 526 499 516.5 508 c 128,-1,49
 507 517 507 517 501 531 c 0,50,51
 495 544 495 544 495 557 c 2,52,-1
 495 558 l 2,53,54
 495 574 495 574 501 587 c 0,55,56
 507 601 507 601 517 610.5 c 128,-1,57
 527 620 527 620 539 626 c 1,58,59
 552 631 552 631 567 631 c 256,30,31
EndSplineSet
Validated: 1
EndChar

StartChar: uni28B5
Encoding: 10261 10261 216
Width: 682
Flags: W
LayerCount: 2
Fore
SplineSet
345 410 m 256,0,1
 360 410 360 410 374 404 c 1,2,3
 387 397 387 397 396.5 388 c 128,-1,4
 406 379 406 379 412 365 c 0,5,6
 418 352 418 352 418 338 c 2,7,-1
 418 336 l 2,8,9
 418 321 418 321 412 309 c 0,10,11
 406 295 406 295 396.5 285.5 c 128,-1,12
 387 276 387 276 374 270 c 1,13,14
 360 265 360 265 345 265 c 256,15,16
 330 265 330 265 317 270 c 1,17,18
 303 277 303 277 293.5 286 c 128,-1,19
 284 295 284 295 278 309 c 0,20,21
 272 322 272 322 272 335 c 2,22,-1
 272 336 l 2,23,24
 272 352 272 352 278 365 c 0,25,26
 284 379 284 379 294 388.5 c 128,-1,27
 304 398 304 398 317 404 c 257,28,29
 330 410 330 410 345 410 c 256,0,1
567 631 m 256,30,31
 582 631 582 631 596 626 c 1,32,33
 610 619 610 619 619.5 610 c 128,-1,34
 629 601 629 601 635 587 c 0,35,36
 641 574 641 574 641 560 c 2,37,-1
 641 558 l 2,38,39
 641 543 641 543 635 531 c 0,40,41
 629 517 629 517 619 507.5 c 128,-1,42
 609 498 609 498 596 492 c 1,43,44
 583 487 583 487 567 486 c 0,45,46
 552 486 552 486 539 492 c 1,47,48
 526 499 526 499 516.5 508 c 128,-1,49
 507 517 507 517 501 531 c 0,50,51
 495 544 495 544 495 557 c 2,52,-1
 495 558 l 2,53,54
 495 574 495 574 501 587 c 0,55,56
 507 601 507 601 517 610.5 c 128,-1,57
 527 620 527 620 539 626 c 1,58,59
 552 631 552 631 567 631 c 256,30,31
346 853 m 256,60,61
 361 853 361 853 374 848 c 1,62,63
 388 841 388 841 397.5 832 c 128,-1,64
 407 823 407 823 413 809 c 0,65,66
 419 796 419 796 419 782 c 2,67,-1
 419 780 l 2,68,69
 419 765 419 765 413 753 c 0,70,71
 407 739 407 739 397 729.5 c 128,-1,72
 387 720 387 720 374 713 c 1,73,74
 361 708 361 708 346 708 c 256,75,76
 331 708 331 708 317 713 c 1,77,78
 304 720 304 720 294.5 729.5 c 128,-1,79
 285 739 285 739 279 753 c 0,80,81
 273 766 273 766 273 779 c 2,82,-1
 273 780 l 2,83,84
 273 796 273 796 279 809 c 0,85,86
 285 823 285 823 295 832 c 128,-1,87
 305 841 305 841 317 848 c 1,88,89
 331 853 331 853 346 853 c 256,60,61
EndSplineSet
Validated: 1
EndChar

StartChar: uni28B6
Encoding: 10262 10262 217
Width: 682
Flags: W
LayerCount: 2
Fore
SplineSet
345 410 m 256,0,1
 360 410 360 410 374 404 c 1,2,3
 387 397 387 397 396.5 388 c 128,-1,4
 406 379 406 379 412 365 c 0,5,6
 418 352 418 352 418 338 c 2,7,-1
 418 336 l 2,8,9
 418 321 418 321 412 309 c 0,10,11
 406 295 406 295 396.5 285.5 c 128,-1,12
 387 276 387 276 374 270 c 1,13,14
 360 265 360 265 345 265 c 256,15,16
 330 265 330 265 317 270 c 1,17,18
 303 277 303 277 293.5 286 c 128,-1,19
 284 295 284 295 278 309 c 0,20,21
 272 322 272 322 272 335 c 2,22,-1
 272 336 l 2,23,24
 272 352 272 352 278 365 c 0,25,26
 284 379 284 379 294 388.5 c 128,-1,27
 304 398 304 398 317 404 c 257,28,29
 330 410 330 410 345 410 c 256,0,1
567 631 m 256,30,31
 582 631 582 631 596 626 c 1,32,33
 610 619 610 619 619.5 610 c 128,-1,34
 629 601 629 601 635 587 c 0,35,36
 641 574 641 574 641 560 c 2,37,-1
 641 558 l 2,38,39
 641 543 641 543 635 531 c 0,40,41
 629 517 629 517 619 507.5 c 128,-1,42
 609 498 609 498 596 492 c 1,43,44
 583 487 583 487 567 486 c 0,45,46
 552 486 552 486 539 492 c 1,47,48
 526 499 526 499 516.5 508 c 128,-1,49
 507 517 507 517 501 531 c 0,50,51
 495 544 495 544 495 557 c 2,52,-1
 495 558 l 2,53,54
 495 574 495 574 501 587 c 0,55,56
 507 601 507 601 517 610.5 c 128,-1,57
 527 620 527 620 539 626 c 1,58,59
 552 631 552 631 567 631 c 256,30,31
345 631 m 0,60,61
 361 631 361 631 374 625 c 0,62,63
 388 619 388 619 397 609.5 c 128,-1,64
 406 600 406 600 413 587 c 1,65,66
 418 573 418 573 418 559 c 2,67,-1
 418 558 l 2,68,69
 418 543 418 543 413 531 c 1,70,71
 406 517 406 517 396.5 507 c 128,-1,72
 387 497 387 497 374 492 c 0,73,74
 361 486 361 486 345 486 c 0,75,76
 330 486 330 486 317 492 c 0,77,78
 303 498 303 498 294 507.5 c 128,-1,79
 285 517 285 517 278 531 c 1,80,81
 273 544 273 544 273 557 c 2,82,-1
 273 558 l 2,83,84
 273 573 273 573 278 587 c 1,85,86
 285 600 285 600 294.5 610 c 128,-1,87
 304 620 304 620 317 625 c 0,88,89
 330 631 330 631 345 631 c 0,60,61
EndSplineSet
Validated: 1
EndChar

StartChar: uni28B7
Encoding: 10263 10263 218
Width: 682
Flags: W
LayerCount: 2
Fore
SplineSet
345 410 m 256,0,1
 360 410 360 410 374 404 c 1,2,3
 387 397 387 397 396.5 388 c 128,-1,4
 406 379 406 379 412 365 c 0,5,6
 418 352 418 352 418 338 c 2,7,-1
 418 336 l 2,8,9
 418 321 418 321 412 309 c 0,10,11
 406 295 406 295 396.5 285.5 c 128,-1,12
 387 276 387 276 374 270 c 1,13,14
 360 265 360 265 345 265 c 256,15,16
 330 265 330 265 317 270 c 1,17,18
 303 277 303 277 293.5 286 c 128,-1,19
 284 295 284 295 278 309 c 0,20,21
 272 322 272 322 272 335 c 2,22,-1
 272 336 l 2,23,24
 272 352 272 352 278 365 c 0,25,26
 284 379 284 379 294 388.5 c 128,-1,27
 304 398 304 398 317 404 c 257,28,29
 330 410 330 410 345 410 c 256,0,1
567 631 m 256,30,31
 582 631 582 631 596 626 c 1,32,33
 610 619 610 619 619.5 610 c 128,-1,34
 629 601 629 601 635 587 c 0,35,36
 641 574 641 574 641 560 c 2,37,-1
 641 558 l 2,38,39
 641 543 641 543 635 531 c 0,40,41
 629 517 629 517 619 507.5 c 128,-1,42
 609 498 609 498 596 492 c 1,43,44
 583 487 583 487 567 486 c 0,45,46
 552 486 552 486 539 492 c 1,47,48
 526 499 526 499 516.5 508 c 128,-1,49
 507 517 507 517 501 531 c 0,50,51
 495 544 495 544 495 557 c 2,52,-1
 495 558 l 2,53,54
 495 574 495 574 501 587 c 0,55,56
 507 601 507 601 517 610.5 c 128,-1,57
 527 620 527 620 539 626 c 1,58,59
 552 631 552 631 567 631 c 256,30,31
345 631 m 0,60,61
 361 631 361 631 374 625 c 0,62,63
 388 619 388 619 397 609.5 c 128,-1,64
 406 600 406 600 413 587 c 1,65,66
 418 573 418 573 418 559 c 2,67,-1
 418 558 l 2,68,69
 418 543 418 543 413 531 c 1,70,71
 406 517 406 517 396.5 507 c 128,-1,72
 387 497 387 497 374 492 c 0,73,74
 361 486 361 486 345 486 c 0,75,76
 330 486 330 486 317 492 c 0,77,78
 303 498 303 498 294 507.5 c 128,-1,79
 285 517 285 517 278 531 c 1,80,81
 273 544 273 544 273 557 c 2,82,-1
 273 558 l 2,83,84
 273 573 273 573 278 587 c 1,85,86
 285 600 285 600 294.5 610 c 128,-1,87
 304 620 304 620 317 625 c 0,88,89
 330 631 330 631 345 631 c 0,60,61
346 853 m 256,90,91
 361 853 361 853 374 848 c 1,92,93
 388 841 388 841 397.5 832 c 128,-1,94
 407 823 407 823 413 809 c 0,95,96
 419 796 419 796 419 782 c 2,97,-1
 419 780 l 2,98,99
 419 765 419 765 413 753 c 0,100,101
 407 739 407 739 397 729.5 c 128,-1,102
 387 720 387 720 374 713 c 1,103,104
 361 708 361 708 346 708 c 256,105,106
 331 708 331 708 317 713 c 1,107,108
 304 720 304 720 294.5 729.5 c 128,-1,109
 285 739 285 739 279 753 c 0,110,111
 273 766 273 766 273 779 c 2,112,-1
 273 780 l 2,113,114
 273 796 273 796 279 809 c 0,115,116
 285 823 285 823 295 832 c 128,-1,117
 305 841 305 841 317 848 c 1,118,119
 331 853 331 853 346 853 c 256,90,91
EndSplineSet
Validated: 1
EndChar

StartChar: uni28B8
Encoding: 10264 10264 219
Width: 682
Flags: W
LayerCount: 2
Fore
SplineSet
567 631 m 256,0,1
 582 631 582 631 596 626 c 1,2,3
 610 619 610 619 619.5 610 c 128,-1,4
 629 601 629 601 635 587 c 0,5,6
 641 574 641 574 641 560 c 2,7,-1
 641 558 l 2,8,9
 641 543 641 543 635 531 c 0,10,11
 629 517 629 517 619 507.5 c 128,-1,12
 609 498 609 498 596 492 c 1,13,14
 583 487 583 487 567 486 c 0,15,16
 552 486 552 486 539 492 c 1,17,18
 526 499 526 499 516.5 508 c 128,-1,19
 507 517 507 517 501 531 c 0,20,21
 495 544 495 544 495 557 c 2,22,-1
 495 558 l 2,23,24
 495 574 495 574 501 587 c 0,25,26
 507 601 507 601 517 610.5 c 128,-1,27
 527 620 527 620 539 626 c 1,28,29
 552 631 552 631 567 631 c 256,0,1
567 853 m 256,30,31
 582 853 582 853 596 847 c 256,32,33
 610 841 610 841 619.5 831.5 c 128,-1,34
 629 822 629 822 635 809 c 0,35,36
 641 795 641 795 641 781 c 2,37,-1
 641 780 l 2,38,39
 641 765 641 765 635 753 c 0,40,41
 629 739 629 739 619 729 c 128,-1,42
 609 719 609 719 596 713 c 256,43,44
 583 707 583 707 567 707 c 0,45,46
 552 707 552 707 539 713 c 256,47,48
 526 719 526 719 516.5 729 c 128,-1,49
 507 739 507 739 501 753 c 0,50,51
 495 766 495 766 495 779 c 2,52,-1
 495 780 l 2,53,54
 495 795 495 795 501 809 c 0,55,56
 507 822 507 822 517 831.5 c 128,-1,57
 527 841 527 841 539 847 c 0,58,59
 552 853 552 853 567 853 c 256,30,31
EndSplineSet
Validated: 1
EndChar

StartChar: uni28B9
Encoding: 10265 10265 220
Width: 682
Flags: W
LayerCount: 2
Fore
SplineSet
567 631 m 256,0,1
 582 631 582 631 596 626 c 1,2,3
 610 619 610 619 619.5 610 c 128,-1,4
 629 601 629 601 635 587 c 0,5,6
 641 574 641 574 641 560 c 2,7,-1
 641 558 l 2,8,9
 641 543 641 543 635 531 c 0,10,11
 629 517 629 517 619 507.5 c 128,-1,12
 609 498 609 498 596 492 c 1,13,14
 583 487 583 487 567 486 c 0,15,16
 552 486 552 486 539 492 c 1,17,18
 526 499 526 499 516.5 508 c 128,-1,19
 507 517 507 517 501 531 c 0,20,21
 495 544 495 544 495 557 c 2,22,-1
 495 558 l 2,23,24
 495 574 495 574 501 587 c 0,25,26
 507 601 507 601 517 610.5 c 128,-1,27
 527 620 527 620 539 626 c 1,28,29
 552 631 552 631 567 631 c 256,0,1
567 853 m 256,30,31
 582 853 582 853 596 847 c 256,32,33
 610 841 610 841 619.5 831.5 c 128,-1,34
 629 822 629 822 635 809 c 0,35,36
 641 795 641 795 641 781 c 2,37,-1
 641 780 l 2,38,39
 641 765 641 765 635 753 c 0,40,41
 629 739 629 739 619 729 c 128,-1,42
 609 719 609 719 596 713 c 256,43,44
 583 707 583 707 567 707 c 0,45,46
 552 707 552 707 539 713 c 256,47,48
 526 719 526 719 516.5 729 c 128,-1,49
 507 739 507 739 501 753 c 0,50,51
 495 766 495 766 495 779 c 2,52,-1
 495 780 l 2,53,54
 495 795 495 795 501 809 c 0,55,56
 507 822 507 822 517 831.5 c 128,-1,57
 527 841 527 841 539 847 c 0,58,59
 552 853 552 853 567 853 c 256,30,31
346 853 m 256,60,61
 361 853 361 853 374 848 c 1,62,63
 388 841 388 841 397.5 832 c 128,-1,64
 407 823 407 823 413 809 c 0,65,66
 419 796 419 796 419 782 c 2,67,-1
 419 780 l 2,68,69
 419 765 419 765 413 753 c 0,70,71
 407 739 407 739 397 729.5 c 128,-1,72
 387 720 387 720 374 713 c 1,73,74
 361 708 361 708 346 708 c 256,75,76
 331 708 331 708 317 713 c 1,77,78
 304 720 304 720 294.5 729.5 c 128,-1,79
 285 739 285 739 279 753 c 0,80,81
 273 766 273 766 273 779 c 2,82,-1
 273 780 l 2,83,84
 273 796 273 796 279 809 c 0,85,86
 285 823 285 823 295 832 c 128,-1,87
 305 841 305 841 317 848 c 1,88,89
 331 853 331 853 346 853 c 256,60,61
EndSplineSet
Validated: 1
EndChar

StartChar: uni28BA
Encoding: 10266 10266 221
Width: 682
Flags: W
LayerCount: 2
Fore
SplineSet
567 631 m 256,0,1
 582 631 582 631 596 626 c 1,2,3
 610 619 610 619 619.5 610 c 128,-1,4
 629 601 629 601 635 587 c 0,5,6
 641 574 641 574 641 560 c 2,7,-1
 641 558 l 2,8,9
 641 543 641 543 635 531 c 0,10,11
 629 517 629 517 619 507.5 c 128,-1,12
 609 498 609 498 596 492 c 1,13,14
 583 487 583 487 567 486 c 0,15,16
 552 486 552 486 539 492 c 1,17,18
 526 499 526 499 516.5 508 c 128,-1,19
 507 517 507 517 501 531 c 0,20,21
 495 544 495 544 495 557 c 2,22,-1
 495 558 l 2,23,24
 495 574 495 574 501 587 c 0,25,26
 507 601 507 601 517 610.5 c 128,-1,27
 527 620 527 620 539 626 c 1,28,29
 552 631 552 631 567 631 c 256,0,1
345 631 m 0,30,31
 361 631 361 631 374 625 c 0,32,33
 388 619 388 619 397 609.5 c 128,-1,34
 406 600 406 600 413 587 c 1,35,36
 418 573 418 573 418 559 c 2,37,-1
 418 558 l 2,38,39
 418 543 418 543 413 531 c 1,40,41
 406 517 406 517 396.5 507 c 128,-1,42
 387 497 387 497 374 492 c 0,43,44
 361 486 361 486 345 486 c 0,45,46
 330 486 330 486 317 492 c 0,47,48
 303 498 303 498 294 507.5 c 128,-1,49
 285 517 285 517 278 531 c 1,50,51
 273 544 273 544 273 557 c 2,52,-1
 273 558 l 2,53,54
 273 573 273 573 278 587 c 1,55,56
 285 600 285 600 294.5 610 c 128,-1,57
 304 620 304 620 317 625 c 0,58,59
 330 631 330 631 345 631 c 0,30,31
567 853 m 256,60,61
 582 853 582 853 596 847 c 256,62,63
 610 841 610 841 619.5 831.5 c 128,-1,64
 629 822 629 822 635 809 c 0,65,66
 641 795 641 795 641 781 c 2,67,-1
 641 780 l 2,68,69
 641 765 641 765 635 753 c 0,70,71
 629 739 629 739 619 729 c 128,-1,72
 609 719 609 719 596 713 c 256,73,74
 583 707 583 707 567 707 c 0,75,76
 552 707 552 707 539 713 c 256,77,78
 526 719 526 719 516.5 729 c 128,-1,79
 507 739 507 739 501 753 c 0,80,81
 495 766 495 766 495 779 c 2,82,-1
 495 780 l 2,83,84
 495 795 495 795 501 809 c 0,85,86
 507 822 507 822 517 831.5 c 128,-1,87
 527 841 527 841 539 847 c 0,88,89
 552 853 552 853 567 853 c 256,60,61
EndSplineSet
Validated: 1
EndChar

StartChar: uni28BB
Encoding: 10267 10267 222
Width: 682
Flags: W
LayerCount: 2
Fore
SplineSet
567 631 m 256,0,1
 582 631 582 631 596 626 c 1,2,3
 610 619 610 619 619.5 610 c 128,-1,4
 629 601 629 601 635 587 c 0,5,6
 641 574 641 574 641 560 c 2,7,-1
 641 558 l 2,8,9
 641 543 641 543 635 531 c 0,10,11
 629 517 629 517 619 507.5 c 128,-1,12
 609 498 609 498 596 492 c 1,13,14
 583 487 583 487 567 486 c 0,15,16
 552 486 552 486 539 492 c 1,17,18
 526 499 526 499 516.5 508 c 128,-1,19
 507 517 507 517 501 531 c 0,20,21
 495 544 495 544 495 557 c 2,22,-1
 495 558 l 2,23,24
 495 574 495 574 501 587 c 0,25,26
 507 601 507 601 517 610.5 c 128,-1,27
 527 620 527 620 539 626 c 1,28,29
 552 631 552 631 567 631 c 256,0,1
345 631 m 0,30,31
 361 631 361 631 374 625 c 0,32,33
 388 619 388 619 397 609.5 c 128,-1,34
 406 600 406 600 413 587 c 1,35,36
 418 573 418 573 418 559 c 2,37,-1
 418 558 l 2,38,39
 418 543 418 543 413 531 c 1,40,41
 406 517 406 517 396.5 507 c 128,-1,42
 387 497 387 497 374 492 c 0,43,44
 361 486 361 486 345 486 c 0,45,46
 330 486 330 486 317 492 c 0,47,48
 303 498 303 498 294 507.5 c 128,-1,49
 285 517 285 517 278 531 c 1,50,51
 273 544 273 544 273 557 c 2,52,-1
 273 558 l 2,53,54
 273 573 273 573 278 587 c 1,55,56
 285 600 285 600 294.5 610 c 128,-1,57
 304 620 304 620 317 625 c 0,58,59
 330 631 330 631 345 631 c 0,30,31
567 853 m 256,60,61
 582 853 582 853 596 847 c 256,62,63
 610 841 610 841 619.5 831.5 c 128,-1,64
 629 822 629 822 635 809 c 0,65,66
 641 795 641 795 641 781 c 2,67,-1
 641 780 l 2,68,69
 641 765 641 765 635 753 c 0,70,71
 629 739 629 739 619 729 c 128,-1,72
 609 719 609 719 596 713 c 256,73,74
 583 707 583 707 567 707 c 0,75,76
 552 707 552 707 539 713 c 256,77,78
 526 719 526 719 516.5 729 c 128,-1,79
 507 739 507 739 501 753 c 0,80,81
 495 766 495 766 495 779 c 2,82,-1
 495 780 l 2,83,84
 495 795 495 795 501 809 c 0,85,86
 507 822 507 822 517 831.5 c 128,-1,87
 527 841 527 841 539 847 c 0,88,89
 552 853 552 853 567 853 c 256,60,61
346 853 m 256,90,91
 361 853 361 853 374 848 c 1,92,93
 388 841 388 841 397.5 832 c 128,-1,94
 407 823 407 823 413 809 c 0,95,96
 419 796 419 796 419 782 c 2,97,-1
 419 780 l 2,98,99
 419 765 419 765 413 753 c 0,100,101
 407 739 407 739 397 729.5 c 128,-1,102
 387 720 387 720 374 713 c 1,103,104
 361 708 361 708 346 708 c 256,105,106
 331 708 331 708 317 713 c 1,107,108
 304 720 304 720 294.5 729.5 c 128,-1,109
 285 739 285 739 279 753 c 0,110,111
 273 766 273 766 273 779 c 2,112,-1
 273 780 l 2,113,114
 273 796 273 796 279 809 c 0,115,116
 285 823 285 823 295 832 c 128,-1,117
 305 841 305 841 317 848 c 1,118,119
 331 853 331 853 346 853 c 256,90,91
EndSplineSet
Validated: 1
EndChar

StartChar: uni28BC
Encoding: 10268 10268 223
Width: 682
Flags: W
LayerCount: 2
Fore
SplineSet
345 410 m 256,0,1
 360 410 360 410 374 404 c 1,2,3
 387 397 387 397 396.5 388 c 128,-1,4
 406 379 406 379 412 365 c 0,5,6
 418 352 418 352 418 338 c 2,7,-1
 418 336 l 2,8,9
 418 321 418 321 412 309 c 0,10,11
 406 295 406 295 396.5 285.5 c 128,-1,12
 387 276 387 276 374 270 c 1,13,14
 360 265 360 265 345 265 c 256,15,16
 330 265 330 265 317 270 c 1,17,18
 303 277 303 277 293.5 286 c 128,-1,19
 284 295 284 295 278 309 c 0,20,21
 272 322 272 322 272 335 c 2,22,-1
 272 336 l 2,23,24
 272 352 272 352 278 365 c 0,25,26
 284 379 284 379 294 388.5 c 128,-1,27
 304 398 304 398 317 404 c 257,28,29
 330 410 330 410 345 410 c 256,0,1
567 631 m 256,30,31
 582 631 582 631 596 626 c 1,32,33
 610 619 610 619 619.5 610 c 128,-1,34
 629 601 629 601 635 587 c 0,35,36
 641 574 641 574 641 560 c 2,37,-1
 641 558 l 2,38,39
 641 543 641 543 635 531 c 0,40,41
 629 517 629 517 619 507.5 c 128,-1,42
 609 498 609 498 596 492 c 1,43,44
 583 487 583 487 567 486 c 0,45,46
 552 486 552 486 539 492 c 1,47,48
 526 499 526 499 516.5 508 c 128,-1,49
 507 517 507 517 501 531 c 0,50,51
 495 544 495 544 495 557 c 2,52,-1
 495 558 l 2,53,54
 495 574 495 574 501 587 c 0,55,56
 507 601 507 601 517 610.5 c 128,-1,57
 527 620 527 620 539 626 c 1,58,59
 552 631 552 631 567 631 c 256,30,31
567 853 m 256,60,61
 582 853 582 853 596 847 c 256,62,63
 610 841 610 841 619.5 831.5 c 128,-1,64
 629 822 629 822 635 809 c 0,65,66
 641 795 641 795 641 781 c 2,67,-1
 641 780 l 2,68,69
 641 765 641 765 635 753 c 0,70,71
 629 739 629 739 619 729 c 128,-1,72
 609 719 609 719 596 713 c 256,73,74
 583 707 583 707 567 707 c 0,75,76
 552 707 552 707 539 713 c 256,77,78
 526 719 526 719 516.5 729 c 128,-1,79
 507 739 507 739 501 753 c 0,80,81
 495 766 495 766 495 779 c 2,82,-1
 495 780 l 2,83,84
 495 795 495 795 501 809 c 0,85,86
 507 822 507 822 517 831.5 c 128,-1,87
 527 841 527 841 539 847 c 0,88,89
 552 853 552 853 567 853 c 256,60,61
EndSplineSet
Validated: 1
EndChar

StartChar: uni28BD
Encoding: 10269 10269 224
Width: 682
Flags: W
LayerCount: 2
Fore
SplineSet
345 410 m 256,0,1
 360 410 360 410 374 404 c 1,2,3
 387 397 387 397 396.5 388 c 128,-1,4
 406 379 406 379 412 365 c 0,5,6
 418 352 418 352 418 338 c 2,7,-1
 418 336 l 2,8,9
 418 321 418 321 412 309 c 0,10,11
 406 295 406 295 396.5 285.5 c 128,-1,12
 387 276 387 276 374 270 c 1,13,14
 360 265 360 265 345 265 c 256,15,16
 330 265 330 265 317 270 c 1,17,18
 303 277 303 277 293.5 286 c 128,-1,19
 284 295 284 295 278 309 c 0,20,21
 272 322 272 322 272 335 c 2,22,-1
 272 336 l 2,23,24
 272 352 272 352 278 365 c 0,25,26
 284 379 284 379 294 388.5 c 128,-1,27
 304 398 304 398 317 404 c 257,28,29
 330 410 330 410 345 410 c 256,0,1
567 631 m 256,30,31
 582 631 582 631 596 626 c 1,32,33
 610 619 610 619 619.5 610 c 128,-1,34
 629 601 629 601 635 587 c 0,35,36
 641 574 641 574 641 560 c 2,37,-1
 641 558 l 2,38,39
 641 543 641 543 635 531 c 0,40,41
 629 517 629 517 619 507.5 c 128,-1,42
 609 498 609 498 596 492 c 1,43,44
 583 487 583 487 567 486 c 0,45,46
 552 486 552 486 539 492 c 1,47,48
 526 499 526 499 516.5 508 c 128,-1,49
 507 517 507 517 501 531 c 0,50,51
 495 544 495 544 495 557 c 2,52,-1
 495 558 l 2,53,54
 495 574 495 574 501 587 c 0,55,56
 507 601 507 601 517 610.5 c 128,-1,57
 527 620 527 620 539 626 c 1,58,59
 552 631 552 631 567 631 c 256,30,31
567 853 m 256,60,61
 582 853 582 853 596 847 c 256,62,63
 610 841 610 841 619.5 831.5 c 128,-1,64
 629 822 629 822 635 809 c 0,65,66
 641 795 641 795 641 781 c 2,67,-1
 641 780 l 2,68,69
 641 765 641 765 635 753 c 0,70,71
 629 739 629 739 619 729 c 128,-1,72
 609 719 609 719 596 713 c 256,73,74
 583 707 583 707 567 707 c 0,75,76
 552 707 552 707 539 713 c 256,77,78
 526 719 526 719 516.5 729 c 128,-1,79
 507 739 507 739 501 753 c 0,80,81
 495 766 495 766 495 779 c 2,82,-1
 495 780 l 2,83,84
 495 795 495 795 501 809 c 0,85,86
 507 822 507 822 517 831.5 c 128,-1,87
 527 841 527 841 539 847 c 0,88,89
 552 853 552 853 567 853 c 256,60,61
346 853 m 256,90,91
 361 853 361 853 374 848 c 1,92,93
 388 841 388 841 397.5 832 c 128,-1,94
 407 823 407 823 413 809 c 0,95,96
 419 796 419 796 419 782 c 2,97,-1
 419 780 l 2,98,99
 419 765 419 765 413 753 c 0,100,101
 407 739 407 739 397 729.5 c 128,-1,102
 387 720 387 720 374 713 c 1,103,104
 361 708 361 708 346 708 c 256,105,106
 331 708 331 708 317 713 c 1,107,108
 304 720 304 720 294.5 729.5 c 128,-1,109
 285 739 285 739 279 753 c 0,110,111
 273 766 273 766 273 779 c 2,112,-1
 273 780 l 2,113,114
 273 796 273 796 279 809 c 0,115,116
 285 823 285 823 295 832 c 128,-1,117
 305 841 305 841 317 848 c 1,118,119
 331 853 331 853 346 853 c 256,90,91
EndSplineSet
Validated: 1
EndChar

StartChar: uni28BE
Encoding: 10270 10270 225
Width: 682
Flags: W
LayerCount: 2
Fore
SplineSet
345 410 m 256,0,1
 360 410 360 410 374 404 c 1,2,3
 387 397 387 397 396.5 388 c 128,-1,4
 406 379 406 379 412 365 c 0,5,6
 418 352 418 352 418 338 c 2,7,-1
 418 336 l 2,8,9
 418 321 418 321 412 309 c 0,10,11
 406 295 406 295 396.5 285.5 c 128,-1,12
 387 276 387 276 374 270 c 1,13,14
 360 265 360 265 345 265 c 256,15,16
 330 265 330 265 317 270 c 1,17,18
 303 277 303 277 293.5 286 c 128,-1,19
 284 295 284 295 278 309 c 0,20,21
 272 322 272 322 272 335 c 2,22,-1
 272 336 l 2,23,24
 272 352 272 352 278 365 c 0,25,26
 284 379 284 379 294 388.5 c 128,-1,27
 304 398 304 398 317 404 c 257,28,29
 330 410 330 410 345 410 c 256,0,1
567 631 m 256,30,31
 582 631 582 631 596 626 c 1,32,33
 610 619 610 619 619.5 610 c 128,-1,34
 629 601 629 601 635 587 c 0,35,36
 641 574 641 574 641 560 c 2,37,-1
 641 558 l 2,38,39
 641 543 641 543 635 531 c 0,40,41
 629 517 629 517 619 507.5 c 128,-1,42
 609 498 609 498 596 492 c 1,43,44
 583 487 583 487 567 486 c 0,45,46
 552 486 552 486 539 492 c 1,47,48
 526 499 526 499 516.5 508 c 128,-1,49
 507 517 507 517 501 531 c 0,50,51
 495 544 495 544 495 557 c 2,52,-1
 495 558 l 2,53,54
 495 574 495 574 501 587 c 0,55,56
 507 601 507 601 517 610.5 c 128,-1,57
 527 620 527 620 539 626 c 1,58,59
 552 631 552 631 567 631 c 256,30,31
345 631 m 0,60,61
 361 631 361 631 374 625 c 0,62,63
 388 619 388 619 397 609.5 c 128,-1,64
 406 600 406 600 413 587 c 1,65,66
 418 573 418 573 418 559 c 2,67,-1
 418 558 l 2,68,69
 418 543 418 543 413 531 c 1,70,71
 406 517 406 517 396.5 507 c 128,-1,72
 387 497 387 497 374 492 c 0,73,74
 361 486 361 486 345 486 c 0,75,76
 330 486 330 486 317 492 c 0,77,78
 303 498 303 498 294 507.5 c 128,-1,79
 285 517 285 517 278 531 c 1,80,81
 273 544 273 544 273 557 c 2,82,-1
 273 558 l 2,83,84
 273 573 273 573 278 587 c 1,85,86
 285 600 285 600 294.5 610 c 128,-1,87
 304 620 304 620 317 625 c 0,88,89
 330 631 330 631 345 631 c 0,60,61
567 853 m 256,90,91
 582 853 582 853 596 847 c 256,92,93
 610 841 610 841 619.5 831.5 c 128,-1,94
 629 822 629 822 635 809 c 0,95,96
 641 795 641 795 641 781 c 2,97,-1
 641 780 l 2,98,99
 641 765 641 765 635 753 c 0,100,101
 629 739 629 739 619 729 c 128,-1,102
 609 719 609 719 596 713 c 256,103,104
 583 707 583 707 567 707 c 0,105,106
 552 707 552 707 539 713 c 256,107,108
 526 719 526 719 516.5 729 c 128,-1,109
 507 739 507 739 501 753 c 0,110,111
 495 766 495 766 495 779 c 2,112,-1
 495 780 l 2,113,114
 495 795 495 795 501 809 c 0,115,116
 507 822 507 822 517 831.5 c 128,-1,117
 527 841 527 841 539 847 c 0,118,119
 552 853 552 853 567 853 c 256,90,91
EndSplineSet
Validated: 1
EndChar

StartChar: uni28BF
Encoding: 10271 10271 226
Width: 682
Flags: W
LayerCount: 2
Fore
SplineSet
345 410 m 256,0,1
 360 410 360 410 374 404 c 1,2,3
 387 397 387 397 396.5 388 c 128,-1,4
 406 379 406 379 412 365 c 0,5,6
 418 352 418 352 418 338 c 2,7,-1
 418 336 l 2,8,9
 418 321 418 321 412 309 c 0,10,11
 406 295 406 295 396.5 285.5 c 128,-1,12
 387 276 387 276 374 270 c 1,13,14
 360 265 360 265 345 265 c 256,15,16
 330 265 330 265 317 270 c 1,17,18
 303 277 303 277 293.5 286 c 128,-1,19
 284 295 284 295 278 309 c 0,20,21
 272 322 272 322 272 335 c 2,22,-1
 272 336 l 2,23,24
 272 352 272 352 278 365 c 0,25,26
 284 379 284 379 294 388.5 c 128,-1,27
 304 398 304 398 317 404 c 257,28,29
 330 410 330 410 345 410 c 256,0,1
567 631 m 256,30,31
 582 631 582 631 596 626 c 1,32,33
 610 619 610 619 619.5 610 c 128,-1,34
 629 601 629 601 635 587 c 0,35,36
 641 574 641 574 641 560 c 2,37,-1
 641 558 l 2,38,39
 641 543 641 543 635 531 c 0,40,41
 629 517 629 517 619 507.5 c 128,-1,42
 609 498 609 498 596 492 c 1,43,44
 583 487 583 487 567 486 c 0,45,46
 552 486 552 486 539 492 c 1,47,48
 526 499 526 499 516.5 508 c 128,-1,49
 507 517 507 517 501 531 c 0,50,51
 495 544 495 544 495 557 c 2,52,-1
 495 558 l 2,53,54
 495 574 495 574 501 587 c 0,55,56
 507 601 507 601 517 610.5 c 128,-1,57
 527 620 527 620 539 626 c 1,58,59
 552 631 552 631 567 631 c 256,30,31
345 631 m 0,60,61
 361 631 361 631 374 625 c 0,62,63
 388 619 388 619 397 609.5 c 128,-1,64
 406 600 406 600 413 587 c 1,65,66
 418 573 418 573 418 559 c 2,67,-1
 418 558 l 2,68,69
 418 543 418 543 413 531 c 1,70,71
 406 517 406 517 396.5 507 c 128,-1,72
 387 497 387 497 374 492 c 0,73,74
 361 486 361 486 345 486 c 0,75,76
 330 486 330 486 317 492 c 0,77,78
 303 498 303 498 294 507.5 c 128,-1,79
 285 517 285 517 278 531 c 1,80,81
 273 544 273 544 273 557 c 2,82,-1
 273 558 l 2,83,84
 273 573 273 573 278 587 c 1,85,86
 285 600 285 600 294.5 610 c 128,-1,87
 304 620 304 620 317 625 c 0,88,89
 330 631 330 631 345 631 c 0,60,61
567 853 m 256,90,91
 582 853 582 853 596 847 c 256,92,93
 610 841 610 841 619.5 831.5 c 128,-1,94
 629 822 629 822 635 809 c 0,95,96
 641 795 641 795 641 781 c 2,97,-1
 641 780 l 2,98,99
 641 765 641 765 635 753 c 0,100,101
 629 739 629 739 619 729 c 128,-1,102
 609 719 609 719 596 713 c 256,103,104
 583 707 583 707 567 707 c 0,105,106
 552 707 552 707 539 713 c 256,107,108
 526 719 526 719 516.5 729 c 128,-1,109
 507 739 507 739 501 753 c 0,110,111
 495 766 495 766 495 779 c 2,112,-1
 495 780 l 2,113,114
 495 795 495 795 501 809 c 0,115,116
 507 822 507 822 517 831.5 c 128,-1,117
 527 841 527 841 539 847 c 0,118,119
 552 853 552 853 567 853 c 256,90,91
346 853 m 256,120,121
 361 853 361 853 374 848 c 1,122,123
 388 841 388 841 397.5 832 c 128,-1,124
 407 823 407 823 413 809 c 0,125,126
 419 796 419 796 419 782 c 2,127,-1
 419 780 l 2,128,129
 419 765 419 765 413 753 c 0,130,131
 407 739 407 739 397 729.5 c 128,-1,132
 387 720 387 720 374 713 c 1,133,134
 361 708 361 708 346 708 c 256,135,136
 331 708 331 708 317 713 c 1,137,138
 304 720 304 720 294.5 729.5 c 128,-1,139
 285 739 285 739 279 753 c 0,140,141
 273 766 273 766 273 779 c 2,142,-1
 273 780 l 2,143,144
 273 796 273 796 279 809 c 0,145,146
 285 823 285 823 295 832 c 128,-1,147
 305 841 305 841 317 848 c 1,148,149
 331 853 331 853 346 853 c 256,120,121
EndSplineSet
Validated: 1
EndChar

StartChar: uni28C0
Encoding: 10272 10272 227
Width: 682
Flags: W
LayerCount: 2
Fore
SplineSet
567 410 m 256,0,1
 582 410 582 410 596 404 c 1,2,3
 610 397 610 397 619.5 388 c 128,-1,4
 629 379 629 379 635 365 c 0,5,6
 641 352 641 352 641 338 c 2,7,-1
 641 336 l 2,8,9
 641 321 641 321 635 309 c 0,10,11
 629 295 629 295 619 285.5 c 128,-1,12
 609 276 609 276 596 270 c 1,13,14
 583 265 583 265 567 265 c 0,15,16
 552 265 552 265 539 270 c 1,17,18
 526 277 526 277 516.5 286 c 128,-1,19
 507 295 507 295 501 309 c 0,20,21
 495 322 495 322 495 335 c 2,22,-1
 495 336 l 2,23,24
 495 352 495 352 501 365 c 0,25,26
 507 379 507 379 517 388.5 c 128,-1,27
 527 398 527 398 539 404 c 1,28,29
 552 410 552 410 567 410 c 256,0,1
EndSplineSet
Validated: 1
EndChar

StartChar: uni28C1
Encoding: 10273 10273 228
Width: 682
Flags: W
LayerCount: 2
Fore
SplineSet
567 410 m 256,0,1
 582 410 582 410 596 404 c 1,2,3
 610 397 610 397 619.5 388 c 128,-1,4
 629 379 629 379 635 365 c 0,5,6
 641 352 641 352 641 338 c 2,7,-1
 641 336 l 2,8,9
 641 321 641 321 635 309 c 0,10,11
 629 295 629 295 619 285.5 c 128,-1,12
 609 276 609 276 596 270 c 1,13,14
 583 265 583 265 567 265 c 0,15,16
 552 265 552 265 539 270 c 1,17,18
 526 277 526 277 516.5 286 c 128,-1,19
 507 295 507 295 501 309 c 0,20,21
 495 322 495 322 495 335 c 2,22,-1
 495 336 l 2,23,24
 495 352 495 352 501 365 c 0,25,26
 507 379 507 379 517 388.5 c 128,-1,27
 527 398 527 398 539 404 c 1,28,29
 552 410 552 410 567 410 c 256,0,1
346 853 m 256,30,31
 361 853 361 853 374 848 c 1,32,33
 388 841 388 841 397.5 832 c 128,-1,34
 407 823 407 823 413 809 c 0,35,36
 419 796 419 796 419 782 c 2,37,-1
 419 780 l 2,38,39
 419 765 419 765 413 753 c 0,40,41
 407 739 407 739 397 729.5 c 128,-1,42
 387 720 387 720 374 713 c 1,43,44
 361 708 361 708 346 708 c 256,45,46
 331 708 331 708 317 713 c 1,47,48
 304 720 304 720 294.5 729.5 c 128,-1,49
 285 739 285 739 279 753 c 0,50,51
 273 766 273 766 273 779 c 2,52,-1
 273 780 l 2,53,54
 273 796 273 796 279 809 c 0,55,56
 285 823 285 823 295 832 c 128,-1,57
 305 841 305 841 317 848 c 1,58,59
 331 853 331 853 346 853 c 256,30,31
EndSplineSet
Validated: 1
EndChar

StartChar: uni28C2
Encoding: 10274 10274 229
Width: 682
Flags: W
LayerCount: 2
Fore
SplineSet
567 410 m 256,0,1
 582 410 582 410 596 404 c 1,2,3
 610 397 610 397 619.5 388 c 128,-1,4
 629 379 629 379 635 365 c 0,5,6
 641 352 641 352 641 338 c 2,7,-1
 641 336 l 2,8,9
 641 321 641 321 635 309 c 0,10,11
 629 295 629 295 619 285.5 c 128,-1,12
 609 276 609 276 596 270 c 1,13,14
 583 265 583 265 567 265 c 0,15,16
 552 265 552 265 539 270 c 1,17,18
 526 277 526 277 516.5 286 c 128,-1,19
 507 295 507 295 501 309 c 0,20,21
 495 322 495 322 495 335 c 2,22,-1
 495 336 l 2,23,24
 495 352 495 352 501 365 c 0,25,26
 507 379 507 379 517 388.5 c 128,-1,27
 527 398 527 398 539 404 c 1,28,29
 552 410 552 410 567 410 c 256,0,1
345 631 m 0,30,31
 361 631 361 631 374 625 c 0,32,33
 388 619 388 619 397 609.5 c 128,-1,34
 406 600 406 600 413 587 c 1,35,36
 418 573 418 573 418 559 c 2,37,-1
 418 558 l 2,38,39
 418 543 418 543 413 531 c 1,40,41
 406 517 406 517 396.5 507 c 128,-1,42
 387 497 387 497 374 492 c 0,43,44
 361 486 361 486 345 486 c 0,45,46
 330 486 330 486 317 492 c 0,47,48
 303 498 303 498 294 507.5 c 128,-1,49
 285 517 285 517 278 531 c 1,50,51
 273 544 273 544 273 557 c 2,52,-1
 273 558 l 2,53,54
 273 573 273 573 278 587 c 1,55,56
 285 600 285 600 294.5 610 c 128,-1,57
 304 620 304 620 317 625 c 0,58,59
 330 631 330 631 345 631 c 0,30,31
EndSplineSet
Validated: 1
EndChar

StartChar: uni28C3
Encoding: 10275 10275 230
Width: 682
Flags: W
LayerCount: 2
Fore
SplineSet
567 410 m 256,0,1
 582 410 582 410 596 404 c 1,2,3
 610 397 610 397 619.5 388 c 128,-1,4
 629 379 629 379 635 365 c 0,5,6
 641 352 641 352 641 338 c 2,7,-1
 641 336 l 2,8,9
 641 321 641 321 635 309 c 0,10,11
 629 295 629 295 619 285.5 c 128,-1,12
 609 276 609 276 596 270 c 1,13,14
 583 265 583 265 567 265 c 0,15,16
 552 265 552 265 539 270 c 1,17,18
 526 277 526 277 516.5 286 c 128,-1,19
 507 295 507 295 501 309 c 0,20,21
 495 322 495 322 495 335 c 2,22,-1
 495 336 l 2,23,24
 495 352 495 352 501 365 c 0,25,26
 507 379 507 379 517 388.5 c 128,-1,27
 527 398 527 398 539 404 c 1,28,29
 552 410 552 410 567 410 c 256,0,1
345 631 m 0,30,31
 361 631 361 631 374 625 c 0,32,33
 388 619 388 619 397 609.5 c 128,-1,34
 406 600 406 600 413 587 c 1,35,36
 418 573 418 573 418 559 c 2,37,-1
 418 558 l 2,38,39
 418 543 418 543 413 531 c 1,40,41
 406 517 406 517 396.5 507 c 128,-1,42
 387 497 387 497 374 492 c 0,43,44
 361 486 361 486 345 486 c 0,45,46
 330 486 330 486 317 492 c 0,47,48
 303 498 303 498 294 507.5 c 128,-1,49
 285 517 285 517 278 531 c 1,50,51
 273 544 273 544 273 557 c 2,52,-1
 273 558 l 2,53,54
 273 573 273 573 278 587 c 1,55,56
 285 600 285 600 294.5 610 c 128,-1,57
 304 620 304 620 317 625 c 0,58,59
 330 631 330 631 345 631 c 0,30,31
346 853 m 256,60,61
 361 853 361 853 374 848 c 1,62,63
 388 841 388 841 397.5 832 c 128,-1,64
 407 823 407 823 413 809 c 0,65,66
 419 796 419 796 419 782 c 2,67,-1
 419 780 l 2,68,69
 419 765 419 765 413 753 c 0,70,71
 407 739 407 739 397 729.5 c 128,-1,72
 387 720 387 720 374 713 c 1,73,74
 361 708 361 708 346 708 c 256,75,76
 331 708 331 708 317 713 c 1,77,78
 304 720 304 720 294.5 729.5 c 128,-1,79
 285 739 285 739 279 753 c 0,80,81
 273 766 273 766 273 779 c 2,82,-1
 273 780 l 2,83,84
 273 796 273 796 279 809 c 0,85,86
 285 823 285 823 295 832 c 128,-1,87
 305 841 305 841 317 848 c 1,88,89
 331 853 331 853 346 853 c 256,60,61
EndSplineSet
Validated: 1
EndChar

StartChar: uni28C4
Encoding: 10276 10276 231
Width: 682
Flags: W
LayerCount: 2
Fore
SplineSet
567 410 m 256,0,1
 582 410 582 410 596 404 c 1,2,3
 610 397 610 397 619.5 388 c 128,-1,4
 629 379 629 379 635 365 c 0,5,6
 641 352 641 352 641 338 c 2,7,-1
 641 336 l 2,8,9
 641 321 641 321 635 309 c 0,10,11
 629 295 629 295 619 285.5 c 128,-1,12
 609 276 609 276 596 270 c 1,13,14
 583 265 583 265 567 265 c 0,15,16
 552 265 552 265 539 270 c 1,17,18
 526 277 526 277 516.5 286 c 128,-1,19
 507 295 507 295 501 309 c 0,20,21
 495 322 495 322 495 335 c 2,22,-1
 495 336 l 2,23,24
 495 352 495 352 501 365 c 0,25,26
 507 379 507 379 517 388.5 c 128,-1,27
 527 398 527 398 539 404 c 1,28,29
 552 410 552 410 567 410 c 256,0,1
345 410 m 256,30,31
 360 410 360 410 374 404 c 1,32,33
 387 397 387 397 396.5 388 c 128,-1,34
 406 379 406 379 412 365 c 0,35,36
 418 352 418 352 418 338 c 2,37,-1
 418 336 l 2,38,39
 418 321 418 321 412 309 c 0,40,41
 406 295 406 295 396.5 285.5 c 128,-1,42
 387 276 387 276 374 270 c 1,43,44
 360 265 360 265 345 265 c 256,45,46
 330 265 330 265 317 270 c 1,47,48
 303 277 303 277 293.5 286 c 128,-1,49
 284 295 284 295 278 309 c 0,50,51
 272 322 272 322 272 335 c 2,52,-1
 272 336 l 2,53,54
 272 352 272 352 278 365 c 0,55,56
 284 379 284 379 294 388.5 c 128,-1,57
 304 398 304 398 317 404 c 257,58,59
 330 410 330 410 345 410 c 256,30,31
EndSplineSet
Validated: 1
EndChar

StartChar: uni28C5
Encoding: 10277 10277 232
Width: 682
Flags: W
LayerCount: 2
Fore
SplineSet
567 410 m 256,0,1
 582 410 582 410 596 404 c 1,2,3
 610 397 610 397 619.5 388 c 128,-1,4
 629 379 629 379 635 365 c 0,5,6
 641 352 641 352 641 338 c 2,7,-1
 641 336 l 2,8,9
 641 321 641 321 635 309 c 0,10,11
 629 295 629 295 619 285.5 c 128,-1,12
 609 276 609 276 596 270 c 1,13,14
 583 265 583 265 567 265 c 0,15,16
 552 265 552 265 539 270 c 1,17,18
 526 277 526 277 516.5 286 c 128,-1,19
 507 295 507 295 501 309 c 0,20,21
 495 322 495 322 495 335 c 2,22,-1
 495 336 l 2,23,24
 495 352 495 352 501 365 c 0,25,26
 507 379 507 379 517 388.5 c 128,-1,27
 527 398 527 398 539 404 c 1,28,29
 552 410 552 410 567 410 c 256,0,1
345 410 m 256,30,31
 360 410 360 410 374 404 c 1,32,33
 387 397 387 397 396.5 388 c 128,-1,34
 406 379 406 379 412 365 c 0,35,36
 418 352 418 352 418 338 c 2,37,-1
 418 336 l 2,38,39
 418 321 418 321 412 309 c 0,40,41
 406 295 406 295 396.5 285.5 c 128,-1,42
 387 276 387 276 374 270 c 1,43,44
 360 265 360 265 345 265 c 256,45,46
 330 265 330 265 317 270 c 1,47,48
 303 277 303 277 293.5 286 c 128,-1,49
 284 295 284 295 278 309 c 0,50,51
 272 322 272 322 272 335 c 2,52,-1
 272 336 l 2,53,54
 272 352 272 352 278 365 c 0,55,56
 284 379 284 379 294 388.5 c 128,-1,57
 304 398 304 398 317 404 c 257,58,59
 330 410 330 410 345 410 c 256,30,31
346 853 m 256,60,61
 361 853 361 853 374 848 c 1,62,63
 388 841 388 841 397.5 832 c 128,-1,64
 407 823 407 823 413 809 c 0,65,66
 419 796 419 796 419 782 c 2,67,-1
 419 780 l 2,68,69
 419 765 419 765 413 753 c 0,70,71
 407 739 407 739 397 729.5 c 128,-1,72
 387 720 387 720 374 713 c 1,73,74
 361 708 361 708 346 708 c 256,75,76
 331 708 331 708 317 713 c 1,77,78
 304 720 304 720 294.5 729.5 c 128,-1,79
 285 739 285 739 279 753 c 0,80,81
 273 766 273 766 273 779 c 2,82,-1
 273 780 l 2,83,84
 273 796 273 796 279 809 c 0,85,86
 285 823 285 823 295 832 c 128,-1,87
 305 841 305 841 317 848 c 1,88,89
 331 853 331 853 346 853 c 256,60,61
EndSplineSet
Validated: 1
EndChar

StartChar: uni28C6
Encoding: 10278 10278 233
Width: 682
Flags: W
LayerCount: 2
Fore
SplineSet
567 410 m 256,0,1
 582 410 582 410 596 404 c 1,2,3
 610 397 610 397 619.5 388 c 128,-1,4
 629 379 629 379 635 365 c 0,5,6
 641 352 641 352 641 338 c 2,7,-1
 641 336 l 2,8,9
 641 321 641 321 635 309 c 0,10,11
 629 295 629 295 619 285.5 c 128,-1,12
 609 276 609 276 596 270 c 1,13,14
 583 265 583 265 567 265 c 0,15,16
 552 265 552 265 539 270 c 1,17,18
 526 277 526 277 516.5 286 c 128,-1,19
 507 295 507 295 501 309 c 0,20,21
 495 322 495 322 495 335 c 2,22,-1
 495 336 l 2,23,24
 495 352 495 352 501 365 c 0,25,26
 507 379 507 379 517 388.5 c 128,-1,27
 527 398 527 398 539 404 c 1,28,29
 552 410 552 410 567 410 c 256,0,1
345 410 m 256,30,31
 360 410 360 410 374 404 c 1,32,33
 387 397 387 397 396.5 388 c 128,-1,34
 406 379 406 379 412 365 c 0,35,36
 418 352 418 352 418 338 c 2,37,-1
 418 336 l 2,38,39
 418 321 418 321 412 309 c 0,40,41
 406 295 406 295 396.5 285.5 c 128,-1,42
 387 276 387 276 374 270 c 1,43,44
 360 265 360 265 345 265 c 256,45,46
 330 265 330 265 317 270 c 1,47,48
 303 277 303 277 293.5 286 c 128,-1,49
 284 295 284 295 278 309 c 0,50,51
 272 322 272 322 272 335 c 2,52,-1
 272 336 l 2,53,54
 272 352 272 352 278 365 c 0,55,56
 284 379 284 379 294 388.5 c 128,-1,57
 304 398 304 398 317 404 c 257,58,59
 330 410 330 410 345 410 c 256,30,31
345 631 m 0,60,61
 361 631 361 631 374 625 c 0,62,63
 388 619 388 619 397 609.5 c 128,-1,64
 406 600 406 600 413 587 c 1,65,66
 418 573 418 573 418 559 c 2,67,-1
 418 558 l 2,68,69
 418 543 418 543 413 531 c 1,70,71
 406 517 406 517 396.5 507 c 128,-1,72
 387 497 387 497 374 492 c 0,73,74
 361 486 361 486 345 486 c 0,75,76
 330 486 330 486 317 492 c 0,77,78
 303 498 303 498 294 507.5 c 128,-1,79
 285 517 285 517 278 531 c 1,80,81
 273 544 273 544 273 557 c 2,82,-1
 273 558 l 2,83,84
 273 573 273 573 278 587 c 1,85,86
 285 600 285 600 294.5 610 c 128,-1,87
 304 620 304 620 317 625 c 0,88,89
 330 631 330 631 345 631 c 0,60,61
EndSplineSet
Validated: 1
EndChar

StartChar: uni28C7
Encoding: 10279 10279 234
Width: 682
Flags: W
LayerCount: 2
Fore
SplineSet
567 410 m 256,0,1
 582 410 582 410 596 404 c 1,2,3
 610 397 610 397 619.5 388 c 128,-1,4
 629 379 629 379 635 365 c 0,5,6
 641 352 641 352 641 338 c 2,7,-1
 641 336 l 2,8,9
 641 321 641 321 635 309 c 0,10,11
 629 295 629 295 619 285.5 c 128,-1,12
 609 276 609 276 596 270 c 1,13,14
 583 265 583 265 567 265 c 0,15,16
 552 265 552 265 539 270 c 1,17,18
 526 277 526 277 516.5 286 c 128,-1,19
 507 295 507 295 501 309 c 0,20,21
 495 322 495 322 495 335 c 2,22,-1
 495 336 l 2,23,24
 495 352 495 352 501 365 c 0,25,26
 507 379 507 379 517 388.5 c 128,-1,27
 527 398 527 398 539 404 c 1,28,29
 552 410 552 410 567 410 c 256,0,1
345 410 m 256,30,31
 360 410 360 410 374 404 c 1,32,33
 387 397 387 397 396.5 388 c 128,-1,34
 406 379 406 379 412 365 c 0,35,36
 418 352 418 352 418 338 c 2,37,-1
 418 336 l 2,38,39
 418 321 418 321 412 309 c 0,40,41
 406 295 406 295 396.5 285.5 c 128,-1,42
 387 276 387 276 374 270 c 1,43,44
 360 265 360 265 345 265 c 256,45,46
 330 265 330 265 317 270 c 1,47,48
 303 277 303 277 293.5 286 c 128,-1,49
 284 295 284 295 278 309 c 0,50,51
 272 322 272 322 272 335 c 2,52,-1
 272 336 l 2,53,54
 272 352 272 352 278 365 c 0,55,56
 284 379 284 379 294 388.5 c 128,-1,57
 304 398 304 398 317 404 c 257,58,59
 330 410 330 410 345 410 c 256,30,31
345 631 m 0,60,61
 361 631 361 631 374 625 c 0,62,63
 388 619 388 619 397 609.5 c 128,-1,64
 406 600 406 600 413 587 c 1,65,66
 418 573 418 573 418 559 c 2,67,-1
 418 558 l 2,68,69
 418 543 418 543 413 531 c 1,70,71
 406 517 406 517 396.5 507 c 128,-1,72
 387 497 387 497 374 492 c 0,73,74
 361 486 361 486 345 486 c 0,75,76
 330 486 330 486 317 492 c 0,77,78
 303 498 303 498 294 507.5 c 128,-1,79
 285 517 285 517 278 531 c 1,80,81
 273 544 273 544 273 557 c 2,82,-1
 273 558 l 2,83,84
 273 573 273 573 278 587 c 1,85,86
 285 600 285 600 294.5 610 c 128,-1,87
 304 620 304 620 317 625 c 0,88,89
 330 631 330 631 345 631 c 0,60,61
346 853 m 256,90,91
 361 853 361 853 374 848 c 1,92,93
 388 841 388 841 397.5 832 c 128,-1,94
 407 823 407 823 413 809 c 0,95,96
 419 796 419 796 419 782 c 2,97,-1
 419 780 l 2,98,99
 419 765 419 765 413 753 c 0,100,101
 407 739 407 739 397 729.5 c 128,-1,102
 387 720 387 720 374 713 c 1,103,104
 361 708 361 708 346 708 c 256,105,106
 331 708 331 708 317 713 c 1,107,108
 304 720 304 720 294.5 729.5 c 128,-1,109
 285 739 285 739 279 753 c 0,110,111
 273 766 273 766 273 779 c 2,112,-1
 273 780 l 2,113,114
 273 796 273 796 279 809 c 0,115,116
 285 823 285 823 295 832 c 128,-1,117
 305 841 305 841 317 848 c 1,118,119
 331 853 331 853 346 853 c 256,90,91
EndSplineSet
Validated: 1
EndChar

StartChar: uni28C8
Encoding: 10280 10280 235
Width: 682
Flags: W
LayerCount: 2
Fore
SplineSet
567 410 m 256,0,1
 582 410 582 410 596 404 c 1,2,3
 610 397 610 397 619.5 388 c 128,-1,4
 629 379 629 379 635 365 c 0,5,6
 641 352 641 352 641 338 c 2,7,-1
 641 336 l 2,8,9
 641 321 641 321 635 309 c 0,10,11
 629 295 629 295 619 285.5 c 128,-1,12
 609 276 609 276 596 270 c 1,13,14
 583 265 583 265 567 265 c 0,15,16
 552 265 552 265 539 270 c 1,17,18
 526 277 526 277 516.5 286 c 128,-1,19
 507 295 507 295 501 309 c 0,20,21
 495 322 495 322 495 335 c 2,22,-1
 495 336 l 2,23,24
 495 352 495 352 501 365 c 0,25,26
 507 379 507 379 517 388.5 c 128,-1,27
 527 398 527 398 539 404 c 1,28,29
 552 410 552 410 567 410 c 256,0,1
567 853 m 256,30,31
 582 853 582 853 596 847 c 256,32,33
 610 841 610 841 619.5 831.5 c 128,-1,34
 629 822 629 822 635 809 c 0,35,36
 641 795 641 795 641 781 c 2,37,-1
 641 780 l 2,38,39
 641 765 641 765 635 753 c 0,40,41
 629 739 629 739 619 729 c 128,-1,42
 609 719 609 719 596 713 c 256,43,44
 583 707 583 707 567 707 c 0,45,46
 552 707 552 707 539 713 c 256,47,48
 526 719 526 719 516.5 729 c 128,-1,49
 507 739 507 739 501 753 c 0,50,51
 495 766 495 766 495 779 c 2,52,-1
 495 780 l 2,53,54
 495 795 495 795 501 809 c 0,55,56
 507 822 507 822 517 831.5 c 128,-1,57
 527 841 527 841 539 847 c 0,58,59
 552 853 552 853 567 853 c 256,30,31
EndSplineSet
Validated: 1
EndChar

StartChar: uni28C9
Encoding: 10281 10281 236
Width: 682
Flags: W
LayerCount: 2
Fore
SplineSet
567 410 m 256,0,1
 582 410 582 410 596 404 c 1,2,3
 610 397 610 397 619.5 388 c 128,-1,4
 629 379 629 379 635 365 c 0,5,6
 641 352 641 352 641 338 c 2,7,-1
 641 336 l 2,8,9
 641 321 641 321 635 309 c 0,10,11
 629 295 629 295 619 285.5 c 128,-1,12
 609 276 609 276 596 270 c 1,13,14
 583 265 583 265 567 265 c 0,15,16
 552 265 552 265 539 270 c 1,17,18
 526 277 526 277 516.5 286 c 128,-1,19
 507 295 507 295 501 309 c 0,20,21
 495 322 495 322 495 335 c 2,22,-1
 495 336 l 2,23,24
 495 352 495 352 501 365 c 0,25,26
 507 379 507 379 517 388.5 c 128,-1,27
 527 398 527 398 539 404 c 1,28,29
 552 410 552 410 567 410 c 256,0,1
567 853 m 256,30,31
 582 853 582 853 596 847 c 256,32,33
 610 841 610 841 619.5 831.5 c 128,-1,34
 629 822 629 822 635 809 c 0,35,36
 641 795 641 795 641 781 c 2,37,-1
 641 780 l 2,38,39
 641 765 641 765 635 753 c 0,40,41
 629 739 629 739 619 729 c 128,-1,42
 609 719 609 719 596 713 c 256,43,44
 583 707 583 707 567 707 c 0,45,46
 552 707 552 707 539 713 c 256,47,48
 526 719 526 719 516.5 729 c 128,-1,49
 507 739 507 739 501 753 c 0,50,51
 495 766 495 766 495 779 c 2,52,-1
 495 780 l 2,53,54
 495 795 495 795 501 809 c 0,55,56
 507 822 507 822 517 831.5 c 128,-1,57
 527 841 527 841 539 847 c 0,58,59
 552 853 552 853 567 853 c 256,30,31
346 853 m 256,60,61
 361 853 361 853 374 848 c 1,62,63
 388 841 388 841 397.5 832 c 128,-1,64
 407 823 407 823 413 809 c 0,65,66
 419 796 419 796 419 782 c 2,67,-1
 419 780 l 2,68,69
 419 765 419 765 413 753 c 0,70,71
 407 739 407 739 397 729.5 c 128,-1,72
 387 720 387 720 374 713 c 1,73,74
 361 708 361 708 346 708 c 256,75,76
 331 708 331 708 317 713 c 1,77,78
 304 720 304 720 294.5 729.5 c 128,-1,79
 285 739 285 739 279 753 c 0,80,81
 273 766 273 766 273 779 c 2,82,-1
 273 780 l 2,83,84
 273 796 273 796 279 809 c 0,85,86
 285 823 285 823 295 832 c 128,-1,87
 305 841 305 841 317 848 c 1,88,89
 331 853 331 853 346 853 c 256,60,61
EndSplineSet
Validated: 1
EndChar

StartChar: uni28CA
Encoding: 10282 10282 237
Width: 682
Flags: W
LayerCount: 2
Fore
SplineSet
567 410 m 256,0,1
 582 410 582 410 596 404 c 1,2,3
 610 397 610 397 619.5 388 c 128,-1,4
 629 379 629 379 635 365 c 0,5,6
 641 352 641 352 641 338 c 2,7,-1
 641 336 l 2,8,9
 641 321 641 321 635 309 c 0,10,11
 629 295 629 295 619 285.5 c 128,-1,12
 609 276 609 276 596 270 c 1,13,14
 583 265 583 265 567 265 c 0,15,16
 552 265 552 265 539 270 c 1,17,18
 526 277 526 277 516.5 286 c 128,-1,19
 507 295 507 295 501 309 c 0,20,21
 495 322 495 322 495 335 c 2,22,-1
 495 336 l 2,23,24
 495 352 495 352 501 365 c 0,25,26
 507 379 507 379 517 388.5 c 128,-1,27
 527 398 527 398 539 404 c 1,28,29
 552 410 552 410 567 410 c 256,0,1
345 631 m 0,30,31
 361 631 361 631 374 625 c 0,32,33
 388 619 388 619 397 609.5 c 128,-1,34
 406 600 406 600 413 587 c 1,35,36
 418 573 418 573 418 559 c 2,37,-1
 418 558 l 2,38,39
 418 543 418 543 413 531 c 1,40,41
 406 517 406 517 396.5 507 c 128,-1,42
 387 497 387 497 374 492 c 0,43,44
 361 486 361 486 345 486 c 0,45,46
 330 486 330 486 317 492 c 0,47,48
 303 498 303 498 294 507.5 c 128,-1,49
 285 517 285 517 278 531 c 1,50,51
 273 544 273 544 273 557 c 2,52,-1
 273 558 l 2,53,54
 273 573 273 573 278 587 c 1,55,56
 285 600 285 600 294.5 610 c 128,-1,57
 304 620 304 620 317 625 c 0,58,59
 330 631 330 631 345 631 c 0,30,31
567 853 m 256,60,61
 582 853 582 853 596 847 c 256,62,63
 610 841 610 841 619.5 831.5 c 128,-1,64
 629 822 629 822 635 809 c 0,65,66
 641 795 641 795 641 781 c 2,67,-1
 641 780 l 2,68,69
 641 765 641 765 635 753 c 0,70,71
 629 739 629 739 619 729 c 128,-1,72
 609 719 609 719 596 713 c 256,73,74
 583 707 583 707 567 707 c 0,75,76
 552 707 552 707 539 713 c 256,77,78
 526 719 526 719 516.5 729 c 128,-1,79
 507 739 507 739 501 753 c 0,80,81
 495 766 495 766 495 779 c 2,82,-1
 495 780 l 2,83,84
 495 795 495 795 501 809 c 0,85,86
 507 822 507 822 517 831.5 c 128,-1,87
 527 841 527 841 539 847 c 0,88,89
 552 853 552 853 567 853 c 256,60,61
EndSplineSet
Validated: 1
EndChar

StartChar: uni28CB
Encoding: 10283 10283 238
Width: 682
Flags: W
LayerCount: 2
Fore
SplineSet
567 410 m 256,0,1
 582 410 582 410 596 404 c 1,2,3
 610 397 610 397 619.5 388 c 128,-1,4
 629 379 629 379 635 365 c 0,5,6
 641 352 641 352 641 338 c 2,7,-1
 641 336 l 2,8,9
 641 321 641 321 635 309 c 0,10,11
 629 295 629 295 619 285.5 c 128,-1,12
 609 276 609 276 596 270 c 1,13,14
 583 265 583 265 567 265 c 0,15,16
 552 265 552 265 539 270 c 1,17,18
 526 277 526 277 516.5 286 c 128,-1,19
 507 295 507 295 501 309 c 0,20,21
 495 322 495 322 495 335 c 2,22,-1
 495 336 l 2,23,24
 495 352 495 352 501 365 c 0,25,26
 507 379 507 379 517 388.5 c 128,-1,27
 527 398 527 398 539 404 c 1,28,29
 552 410 552 410 567 410 c 256,0,1
345 631 m 0,30,31
 361 631 361 631 374 625 c 0,32,33
 388 619 388 619 397 609.5 c 128,-1,34
 406 600 406 600 413 587 c 1,35,36
 418 573 418 573 418 559 c 2,37,-1
 418 558 l 2,38,39
 418 543 418 543 413 531 c 1,40,41
 406 517 406 517 396.5 507 c 128,-1,42
 387 497 387 497 374 492 c 0,43,44
 361 486 361 486 345 486 c 0,45,46
 330 486 330 486 317 492 c 0,47,48
 303 498 303 498 294 507.5 c 128,-1,49
 285 517 285 517 278 531 c 1,50,51
 273 544 273 544 273 557 c 2,52,-1
 273 558 l 2,53,54
 273 573 273 573 278 587 c 1,55,56
 285 600 285 600 294.5 610 c 128,-1,57
 304 620 304 620 317 625 c 0,58,59
 330 631 330 631 345 631 c 0,30,31
567 853 m 256,60,61
 582 853 582 853 596 847 c 256,62,63
 610 841 610 841 619.5 831.5 c 128,-1,64
 629 822 629 822 635 809 c 0,65,66
 641 795 641 795 641 781 c 2,67,-1
 641 780 l 2,68,69
 641 765 641 765 635 753 c 0,70,71
 629 739 629 739 619 729 c 128,-1,72
 609 719 609 719 596 713 c 256,73,74
 583 707 583 707 567 707 c 0,75,76
 552 707 552 707 539 713 c 256,77,78
 526 719 526 719 516.5 729 c 128,-1,79
 507 739 507 739 501 753 c 0,80,81
 495 766 495 766 495 779 c 2,82,-1
 495 780 l 2,83,84
 495 795 495 795 501 809 c 0,85,86
 507 822 507 822 517 831.5 c 128,-1,87
 527 841 527 841 539 847 c 0,88,89
 552 853 552 853 567 853 c 256,60,61
346 853 m 256,90,91
 361 853 361 853 374 848 c 1,92,93
 388 841 388 841 397.5 832 c 128,-1,94
 407 823 407 823 413 809 c 0,95,96
 419 796 419 796 419 782 c 2,97,-1
 419 780 l 2,98,99
 419 765 419 765 413 753 c 0,100,101
 407 739 407 739 397 729.5 c 128,-1,102
 387 720 387 720 374 713 c 1,103,104
 361 708 361 708 346 708 c 256,105,106
 331 708 331 708 317 713 c 1,107,108
 304 720 304 720 294.5 729.5 c 128,-1,109
 285 739 285 739 279 753 c 0,110,111
 273 766 273 766 273 779 c 2,112,-1
 273 780 l 2,113,114
 273 796 273 796 279 809 c 0,115,116
 285 823 285 823 295 832 c 128,-1,117
 305 841 305 841 317 848 c 1,118,119
 331 853 331 853 346 853 c 256,90,91
EndSplineSet
Validated: 1
EndChar

StartChar: uni28CC
Encoding: 10284 10284 239
Width: 682
Flags: W
LayerCount: 2
Fore
SplineSet
567 410 m 256,0,1
 582 410 582 410 596 404 c 1,2,3
 610 397 610 397 619.5 388 c 128,-1,4
 629 379 629 379 635 365 c 0,5,6
 641 352 641 352 641 338 c 2,7,-1
 641 336 l 2,8,9
 641 321 641 321 635 309 c 0,10,11
 629 295 629 295 619 285.5 c 128,-1,12
 609 276 609 276 596 270 c 1,13,14
 583 265 583 265 567 265 c 0,15,16
 552 265 552 265 539 270 c 1,17,18
 526 277 526 277 516.5 286 c 128,-1,19
 507 295 507 295 501 309 c 0,20,21
 495 322 495 322 495 335 c 2,22,-1
 495 336 l 2,23,24
 495 352 495 352 501 365 c 0,25,26
 507 379 507 379 517 388.5 c 128,-1,27
 527 398 527 398 539 404 c 1,28,29
 552 410 552 410 567 410 c 256,0,1
345 410 m 256,30,31
 360 410 360 410 374 404 c 1,32,33
 387 397 387 397 396.5 388 c 128,-1,34
 406 379 406 379 412 365 c 0,35,36
 418 352 418 352 418 338 c 2,37,-1
 418 336 l 2,38,39
 418 321 418 321 412 309 c 0,40,41
 406 295 406 295 396.5 285.5 c 128,-1,42
 387 276 387 276 374 270 c 1,43,44
 360 265 360 265 345 265 c 256,45,46
 330 265 330 265 317 270 c 1,47,48
 303 277 303 277 293.5 286 c 128,-1,49
 284 295 284 295 278 309 c 0,50,51
 272 322 272 322 272 335 c 2,52,-1
 272 336 l 2,53,54
 272 352 272 352 278 365 c 0,55,56
 284 379 284 379 294 388.5 c 128,-1,57
 304 398 304 398 317 404 c 257,58,59
 330 410 330 410 345 410 c 256,30,31
567 853 m 256,60,61
 582 853 582 853 596 847 c 256,62,63
 610 841 610 841 619.5 831.5 c 128,-1,64
 629 822 629 822 635 809 c 0,65,66
 641 795 641 795 641 781 c 2,67,-1
 641 780 l 2,68,69
 641 765 641 765 635 753 c 0,70,71
 629 739 629 739 619 729 c 128,-1,72
 609 719 609 719 596 713 c 256,73,74
 583 707 583 707 567 707 c 0,75,76
 552 707 552 707 539 713 c 256,77,78
 526 719 526 719 516.5 729 c 128,-1,79
 507 739 507 739 501 753 c 0,80,81
 495 766 495 766 495 779 c 2,82,-1
 495 780 l 2,83,84
 495 795 495 795 501 809 c 0,85,86
 507 822 507 822 517 831.5 c 128,-1,87
 527 841 527 841 539 847 c 0,88,89
 552 853 552 853 567 853 c 256,60,61
EndSplineSet
Validated: 1
EndChar

StartChar: uni28CD
Encoding: 10285 10285 240
Width: 682
Flags: W
LayerCount: 2
Fore
SplineSet
567 410 m 256,0,1
 582 410 582 410 596 404 c 1,2,3
 610 397 610 397 619.5 388 c 128,-1,4
 629 379 629 379 635 365 c 0,5,6
 641 352 641 352 641 338 c 2,7,-1
 641 336 l 2,8,9
 641 321 641 321 635 309 c 0,10,11
 629 295 629 295 619 285.5 c 128,-1,12
 609 276 609 276 596 270 c 1,13,14
 583 265 583 265 567 265 c 0,15,16
 552 265 552 265 539 270 c 1,17,18
 526 277 526 277 516.5 286 c 128,-1,19
 507 295 507 295 501 309 c 0,20,21
 495 322 495 322 495 335 c 2,22,-1
 495 336 l 2,23,24
 495 352 495 352 501 365 c 0,25,26
 507 379 507 379 517 388.5 c 128,-1,27
 527 398 527 398 539 404 c 1,28,29
 552 410 552 410 567 410 c 256,0,1
345 410 m 256,30,31
 360 410 360 410 374 404 c 1,32,33
 387 397 387 397 396.5 388 c 128,-1,34
 406 379 406 379 412 365 c 0,35,36
 418 352 418 352 418 338 c 2,37,-1
 418 336 l 2,38,39
 418 321 418 321 412 309 c 0,40,41
 406 295 406 295 396.5 285.5 c 128,-1,42
 387 276 387 276 374 270 c 1,43,44
 360 265 360 265 345 265 c 256,45,46
 330 265 330 265 317 270 c 1,47,48
 303 277 303 277 293.5 286 c 128,-1,49
 284 295 284 295 278 309 c 0,50,51
 272 322 272 322 272 335 c 2,52,-1
 272 336 l 2,53,54
 272 352 272 352 278 365 c 0,55,56
 284 379 284 379 294 388.5 c 128,-1,57
 304 398 304 398 317 404 c 257,58,59
 330 410 330 410 345 410 c 256,30,31
567 853 m 256,60,61
 582 853 582 853 596 847 c 256,62,63
 610 841 610 841 619.5 831.5 c 128,-1,64
 629 822 629 822 635 809 c 0,65,66
 641 795 641 795 641 781 c 2,67,-1
 641 780 l 2,68,69
 641 765 641 765 635 753 c 0,70,71
 629 739 629 739 619 729 c 128,-1,72
 609 719 609 719 596 713 c 256,73,74
 583 707 583 707 567 707 c 0,75,76
 552 707 552 707 539 713 c 256,77,78
 526 719 526 719 516.5 729 c 128,-1,79
 507 739 507 739 501 753 c 0,80,81
 495 766 495 766 495 779 c 2,82,-1
 495 780 l 2,83,84
 495 795 495 795 501 809 c 0,85,86
 507 822 507 822 517 831.5 c 128,-1,87
 527 841 527 841 539 847 c 0,88,89
 552 853 552 853 567 853 c 256,60,61
346 853 m 256,90,91
 361 853 361 853 374 848 c 1,92,93
 388 841 388 841 397.5 832 c 128,-1,94
 407 823 407 823 413 809 c 0,95,96
 419 796 419 796 419 782 c 2,97,-1
 419 780 l 2,98,99
 419 765 419 765 413 753 c 0,100,101
 407 739 407 739 397 729.5 c 128,-1,102
 387 720 387 720 374 713 c 1,103,104
 361 708 361 708 346 708 c 256,105,106
 331 708 331 708 317 713 c 1,107,108
 304 720 304 720 294.5 729.5 c 128,-1,109
 285 739 285 739 279 753 c 0,110,111
 273 766 273 766 273 779 c 2,112,-1
 273 780 l 2,113,114
 273 796 273 796 279 809 c 0,115,116
 285 823 285 823 295 832 c 128,-1,117
 305 841 305 841 317 848 c 1,118,119
 331 853 331 853 346 853 c 256,90,91
EndSplineSet
Validated: 1
EndChar

StartChar: uni28CE
Encoding: 10286 10286 241
Width: 682
Flags: W
LayerCount: 2
Fore
SplineSet
567 410 m 256,0,1
 582 410 582 410 596 404 c 1,2,3
 610 397 610 397 619.5 388 c 128,-1,4
 629 379 629 379 635 365 c 0,5,6
 641 352 641 352 641 338 c 2,7,-1
 641 336 l 2,8,9
 641 321 641 321 635 309 c 0,10,11
 629 295 629 295 619 285.5 c 128,-1,12
 609 276 609 276 596 270 c 1,13,14
 583 265 583 265 567 265 c 0,15,16
 552 265 552 265 539 270 c 1,17,18
 526 277 526 277 516.5 286 c 128,-1,19
 507 295 507 295 501 309 c 0,20,21
 495 322 495 322 495 335 c 2,22,-1
 495 336 l 2,23,24
 495 352 495 352 501 365 c 0,25,26
 507 379 507 379 517 388.5 c 128,-1,27
 527 398 527 398 539 404 c 1,28,29
 552 410 552 410 567 410 c 256,0,1
345 410 m 256,30,31
 360 410 360 410 374 404 c 1,32,33
 387 397 387 397 396.5 388 c 128,-1,34
 406 379 406 379 412 365 c 0,35,36
 418 352 418 352 418 338 c 2,37,-1
 418 336 l 2,38,39
 418 321 418 321 412 309 c 0,40,41
 406 295 406 295 396.5 285.5 c 128,-1,42
 387 276 387 276 374 270 c 1,43,44
 360 265 360 265 345 265 c 256,45,46
 330 265 330 265 317 270 c 1,47,48
 303 277 303 277 293.5 286 c 128,-1,49
 284 295 284 295 278 309 c 0,50,51
 272 322 272 322 272 335 c 2,52,-1
 272 336 l 2,53,54
 272 352 272 352 278 365 c 0,55,56
 284 379 284 379 294 388.5 c 128,-1,57
 304 398 304 398 317 404 c 257,58,59
 330 410 330 410 345 410 c 256,30,31
345 631 m 0,60,61
 361 631 361 631 374 625 c 0,62,63
 388 619 388 619 397 609.5 c 128,-1,64
 406 600 406 600 413 587 c 1,65,66
 418 573 418 573 418 559 c 2,67,-1
 418 558 l 2,68,69
 418 543 418 543 413 531 c 1,70,71
 406 517 406 517 396.5 507 c 128,-1,72
 387 497 387 497 374 492 c 0,73,74
 361 486 361 486 345 486 c 0,75,76
 330 486 330 486 317 492 c 0,77,78
 303 498 303 498 294 507.5 c 128,-1,79
 285 517 285 517 278 531 c 1,80,81
 273 544 273 544 273 557 c 2,82,-1
 273 558 l 2,83,84
 273 573 273 573 278 587 c 1,85,86
 285 600 285 600 294.5 610 c 128,-1,87
 304 620 304 620 317 625 c 0,88,89
 330 631 330 631 345 631 c 0,60,61
567 853 m 256,90,91
 582 853 582 853 596 847 c 256,92,93
 610 841 610 841 619.5 831.5 c 128,-1,94
 629 822 629 822 635 809 c 0,95,96
 641 795 641 795 641 781 c 2,97,-1
 641 780 l 2,98,99
 641 765 641 765 635 753 c 0,100,101
 629 739 629 739 619 729 c 128,-1,102
 609 719 609 719 596 713 c 256,103,104
 583 707 583 707 567 707 c 0,105,106
 552 707 552 707 539 713 c 256,107,108
 526 719 526 719 516.5 729 c 128,-1,109
 507 739 507 739 501 753 c 0,110,111
 495 766 495 766 495 779 c 2,112,-1
 495 780 l 2,113,114
 495 795 495 795 501 809 c 0,115,116
 507 822 507 822 517 831.5 c 128,-1,117
 527 841 527 841 539 847 c 0,118,119
 552 853 552 853 567 853 c 256,90,91
EndSplineSet
Validated: 1
EndChar

StartChar: uni28CF
Encoding: 10287 10287 242
Width: 682
Flags: W
LayerCount: 2
Fore
SplineSet
567 410 m 256,0,1
 582 410 582 410 596 404 c 1,2,3
 610 397 610 397 619.5 388 c 128,-1,4
 629 379 629 379 635 365 c 0,5,6
 641 352 641 352 641 338 c 2,7,-1
 641 336 l 2,8,9
 641 321 641 321 635 309 c 0,10,11
 629 295 629 295 619 285.5 c 128,-1,12
 609 276 609 276 596 270 c 1,13,14
 583 265 583 265 567 265 c 0,15,16
 552 265 552 265 539 270 c 1,17,18
 526 277 526 277 516.5 286 c 128,-1,19
 507 295 507 295 501 309 c 0,20,21
 495 322 495 322 495 335 c 2,22,-1
 495 336 l 2,23,24
 495 352 495 352 501 365 c 0,25,26
 507 379 507 379 517 388.5 c 128,-1,27
 527 398 527 398 539 404 c 1,28,29
 552 410 552 410 567 410 c 256,0,1
345 410 m 256,30,31
 360 410 360 410 374 404 c 1,32,33
 387 397 387 397 396.5 388 c 128,-1,34
 406 379 406 379 412 365 c 0,35,36
 418 352 418 352 418 338 c 2,37,-1
 418 336 l 2,38,39
 418 321 418 321 412 309 c 0,40,41
 406 295 406 295 396.5 285.5 c 128,-1,42
 387 276 387 276 374 270 c 1,43,44
 360 265 360 265 345 265 c 256,45,46
 330 265 330 265 317 270 c 1,47,48
 303 277 303 277 293.5 286 c 128,-1,49
 284 295 284 295 278 309 c 0,50,51
 272 322 272 322 272 335 c 2,52,-1
 272 336 l 2,53,54
 272 352 272 352 278 365 c 0,55,56
 284 379 284 379 294 388.5 c 128,-1,57
 304 398 304 398 317 404 c 257,58,59
 330 410 330 410 345 410 c 256,30,31
345 631 m 0,60,61
 361 631 361 631 374 625 c 0,62,63
 388 619 388 619 397 609.5 c 128,-1,64
 406 600 406 600 413 587 c 1,65,66
 418 573 418 573 418 559 c 2,67,-1
 418 558 l 2,68,69
 418 543 418 543 413 531 c 1,70,71
 406 517 406 517 396.5 507 c 128,-1,72
 387 497 387 497 374 492 c 0,73,74
 361 486 361 486 345 486 c 0,75,76
 330 486 330 486 317 492 c 0,77,78
 303 498 303 498 294 507.5 c 128,-1,79
 285 517 285 517 278 531 c 1,80,81
 273 544 273 544 273 557 c 2,82,-1
 273 558 l 2,83,84
 273 573 273 573 278 587 c 1,85,86
 285 600 285 600 294.5 610 c 128,-1,87
 304 620 304 620 317 625 c 0,88,89
 330 631 330 631 345 631 c 0,60,61
567 853 m 256,90,91
 582 853 582 853 596 847 c 256,92,93
 610 841 610 841 619.5 831.5 c 128,-1,94
 629 822 629 822 635 809 c 0,95,96
 641 795 641 795 641 781 c 2,97,-1
 641 780 l 2,98,99
 641 765 641 765 635 753 c 0,100,101
 629 739 629 739 619 729 c 128,-1,102
 609 719 609 719 596 713 c 256,103,104
 583 707 583 707 567 707 c 0,105,106
 552 707 552 707 539 713 c 256,107,108
 526 719 526 719 516.5 729 c 128,-1,109
 507 739 507 739 501 753 c 0,110,111
 495 766 495 766 495 779 c 2,112,-1
 495 780 l 2,113,114
 495 795 495 795 501 809 c 0,115,116
 507 822 507 822 517 831.5 c 128,-1,117
 527 841 527 841 539 847 c 0,118,119
 552 853 552 853 567 853 c 256,90,91
346 853 m 256,120,121
 361 853 361 853 374 848 c 1,122,123
 388 841 388 841 397.5 832 c 128,-1,124
 407 823 407 823 413 809 c 0,125,126
 419 796 419 796 419 782 c 2,127,-1
 419 780 l 2,128,129
 419 765 419 765 413 753 c 0,130,131
 407 739 407 739 397 729.5 c 128,-1,132
 387 720 387 720 374 713 c 1,133,134
 361 708 361 708 346 708 c 256,135,136
 331 708 331 708 317 713 c 1,137,138
 304 720 304 720 294.5 729.5 c 128,-1,139
 285 739 285 739 279 753 c 0,140,141
 273 766 273 766 273 779 c 2,142,-1
 273 780 l 2,143,144
 273 796 273 796 279 809 c 0,145,146
 285 823 285 823 295 832 c 128,-1,147
 305 841 305 841 317 848 c 1,148,149
 331 853 331 853 346 853 c 256,120,121
EndSplineSet
Validated: 1
EndChar

StartChar: uni28D0
Encoding: 10288 10288 243
Width: 682
Flags: W
LayerCount: 2
Fore
SplineSet
567 410 m 256,0,1
 582 410 582 410 596 404 c 1,2,3
 610 397 610 397 619.5 388 c 128,-1,4
 629 379 629 379 635 365 c 0,5,6
 641 352 641 352 641 338 c 2,7,-1
 641 336 l 2,8,9
 641 321 641 321 635 309 c 0,10,11
 629 295 629 295 619 285.5 c 128,-1,12
 609 276 609 276 596 270 c 1,13,14
 583 265 583 265 567 265 c 0,15,16
 552 265 552 265 539 270 c 1,17,18
 526 277 526 277 516.5 286 c 128,-1,19
 507 295 507 295 501 309 c 0,20,21
 495 322 495 322 495 335 c 2,22,-1
 495 336 l 2,23,24
 495 352 495 352 501 365 c 0,25,26
 507 379 507 379 517 388.5 c 128,-1,27
 527 398 527 398 539 404 c 1,28,29
 552 410 552 410 567 410 c 256,0,1
567 631 m 256,30,31
 582 631 582 631 596 626 c 1,32,33
 610 619 610 619 619.5 610 c 128,-1,34
 629 601 629 601 635 587 c 0,35,36
 641 574 641 574 641 560 c 2,37,-1
 641 558 l 2,38,39
 641 543 641 543 635 531 c 0,40,41
 629 517 629 517 619 507.5 c 128,-1,42
 609 498 609 498 596 492 c 1,43,44
 583 487 583 487 567 486 c 0,45,46
 552 486 552 486 539 492 c 1,47,48
 526 499 526 499 516.5 508 c 128,-1,49
 507 517 507 517 501 531 c 0,50,51
 495 544 495 544 495 557 c 2,52,-1
 495 558 l 2,53,54
 495 574 495 574 501 587 c 0,55,56
 507 601 507 601 517 610.5 c 128,-1,57
 527 620 527 620 539 626 c 1,58,59
 552 631 552 631 567 631 c 256,30,31
EndSplineSet
Validated: 1
EndChar

StartChar: uni28D1
Encoding: 10289 10289 244
Width: 682
Flags: W
LayerCount: 2
Fore
SplineSet
567 410 m 256,0,1
 582 410 582 410 596 404 c 1,2,3
 610 397 610 397 619.5 388 c 128,-1,4
 629 379 629 379 635 365 c 0,5,6
 641 352 641 352 641 338 c 2,7,-1
 641 336 l 2,8,9
 641 321 641 321 635 309 c 0,10,11
 629 295 629 295 619 285.5 c 128,-1,12
 609 276 609 276 596 270 c 1,13,14
 583 265 583 265 567 265 c 0,15,16
 552 265 552 265 539 270 c 1,17,18
 526 277 526 277 516.5 286 c 128,-1,19
 507 295 507 295 501 309 c 0,20,21
 495 322 495 322 495 335 c 2,22,-1
 495 336 l 2,23,24
 495 352 495 352 501 365 c 0,25,26
 507 379 507 379 517 388.5 c 128,-1,27
 527 398 527 398 539 404 c 1,28,29
 552 410 552 410 567 410 c 256,0,1
567 631 m 256,30,31
 582 631 582 631 596 626 c 1,32,33
 610 619 610 619 619.5 610 c 128,-1,34
 629 601 629 601 635 587 c 0,35,36
 641 574 641 574 641 560 c 2,37,-1
 641 558 l 2,38,39
 641 543 641 543 635 531 c 0,40,41
 629 517 629 517 619 507.5 c 128,-1,42
 609 498 609 498 596 492 c 1,43,44
 583 487 583 487 567 486 c 0,45,46
 552 486 552 486 539 492 c 1,47,48
 526 499 526 499 516.5 508 c 128,-1,49
 507 517 507 517 501 531 c 0,50,51
 495 544 495 544 495 557 c 2,52,-1
 495 558 l 2,53,54
 495 574 495 574 501 587 c 0,55,56
 507 601 507 601 517 610.5 c 128,-1,57
 527 620 527 620 539 626 c 1,58,59
 552 631 552 631 567 631 c 256,30,31
346 853 m 256,60,61
 361 853 361 853 374 848 c 1,62,63
 388 841 388 841 397.5 832 c 128,-1,64
 407 823 407 823 413 809 c 0,65,66
 419 796 419 796 419 782 c 2,67,-1
 419 780 l 2,68,69
 419 765 419 765 413 753 c 0,70,71
 407 739 407 739 397 729.5 c 128,-1,72
 387 720 387 720 374 713 c 1,73,74
 361 708 361 708 346 708 c 256,75,76
 331 708 331 708 317 713 c 1,77,78
 304 720 304 720 294.5 729.5 c 128,-1,79
 285 739 285 739 279 753 c 0,80,81
 273 766 273 766 273 779 c 2,82,-1
 273 780 l 2,83,84
 273 796 273 796 279 809 c 0,85,86
 285 823 285 823 295 832 c 128,-1,87
 305 841 305 841 317 848 c 1,88,89
 331 853 331 853 346 853 c 256,60,61
EndSplineSet
Validated: 1
EndChar

StartChar: uni28D2
Encoding: 10290 10290 245
Width: 682
Flags: W
LayerCount: 2
Fore
SplineSet
567 410 m 256,0,1
 582 410 582 410 596 404 c 1,2,3
 610 397 610 397 619.5 388 c 128,-1,4
 629 379 629 379 635 365 c 0,5,6
 641 352 641 352 641 338 c 2,7,-1
 641 336 l 2,8,9
 641 321 641 321 635 309 c 0,10,11
 629 295 629 295 619 285.5 c 128,-1,12
 609 276 609 276 596 270 c 1,13,14
 583 265 583 265 567 265 c 0,15,16
 552 265 552 265 539 270 c 1,17,18
 526 277 526 277 516.5 286 c 128,-1,19
 507 295 507 295 501 309 c 0,20,21
 495 322 495 322 495 335 c 2,22,-1
 495 336 l 2,23,24
 495 352 495 352 501 365 c 0,25,26
 507 379 507 379 517 388.5 c 128,-1,27
 527 398 527 398 539 404 c 1,28,29
 552 410 552 410 567 410 c 256,0,1
567 631 m 256,30,31
 582 631 582 631 596 626 c 1,32,33
 610 619 610 619 619.5 610 c 128,-1,34
 629 601 629 601 635 587 c 0,35,36
 641 574 641 574 641 560 c 2,37,-1
 641 558 l 2,38,39
 641 543 641 543 635 531 c 0,40,41
 629 517 629 517 619 507.5 c 128,-1,42
 609 498 609 498 596 492 c 1,43,44
 583 487 583 487 567 486 c 0,45,46
 552 486 552 486 539 492 c 1,47,48
 526 499 526 499 516.5 508 c 128,-1,49
 507 517 507 517 501 531 c 0,50,51
 495 544 495 544 495 557 c 2,52,-1
 495 558 l 2,53,54
 495 574 495 574 501 587 c 0,55,56
 507 601 507 601 517 610.5 c 128,-1,57
 527 620 527 620 539 626 c 1,58,59
 552 631 552 631 567 631 c 256,30,31
345 631 m 0,60,61
 361 631 361 631 374 625 c 0,62,63
 388 619 388 619 397 609.5 c 128,-1,64
 406 600 406 600 413 587 c 1,65,66
 418 573 418 573 418 559 c 2,67,-1
 418 558 l 2,68,69
 418 543 418 543 413 531 c 1,70,71
 406 517 406 517 396.5 507 c 128,-1,72
 387 497 387 497 374 492 c 0,73,74
 361 486 361 486 345 486 c 0,75,76
 330 486 330 486 317 492 c 0,77,78
 303 498 303 498 294 507.5 c 128,-1,79
 285 517 285 517 278 531 c 1,80,81
 273 544 273 544 273 557 c 2,82,-1
 273 558 l 2,83,84
 273 573 273 573 278 587 c 1,85,86
 285 600 285 600 294.5 610 c 128,-1,87
 304 620 304 620 317 625 c 0,88,89
 330 631 330 631 345 631 c 0,60,61
EndSplineSet
Validated: 1
EndChar

StartChar: uni28D3
Encoding: 10291 10291 246
Width: 682
Flags: W
LayerCount: 2
Fore
SplineSet
567 410 m 256,0,1
 582 410 582 410 596 404 c 1,2,3
 610 397 610 397 619.5 388 c 128,-1,4
 629 379 629 379 635 365 c 0,5,6
 641 352 641 352 641 338 c 2,7,-1
 641 336 l 2,8,9
 641 321 641 321 635 309 c 0,10,11
 629 295 629 295 619 285.5 c 128,-1,12
 609 276 609 276 596 270 c 1,13,14
 583 265 583 265 567 265 c 0,15,16
 552 265 552 265 539 270 c 1,17,18
 526 277 526 277 516.5 286 c 128,-1,19
 507 295 507 295 501 309 c 0,20,21
 495 322 495 322 495 335 c 2,22,-1
 495 336 l 2,23,24
 495 352 495 352 501 365 c 0,25,26
 507 379 507 379 517 388.5 c 128,-1,27
 527 398 527 398 539 404 c 1,28,29
 552 410 552 410 567 410 c 256,0,1
567 631 m 256,30,31
 582 631 582 631 596 626 c 1,32,33
 610 619 610 619 619.5 610 c 128,-1,34
 629 601 629 601 635 587 c 0,35,36
 641 574 641 574 641 560 c 2,37,-1
 641 558 l 2,38,39
 641 543 641 543 635 531 c 0,40,41
 629 517 629 517 619 507.5 c 128,-1,42
 609 498 609 498 596 492 c 1,43,44
 583 487 583 487 567 486 c 0,45,46
 552 486 552 486 539 492 c 1,47,48
 526 499 526 499 516.5 508 c 128,-1,49
 507 517 507 517 501 531 c 0,50,51
 495 544 495 544 495 557 c 2,52,-1
 495 558 l 2,53,54
 495 574 495 574 501 587 c 0,55,56
 507 601 507 601 517 610.5 c 128,-1,57
 527 620 527 620 539 626 c 1,58,59
 552 631 552 631 567 631 c 256,30,31
345 631 m 0,60,61
 361 631 361 631 374 625 c 0,62,63
 388 619 388 619 397 609.5 c 128,-1,64
 406 600 406 600 413 587 c 1,65,66
 418 573 418 573 418 559 c 2,67,-1
 418 558 l 2,68,69
 418 543 418 543 413 531 c 1,70,71
 406 517 406 517 396.5 507 c 128,-1,72
 387 497 387 497 374 492 c 0,73,74
 361 486 361 486 345 486 c 0,75,76
 330 486 330 486 317 492 c 0,77,78
 303 498 303 498 294 507.5 c 128,-1,79
 285 517 285 517 278 531 c 1,80,81
 273 544 273 544 273 557 c 2,82,-1
 273 558 l 2,83,84
 273 573 273 573 278 587 c 1,85,86
 285 600 285 600 294.5 610 c 128,-1,87
 304 620 304 620 317 625 c 0,88,89
 330 631 330 631 345 631 c 0,60,61
346 853 m 256,90,91
 361 853 361 853 374 848 c 1,92,93
 388 841 388 841 397.5 832 c 128,-1,94
 407 823 407 823 413 809 c 0,95,96
 419 796 419 796 419 782 c 2,97,-1
 419 780 l 2,98,99
 419 765 419 765 413 753 c 0,100,101
 407 739 407 739 397 729.5 c 128,-1,102
 387 720 387 720 374 713 c 1,103,104
 361 708 361 708 346 708 c 256,105,106
 331 708 331 708 317 713 c 1,107,108
 304 720 304 720 294.5 729.5 c 128,-1,109
 285 739 285 739 279 753 c 0,110,111
 273 766 273 766 273 779 c 2,112,-1
 273 780 l 2,113,114
 273 796 273 796 279 809 c 0,115,116
 285 823 285 823 295 832 c 128,-1,117
 305 841 305 841 317 848 c 1,118,119
 331 853 331 853 346 853 c 256,90,91
EndSplineSet
Validated: 1
EndChar

StartChar: uni28D4
Encoding: 10292 10292 247
Width: 682
Flags: W
LayerCount: 2
Fore
SplineSet
567 410 m 256,0,1
 582 410 582 410 596 404 c 1,2,3
 610 397 610 397 619.5 388 c 128,-1,4
 629 379 629 379 635 365 c 0,5,6
 641 352 641 352 641 338 c 2,7,-1
 641 336 l 2,8,9
 641 321 641 321 635 309 c 0,10,11
 629 295 629 295 619 285.5 c 128,-1,12
 609 276 609 276 596 270 c 1,13,14
 583 265 583 265 567 265 c 0,15,16
 552 265 552 265 539 270 c 1,17,18
 526 277 526 277 516.5 286 c 128,-1,19
 507 295 507 295 501 309 c 0,20,21
 495 322 495 322 495 335 c 2,22,-1
 495 336 l 2,23,24
 495 352 495 352 501 365 c 0,25,26
 507 379 507 379 517 388.5 c 128,-1,27
 527 398 527 398 539 404 c 1,28,29
 552 410 552 410 567 410 c 256,0,1
345 410 m 256,30,31
 360 410 360 410 374 404 c 1,32,33
 387 397 387 397 396.5 388 c 128,-1,34
 406 379 406 379 412 365 c 0,35,36
 418 352 418 352 418 338 c 2,37,-1
 418 336 l 2,38,39
 418 321 418 321 412 309 c 0,40,41
 406 295 406 295 396.5 285.5 c 128,-1,42
 387 276 387 276 374 270 c 1,43,44
 360 265 360 265 345 265 c 256,45,46
 330 265 330 265 317 270 c 1,47,48
 303 277 303 277 293.5 286 c 128,-1,49
 284 295 284 295 278 309 c 0,50,51
 272 322 272 322 272 335 c 2,52,-1
 272 336 l 2,53,54
 272 352 272 352 278 365 c 0,55,56
 284 379 284 379 294 388.5 c 128,-1,57
 304 398 304 398 317 404 c 257,58,59
 330 410 330 410 345 410 c 256,30,31
567 631 m 256,60,61
 582 631 582 631 596 626 c 1,62,63
 610 619 610 619 619.5 610 c 128,-1,64
 629 601 629 601 635 587 c 0,65,66
 641 574 641 574 641 560 c 2,67,-1
 641 558 l 2,68,69
 641 543 641 543 635 531 c 0,70,71
 629 517 629 517 619 507.5 c 128,-1,72
 609 498 609 498 596 492 c 1,73,74
 583 487 583 487 567 486 c 0,75,76
 552 486 552 486 539 492 c 1,77,78
 526 499 526 499 516.5 508 c 128,-1,79
 507 517 507 517 501 531 c 0,80,81
 495 544 495 544 495 557 c 2,82,-1
 495 558 l 2,83,84
 495 574 495 574 501 587 c 0,85,86
 507 601 507 601 517 610.5 c 128,-1,87
 527 620 527 620 539 626 c 1,88,89
 552 631 552 631 567 631 c 256,60,61
EndSplineSet
Validated: 1
EndChar

StartChar: uni28D5
Encoding: 10293 10293 248
Width: 682
Flags: W
LayerCount: 2
Fore
SplineSet
567 410 m 256,0,1
 582 410 582 410 596 404 c 1,2,3
 610 397 610 397 619.5 388 c 128,-1,4
 629 379 629 379 635 365 c 0,5,6
 641 352 641 352 641 338 c 2,7,-1
 641 336 l 2,8,9
 641 321 641 321 635 309 c 0,10,11
 629 295 629 295 619 285.5 c 128,-1,12
 609 276 609 276 596 270 c 1,13,14
 583 265 583 265 567 265 c 0,15,16
 552 265 552 265 539 270 c 1,17,18
 526 277 526 277 516.5 286 c 128,-1,19
 507 295 507 295 501 309 c 0,20,21
 495 322 495 322 495 335 c 2,22,-1
 495 336 l 2,23,24
 495 352 495 352 501 365 c 0,25,26
 507 379 507 379 517 388.5 c 128,-1,27
 527 398 527 398 539 404 c 1,28,29
 552 410 552 410 567 410 c 256,0,1
345 410 m 256,30,31
 360 410 360 410 374 404 c 1,32,33
 387 397 387 397 396.5 388 c 128,-1,34
 406 379 406 379 412 365 c 0,35,36
 418 352 418 352 418 338 c 2,37,-1
 418 336 l 2,38,39
 418 321 418 321 412 309 c 0,40,41
 406 295 406 295 396.5 285.5 c 128,-1,42
 387 276 387 276 374 270 c 1,43,44
 360 265 360 265 345 265 c 256,45,46
 330 265 330 265 317 270 c 1,47,48
 303 277 303 277 293.5 286 c 128,-1,49
 284 295 284 295 278 309 c 0,50,51
 272 322 272 322 272 335 c 2,52,-1
 272 336 l 2,53,54
 272 352 272 352 278 365 c 0,55,56
 284 379 284 379 294 388.5 c 128,-1,57
 304 398 304 398 317 404 c 257,58,59
 330 410 330 410 345 410 c 256,30,31
567 631 m 256,60,61
 582 631 582 631 596 626 c 1,62,63
 610 619 610 619 619.5 610 c 128,-1,64
 629 601 629 601 635 587 c 0,65,66
 641 574 641 574 641 560 c 2,67,-1
 641 558 l 2,68,69
 641 543 641 543 635 531 c 0,70,71
 629 517 629 517 619 507.5 c 128,-1,72
 609 498 609 498 596 492 c 1,73,74
 583 487 583 487 567 486 c 0,75,76
 552 486 552 486 539 492 c 1,77,78
 526 499 526 499 516.5 508 c 128,-1,79
 507 517 507 517 501 531 c 0,80,81
 495 544 495 544 495 557 c 2,82,-1
 495 558 l 2,83,84
 495 574 495 574 501 587 c 0,85,86
 507 601 507 601 517 610.5 c 128,-1,87
 527 620 527 620 539 626 c 1,88,89
 552 631 552 631 567 631 c 256,60,61
346 853 m 256,90,91
 361 853 361 853 374 848 c 1,92,93
 388 841 388 841 397.5 832 c 128,-1,94
 407 823 407 823 413 809 c 0,95,96
 419 796 419 796 419 782 c 2,97,-1
 419 780 l 2,98,99
 419 765 419 765 413 753 c 0,100,101
 407 739 407 739 397 729.5 c 128,-1,102
 387 720 387 720 374 713 c 1,103,104
 361 708 361 708 346 708 c 256,105,106
 331 708 331 708 317 713 c 1,107,108
 304 720 304 720 294.5 729.5 c 128,-1,109
 285 739 285 739 279 753 c 0,110,111
 273 766 273 766 273 779 c 2,112,-1
 273 780 l 2,113,114
 273 796 273 796 279 809 c 0,115,116
 285 823 285 823 295 832 c 128,-1,117
 305 841 305 841 317 848 c 1,118,119
 331 853 331 853 346 853 c 256,90,91
EndSplineSet
Validated: 1
EndChar

StartChar: uni28D6
Encoding: 10294 10294 249
Width: 682
Flags: W
LayerCount: 2
Fore
SplineSet
567 410 m 256,0,1
 582 410 582 410 596 404 c 1,2,3
 610 397 610 397 619.5 388 c 128,-1,4
 629 379 629 379 635 365 c 0,5,6
 641 352 641 352 641 338 c 2,7,-1
 641 336 l 2,8,9
 641 321 641 321 635 309 c 0,10,11
 629 295 629 295 619 285.5 c 128,-1,12
 609 276 609 276 596 270 c 1,13,14
 583 265 583 265 567 265 c 0,15,16
 552 265 552 265 539 270 c 1,17,18
 526 277 526 277 516.5 286 c 128,-1,19
 507 295 507 295 501 309 c 0,20,21
 495 322 495 322 495 335 c 2,22,-1
 495 336 l 2,23,24
 495 352 495 352 501 365 c 0,25,26
 507 379 507 379 517 388.5 c 128,-1,27
 527 398 527 398 539 404 c 1,28,29
 552 410 552 410 567 410 c 256,0,1
345 410 m 256,30,31
 360 410 360 410 374 404 c 1,32,33
 387 397 387 397 396.5 388 c 128,-1,34
 406 379 406 379 412 365 c 0,35,36
 418 352 418 352 418 338 c 2,37,-1
 418 336 l 2,38,39
 418 321 418 321 412 309 c 0,40,41
 406 295 406 295 396.5 285.5 c 128,-1,42
 387 276 387 276 374 270 c 1,43,44
 360 265 360 265 345 265 c 256,45,46
 330 265 330 265 317 270 c 1,47,48
 303 277 303 277 293.5 286 c 128,-1,49
 284 295 284 295 278 309 c 0,50,51
 272 322 272 322 272 335 c 2,52,-1
 272 336 l 2,53,54
 272 352 272 352 278 365 c 0,55,56
 284 379 284 379 294 388.5 c 128,-1,57
 304 398 304 398 317 404 c 257,58,59
 330 410 330 410 345 410 c 256,30,31
567 631 m 256,60,61
 582 631 582 631 596 626 c 1,62,63
 610 619 610 619 619.5 610 c 128,-1,64
 629 601 629 601 635 587 c 0,65,66
 641 574 641 574 641 560 c 2,67,-1
 641 558 l 2,68,69
 641 543 641 543 635 531 c 0,70,71
 629 517 629 517 619 507.5 c 128,-1,72
 609 498 609 498 596 492 c 1,73,74
 583 487 583 487 567 486 c 0,75,76
 552 486 552 486 539 492 c 1,77,78
 526 499 526 499 516.5 508 c 128,-1,79
 507 517 507 517 501 531 c 0,80,81
 495 544 495 544 495 557 c 2,82,-1
 495 558 l 2,83,84
 495 574 495 574 501 587 c 0,85,86
 507 601 507 601 517 610.5 c 128,-1,87
 527 620 527 620 539 626 c 1,88,89
 552 631 552 631 567 631 c 256,60,61
345 631 m 0,90,91
 361 631 361 631 374 625 c 0,92,93
 388 619 388 619 397 609.5 c 128,-1,94
 406 600 406 600 413 587 c 1,95,96
 418 573 418 573 418 559 c 2,97,-1
 418 558 l 2,98,99
 418 543 418 543 413 531 c 1,100,101
 406 517 406 517 396.5 507 c 128,-1,102
 387 497 387 497 374 492 c 0,103,104
 361 486 361 486 345 486 c 0,105,106
 330 486 330 486 317 492 c 0,107,108
 303 498 303 498 294 507.5 c 128,-1,109
 285 517 285 517 278 531 c 1,110,111
 273 544 273 544 273 557 c 2,112,-1
 273 558 l 2,113,114
 273 573 273 573 278 587 c 1,115,116
 285 600 285 600 294.5 610 c 128,-1,117
 304 620 304 620 317 625 c 0,118,119
 330 631 330 631 345 631 c 0,90,91
EndSplineSet
Validated: 1
EndChar

StartChar: uni28D7
Encoding: 10295 10295 250
Width: 682
Flags: W
LayerCount: 2
Fore
SplineSet
567 410 m 256,0,1
 582 410 582 410 596 404 c 1,2,3
 610 397 610 397 619.5 388 c 128,-1,4
 629 379 629 379 635 365 c 0,5,6
 641 352 641 352 641 338 c 2,7,-1
 641 336 l 2,8,9
 641 321 641 321 635 309 c 0,10,11
 629 295 629 295 619 285.5 c 128,-1,12
 609 276 609 276 596 270 c 1,13,14
 583 265 583 265 567 265 c 0,15,16
 552 265 552 265 539 270 c 1,17,18
 526 277 526 277 516.5 286 c 128,-1,19
 507 295 507 295 501 309 c 0,20,21
 495 322 495 322 495 335 c 2,22,-1
 495 336 l 2,23,24
 495 352 495 352 501 365 c 0,25,26
 507 379 507 379 517 388.5 c 128,-1,27
 527 398 527 398 539 404 c 1,28,29
 552 410 552 410 567 410 c 256,0,1
345 410 m 256,30,31
 360 410 360 410 374 404 c 1,32,33
 387 397 387 397 396.5 388 c 128,-1,34
 406 379 406 379 412 365 c 0,35,36
 418 352 418 352 418 338 c 2,37,-1
 418 336 l 2,38,39
 418 321 418 321 412 309 c 0,40,41
 406 295 406 295 396.5 285.5 c 128,-1,42
 387 276 387 276 374 270 c 1,43,44
 360 265 360 265 345 265 c 256,45,46
 330 265 330 265 317 270 c 1,47,48
 303 277 303 277 293.5 286 c 128,-1,49
 284 295 284 295 278 309 c 0,50,51
 272 322 272 322 272 335 c 2,52,-1
 272 336 l 2,53,54
 272 352 272 352 278 365 c 0,55,56
 284 379 284 379 294 388.5 c 128,-1,57
 304 398 304 398 317 404 c 257,58,59
 330 410 330 410 345 410 c 256,30,31
567 631 m 256,60,61
 582 631 582 631 596 626 c 1,62,63
 610 619 610 619 619.5 610 c 128,-1,64
 629 601 629 601 635 587 c 0,65,66
 641 574 641 574 641 560 c 2,67,-1
 641 558 l 2,68,69
 641 543 641 543 635 531 c 0,70,71
 629 517 629 517 619 507.5 c 128,-1,72
 609 498 609 498 596 492 c 1,73,74
 583 487 583 487 567 486 c 0,75,76
 552 486 552 486 539 492 c 1,77,78
 526 499 526 499 516.5 508 c 128,-1,79
 507 517 507 517 501 531 c 0,80,81
 495 544 495 544 495 557 c 2,82,-1
 495 558 l 2,83,84
 495 574 495 574 501 587 c 0,85,86
 507 601 507 601 517 610.5 c 128,-1,87
 527 620 527 620 539 626 c 1,88,89
 552 631 552 631 567 631 c 256,60,61
345 631 m 0,90,91
 361 631 361 631 374 625 c 0,92,93
 388 619 388 619 397 609.5 c 128,-1,94
 406 600 406 600 413 587 c 1,95,96
 418 573 418 573 418 559 c 2,97,-1
 418 558 l 2,98,99
 418 543 418 543 413 531 c 1,100,101
 406 517 406 517 396.5 507 c 128,-1,102
 387 497 387 497 374 492 c 0,103,104
 361 486 361 486 345 486 c 0,105,106
 330 486 330 486 317 492 c 0,107,108
 303 498 303 498 294 507.5 c 128,-1,109
 285 517 285 517 278 531 c 1,110,111
 273 544 273 544 273 557 c 2,112,-1
 273 558 l 2,113,114
 273 573 273 573 278 587 c 1,115,116
 285 600 285 600 294.5 610 c 128,-1,117
 304 620 304 620 317 625 c 0,118,119
 330 631 330 631 345 631 c 0,90,91
346 853 m 256,120,121
 361 853 361 853 374 848 c 1,122,123
 388 841 388 841 397.5 832 c 128,-1,124
 407 823 407 823 413 809 c 0,125,126
 419 796 419 796 419 782 c 2,127,-1
 419 780 l 2,128,129
 419 765 419 765 413 753 c 0,130,131
 407 739 407 739 397 729.5 c 128,-1,132
 387 720 387 720 374 713 c 1,133,134
 361 708 361 708 346 708 c 256,135,136
 331 708 331 708 317 713 c 1,137,138
 304 720 304 720 294.5 729.5 c 128,-1,139
 285 739 285 739 279 753 c 0,140,141
 273 766 273 766 273 779 c 2,142,-1
 273 780 l 2,143,144
 273 796 273 796 279 809 c 0,145,146
 285 823 285 823 295 832 c 128,-1,147
 305 841 305 841 317 848 c 1,148,149
 331 853 331 853 346 853 c 256,120,121
EndSplineSet
Validated: 1
EndChar

StartChar: uni28D8
Encoding: 10296 10296 251
Width: 682
Flags: W
LayerCount: 2
Fore
SplineSet
567 410 m 256,0,1
 582 410 582 410 596 404 c 1,2,3
 610 397 610 397 619.5 388 c 128,-1,4
 629 379 629 379 635 365 c 0,5,6
 641 352 641 352 641 338 c 2,7,-1
 641 336 l 2,8,9
 641 321 641 321 635 309 c 0,10,11
 629 295 629 295 619 285.5 c 128,-1,12
 609 276 609 276 596 270 c 1,13,14
 583 265 583 265 567 265 c 0,15,16
 552 265 552 265 539 270 c 1,17,18
 526 277 526 277 516.5 286 c 128,-1,19
 507 295 507 295 501 309 c 0,20,21
 495 322 495 322 495 335 c 2,22,-1
 495 336 l 2,23,24
 495 352 495 352 501 365 c 0,25,26
 507 379 507 379 517 388.5 c 128,-1,27
 527 398 527 398 539 404 c 1,28,29
 552 410 552 410 567 410 c 256,0,1
567 631 m 256,30,31
 582 631 582 631 596 626 c 1,32,33
 610 619 610 619 619.5 610 c 128,-1,34
 629 601 629 601 635 587 c 0,35,36
 641 574 641 574 641 560 c 2,37,-1
 641 558 l 2,38,39
 641 543 641 543 635 531 c 0,40,41
 629 517 629 517 619 507.5 c 128,-1,42
 609 498 609 498 596 492 c 1,43,44
 583 487 583 487 567 486 c 0,45,46
 552 486 552 486 539 492 c 1,47,48
 526 499 526 499 516.5 508 c 128,-1,49
 507 517 507 517 501 531 c 0,50,51
 495 544 495 544 495 557 c 2,52,-1
 495 558 l 2,53,54
 495 574 495 574 501 587 c 0,55,56
 507 601 507 601 517 610.5 c 128,-1,57
 527 620 527 620 539 626 c 1,58,59
 552 631 552 631 567 631 c 256,30,31
567 853 m 256,60,61
 582 853 582 853 596 847 c 256,62,63
 610 841 610 841 619.5 831.5 c 128,-1,64
 629 822 629 822 635 809 c 0,65,66
 641 795 641 795 641 781 c 2,67,-1
 641 780 l 2,68,69
 641 765 641 765 635 753 c 0,70,71
 629 739 629 739 619 729 c 128,-1,72
 609 719 609 719 596 713 c 256,73,74
 583 707 583 707 567 707 c 0,75,76
 552 707 552 707 539 713 c 256,77,78
 526 719 526 719 516.5 729 c 128,-1,79
 507 739 507 739 501 753 c 0,80,81
 495 766 495 766 495 779 c 2,82,-1
 495 780 l 2,83,84
 495 795 495 795 501 809 c 0,85,86
 507 822 507 822 517 831.5 c 128,-1,87
 527 841 527 841 539 847 c 0,88,89
 552 853 552 853 567 853 c 256,60,61
EndSplineSet
Validated: 1
EndChar

StartChar: uni28D9
Encoding: 10297 10297 252
Width: 682
Flags: W
LayerCount: 2
Fore
SplineSet
567 410 m 256,0,1
 582 410 582 410 596 404 c 1,2,3
 610 397 610 397 619.5 388 c 128,-1,4
 629 379 629 379 635 365 c 0,5,6
 641 352 641 352 641 338 c 2,7,-1
 641 336 l 2,8,9
 641 321 641 321 635 309 c 0,10,11
 629 295 629 295 619 285.5 c 128,-1,12
 609 276 609 276 596 270 c 1,13,14
 583 265 583 265 567 265 c 0,15,16
 552 265 552 265 539 270 c 1,17,18
 526 277 526 277 516.5 286 c 128,-1,19
 507 295 507 295 501 309 c 0,20,21
 495 322 495 322 495 335 c 2,22,-1
 495 336 l 2,23,24
 495 352 495 352 501 365 c 0,25,26
 507 379 507 379 517 388.5 c 128,-1,27
 527 398 527 398 539 404 c 1,28,29
 552 410 552 410 567 410 c 256,0,1
567 631 m 256,30,31
 582 631 582 631 596 626 c 1,32,33
 610 619 610 619 619.5 610 c 128,-1,34
 629 601 629 601 635 587 c 0,35,36
 641 574 641 574 641 560 c 2,37,-1
 641 558 l 2,38,39
 641 543 641 543 635 531 c 0,40,41
 629 517 629 517 619 507.5 c 128,-1,42
 609 498 609 498 596 492 c 1,43,44
 583 487 583 487 567 486 c 0,45,46
 552 486 552 486 539 492 c 1,47,48
 526 499 526 499 516.5 508 c 128,-1,49
 507 517 507 517 501 531 c 0,50,51
 495 544 495 544 495 557 c 2,52,-1
 495 558 l 2,53,54
 495 574 495 574 501 587 c 0,55,56
 507 601 507 601 517 610.5 c 128,-1,57
 527 620 527 620 539 626 c 1,58,59
 552 631 552 631 567 631 c 256,30,31
567 853 m 256,60,61
 582 853 582 853 596 847 c 256,62,63
 610 841 610 841 619.5 831.5 c 128,-1,64
 629 822 629 822 635 809 c 0,65,66
 641 795 641 795 641 781 c 2,67,-1
 641 780 l 2,68,69
 641 765 641 765 635 753 c 0,70,71
 629 739 629 739 619 729 c 128,-1,72
 609 719 609 719 596 713 c 256,73,74
 583 707 583 707 567 707 c 0,75,76
 552 707 552 707 539 713 c 256,77,78
 526 719 526 719 516.5 729 c 128,-1,79
 507 739 507 739 501 753 c 0,80,81
 495 766 495 766 495 779 c 2,82,-1
 495 780 l 2,83,84
 495 795 495 795 501 809 c 0,85,86
 507 822 507 822 517 831.5 c 128,-1,87
 527 841 527 841 539 847 c 0,88,89
 552 853 552 853 567 853 c 256,60,61
346 853 m 256,90,91
 361 853 361 853 374 848 c 1,92,93
 388 841 388 841 397.5 832 c 128,-1,94
 407 823 407 823 413 809 c 0,95,96
 419 796 419 796 419 782 c 2,97,-1
 419 780 l 2,98,99
 419 765 419 765 413 753 c 0,100,101
 407 739 407 739 397 729.5 c 128,-1,102
 387 720 387 720 374 713 c 1,103,104
 361 708 361 708 346 708 c 256,105,106
 331 708 331 708 317 713 c 1,107,108
 304 720 304 720 294.5 729.5 c 128,-1,109
 285 739 285 739 279 753 c 0,110,111
 273 766 273 766 273 779 c 2,112,-1
 273 780 l 2,113,114
 273 796 273 796 279 809 c 0,115,116
 285 823 285 823 295 832 c 128,-1,117
 305 841 305 841 317 848 c 1,118,119
 331 853 331 853 346 853 c 256,90,91
EndSplineSet
Validated: 1
EndChar

StartChar: uni28DA
Encoding: 10298 10298 253
Width: 682
Flags: W
LayerCount: 2
Fore
SplineSet
567 410 m 256,0,1
 582 410 582 410 596 404 c 1,2,3
 610 397 610 397 619.5 388 c 128,-1,4
 629 379 629 379 635 365 c 0,5,6
 641 352 641 352 641 338 c 2,7,-1
 641 336 l 2,8,9
 641 321 641 321 635 309 c 0,10,11
 629 295 629 295 619 285.5 c 128,-1,12
 609 276 609 276 596 270 c 1,13,14
 583 265 583 265 567 265 c 0,15,16
 552 265 552 265 539 270 c 1,17,18
 526 277 526 277 516.5 286 c 128,-1,19
 507 295 507 295 501 309 c 0,20,21
 495 322 495 322 495 335 c 2,22,-1
 495 336 l 2,23,24
 495 352 495 352 501 365 c 0,25,26
 507 379 507 379 517 388.5 c 128,-1,27
 527 398 527 398 539 404 c 1,28,29
 552 410 552 410 567 410 c 256,0,1
567 631 m 256,30,31
 582 631 582 631 596 626 c 1,32,33
 610 619 610 619 619.5 610 c 128,-1,34
 629 601 629 601 635 587 c 0,35,36
 641 574 641 574 641 560 c 2,37,-1
 641 558 l 2,38,39
 641 543 641 543 635 531 c 0,40,41
 629 517 629 517 619 507.5 c 128,-1,42
 609 498 609 498 596 492 c 1,43,44
 583 487 583 487 567 486 c 0,45,46
 552 486 552 486 539 492 c 1,47,48
 526 499 526 499 516.5 508 c 128,-1,49
 507 517 507 517 501 531 c 0,50,51
 495 544 495 544 495 557 c 2,52,-1
 495 558 l 2,53,54
 495 574 495 574 501 587 c 0,55,56
 507 601 507 601 517 610.5 c 128,-1,57
 527 620 527 620 539 626 c 1,58,59
 552 631 552 631 567 631 c 256,30,31
345 631 m 0,60,61
 361 631 361 631 374 625 c 0,62,63
 388 619 388 619 397 609.5 c 128,-1,64
 406 600 406 600 413 587 c 1,65,66
 418 573 418 573 418 559 c 2,67,-1
 418 558 l 2,68,69
 418 543 418 543 413 531 c 1,70,71
 406 517 406 517 396.5 507 c 128,-1,72
 387 497 387 497 374 492 c 0,73,74
 361 486 361 486 345 486 c 0,75,76
 330 486 330 486 317 492 c 0,77,78
 303 498 303 498 294 507.5 c 128,-1,79
 285 517 285 517 278 531 c 1,80,81
 273 544 273 544 273 557 c 2,82,-1
 273 558 l 2,83,84
 273 573 273 573 278 587 c 1,85,86
 285 600 285 600 294.5 610 c 128,-1,87
 304 620 304 620 317 625 c 0,88,89
 330 631 330 631 345 631 c 0,60,61
567 853 m 256,90,91
 582 853 582 853 596 847 c 256,92,93
 610 841 610 841 619.5 831.5 c 128,-1,94
 629 822 629 822 635 809 c 0,95,96
 641 795 641 795 641 781 c 2,97,-1
 641 780 l 2,98,99
 641 765 641 765 635 753 c 0,100,101
 629 739 629 739 619 729 c 128,-1,102
 609 719 609 719 596 713 c 256,103,104
 583 707 583 707 567 707 c 0,105,106
 552 707 552 707 539 713 c 256,107,108
 526 719 526 719 516.5 729 c 128,-1,109
 507 739 507 739 501 753 c 0,110,111
 495 766 495 766 495 779 c 2,112,-1
 495 780 l 2,113,114
 495 795 495 795 501 809 c 0,115,116
 507 822 507 822 517 831.5 c 128,-1,117
 527 841 527 841 539 847 c 0,118,119
 552 853 552 853 567 853 c 256,90,91
EndSplineSet
Validated: 1
EndChar

StartChar: uni28DB
Encoding: 10299 10299 254
Width: 682
Flags: W
LayerCount: 2
Fore
SplineSet
567 410 m 256,0,1
 582 410 582 410 596 404 c 1,2,3
 610 397 610 397 619.5 388 c 128,-1,4
 629 379 629 379 635 365 c 0,5,6
 641 352 641 352 641 338 c 2,7,-1
 641 336 l 2,8,9
 641 321 641 321 635 309 c 0,10,11
 629 295 629 295 619 285.5 c 128,-1,12
 609 276 609 276 596 270 c 1,13,14
 583 265 583 265 567 265 c 0,15,16
 552 265 552 265 539 270 c 1,17,18
 526 277 526 277 516.5 286 c 128,-1,19
 507 295 507 295 501 309 c 0,20,21
 495 322 495 322 495 335 c 2,22,-1
 495 336 l 2,23,24
 495 352 495 352 501 365 c 0,25,26
 507 379 507 379 517 388.5 c 128,-1,27
 527 398 527 398 539 404 c 1,28,29
 552 410 552 410 567 410 c 256,0,1
567 631 m 256,30,31
 582 631 582 631 596 626 c 1,32,33
 610 619 610 619 619.5 610 c 128,-1,34
 629 601 629 601 635 587 c 0,35,36
 641 574 641 574 641 560 c 2,37,-1
 641 558 l 2,38,39
 641 543 641 543 635 531 c 0,40,41
 629 517 629 517 619 507.5 c 128,-1,42
 609 498 609 498 596 492 c 1,43,44
 583 487 583 487 567 486 c 0,45,46
 552 486 552 486 539 492 c 1,47,48
 526 499 526 499 516.5 508 c 128,-1,49
 507 517 507 517 501 531 c 0,50,51
 495 544 495 544 495 557 c 2,52,-1
 495 558 l 2,53,54
 495 574 495 574 501 587 c 0,55,56
 507 601 507 601 517 610.5 c 128,-1,57
 527 620 527 620 539 626 c 1,58,59
 552 631 552 631 567 631 c 256,30,31
345 631 m 0,60,61
 361 631 361 631 374 625 c 0,62,63
 388 619 388 619 397 609.5 c 128,-1,64
 406 600 406 600 413 587 c 1,65,66
 418 573 418 573 418 559 c 2,67,-1
 418 558 l 2,68,69
 418 543 418 543 413 531 c 1,70,71
 406 517 406 517 396.5 507 c 128,-1,72
 387 497 387 497 374 492 c 0,73,74
 361 486 361 486 345 486 c 0,75,76
 330 486 330 486 317 492 c 0,77,78
 303 498 303 498 294 507.5 c 128,-1,79
 285 517 285 517 278 531 c 1,80,81
 273 544 273 544 273 557 c 2,82,-1
 273 558 l 2,83,84
 273 573 273 573 278 587 c 1,85,86
 285 600 285 600 294.5 610 c 128,-1,87
 304 620 304 620 317 625 c 0,88,89
 330 631 330 631 345 631 c 0,60,61
567 853 m 256,90,91
 582 853 582 853 596 847 c 256,92,93
 610 841 610 841 619.5 831.5 c 128,-1,94
 629 822 629 822 635 809 c 0,95,96
 641 795 641 795 641 781 c 2,97,-1
 641 780 l 2,98,99
 641 765 641 765 635 753 c 0,100,101
 629 739 629 739 619 729 c 128,-1,102
 609 719 609 719 596 713 c 256,103,104
 583 707 583 707 567 707 c 0,105,106
 552 707 552 707 539 713 c 256,107,108
 526 719 526 719 516.5 729 c 128,-1,109
 507 739 507 739 501 753 c 0,110,111
 495 766 495 766 495 779 c 2,112,-1
 495 780 l 2,113,114
 495 795 495 795 501 809 c 0,115,116
 507 822 507 822 517 831.5 c 128,-1,117
 527 841 527 841 539 847 c 0,118,119
 552 853 552 853 567 853 c 256,90,91
346 853 m 256,120,121
 361 853 361 853 374 848 c 1,122,123
 388 841 388 841 397.5 832 c 128,-1,124
 407 823 407 823 413 809 c 0,125,126
 419 796 419 796 419 782 c 2,127,-1
 419 780 l 2,128,129
 419 765 419 765 413 753 c 0,130,131
 407 739 407 739 397 729.5 c 128,-1,132
 387 720 387 720 374 713 c 1,133,134
 361 708 361 708 346 708 c 256,135,136
 331 708 331 708 317 713 c 1,137,138
 304 720 304 720 294.5 729.5 c 128,-1,139
 285 739 285 739 279 753 c 0,140,141
 273 766 273 766 273 779 c 2,142,-1
 273 780 l 2,143,144
 273 796 273 796 279 809 c 0,145,146
 285 823 285 823 295 832 c 128,-1,147
 305 841 305 841 317 848 c 1,148,149
 331 853 331 853 346 853 c 256,120,121
EndSplineSet
Validated: 1
EndChar

StartChar: uni28DC
Encoding: 10300 10300 255
Width: 682
Flags: W
LayerCount: 2
Fore
SplineSet
567 410 m 256,0,1
 582 410 582 410 596 404 c 1,2,3
 610 397 610 397 619.5 388 c 128,-1,4
 629 379 629 379 635 365 c 0,5,6
 641 352 641 352 641 338 c 2,7,-1
 641 336 l 2,8,9
 641 321 641 321 635 309 c 0,10,11
 629 295 629 295 619 285.5 c 128,-1,12
 609 276 609 276 596 270 c 1,13,14
 583 265 583 265 567 265 c 0,15,16
 552 265 552 265 539 270 c 1,17,18
 526 277 526 277 516.5 286 c 128,-1,19
 507 295 507 295 501 309 c 0,20,21
 495 322 495 322 495 335 c 2,22,-1
 495 336 l 2,23,24
 495 352 495 352 501 365 c 0,25,26
 507 379 507 379 517 388.5 c 128,-1,27
 527 398 527 398 539 404 c 1,28,29
 552 410 552 410 567 410 c 256,0,1
345 410 m 256,30,31
 360 410 360 410 374 404 c 1,32,33
 387 397 387 397 396.5 388 c 128,-1,34
 406 379 406 379 412 365 c 0,35,36
 418 352 418 352 418 338 c 2,37,-1
 418 336 l 2,38,39
 418 321 418 321 412 309 c 0,40,41
 406 295 406 295 396.5 285.5 c 128,-1,42
 387 276 387 276 374 270 c 1,43,44
 360 265 360 265 345 265 c 256,45,46
 330 265 330 265 317 270 c 1,47,48
 303 277 303 277 293.5 286 c 128,-1,49
 284 295 284 295 278 309 c 0,50,51
 272 322 272 322 272 335 c 2,52,-1
 272 336 l 2,53,54
 272 352 272 352 278 365 c 0,55,56
 284 379 284 379 294 388.5 c 128,-1,57
 304 398 304 398 317 404 c 257,58,59
 330 410 330 410 345 410 c 256,30,31
567 631 m 256,60,61
 582 631 582 631 596 626 c 1,62,63
 610 619 610 619 619.5 610 c 128,-1,64
 629 601 629 601 635 587 c 0,65,66
 641 574 641 574 641 560 c 2,67,-1
 641 558 l 2,68,69
 641 543 641 543 635 531 c 0,70,71
 629 517 629 517 619 507.5 c 128,-1,72
 609 498 609 498 596 492 c 1,73,74
 583 487 583 487 567 486 c 0,75,76
 552 486 552 486 539 492 c 1,77,78
 526 499 526 499 516.5 508 c 128,-1,79
 507 517 507 517 501 531 c 0,80,81
 495 544 495 544 495 557 c 2,82,-1
 495 558 l 2,83,84
 495 574 495 574 501 587 c 0,85,86
 507 601 507 601 517 610.5 c 128,-1,87
 527 620 527 620 539 626 c 1,88,89
 552 631 552 631 567 631 c 256,60,61
567 853 m 256,90,91
 582 853 582 853 596 847 c 256,92,93
 610 841 610 841 619.5 831.5 c 128,-1,94
 629 822 629 822 635 809 c 0,95,96
 641 795 641 795 641 781 c 2,97,-1
 641 780 l 2,98,99
 641 765 641 765 635 753 c 0,100,101
 629 739 629 739 619 729 c 128,-1,102
 609 719 609 719 596 713 c 256,103,104
 583 707 583 707 567 707 c 0,105,106
 552 707 552 707 539 713 c 256,107,108
 526 719 526 719 516.5 729 c 128,-1,109
 507 739 507 739 501 753 c 0,110,111
 495 766 495 766 495 779 c 2,112,-1
 495 780 l 2,113,114
 495 795 495 795 501 809 c 0,115,116
 507 822 507 822 517 831.5 c 128,-1,117
 527 841 527 841 539 847 c 0,118,119
 552 853 552 853 567 853 c 256,90,91
EndSplineSet
Validated: 1
EndChar

StartChar: uni28DD
Encoding: 10301 10301 256
Width: 682
Flags: W
LayerCount: 2
Fore
SplineSet
567 410 m 256,0,1
 582 410 582 410 596 404 c 1,2,3
 610 397 610 397 619.5 388 c 128,-1,4
 629 379 629 379 635 365 c 0,5,6
 641 352 641 352 641 338 c 2,7,-1
 641 336 l 2,8,9
 641 321 641 321 635 309 c 0,10,11
 629 295 629 295 619 285.5 c 128,-1,12
 609 276 609 276 596 270 c 1,13,14
 583 265 583 265 567 265 c 0,15,16
 552 265 552 265 539 270 c 1,17,18
 526 277 526 277 516.5 286 c 128,-1,19
 507 295 507 295 501 309 c 0,20,21
 495 322 495 322 495 335 c 2,22,-1
 495 336 l 2,23,24
 495 352 495 352 501 365 c 0,25,26
 507 379 507 379 517 388.5 c 128,-1,27
 527 398 527 398 539 404 c 1,28,29
 552 410 552 410 567 410 c 256,0,1
345 410 m 256,30,31
 360 410 360 410 374 404 c 1,32,33
 387 397 387 397 396.5 388 c 128,-1,34
 406 379 406 379 412 365 c 0,35,36
 418 352 418 352 418 338 c 2,37,-1
 418 336 l 2,38,39
 418 321 418 321 412 309 c 0,40,41
 406 295 406 295 396.5 285.5 c 128,-1,42
 387 276 387 276 374 270 c 1,43,44
 360 265 360 265 345 265 c 256,45,46
 330 265 330 265 317 270 c 1,47,48
 303 277 303 277 293.5 286 c 128,-1,49
 284 295 284 295 278 309 c 0,50,51
 272 322 272 322 272 335 c 2,52,-1
 272 336 l 2,53,54
 272 352 272 352 278 365 c 0,55,56
 284 379 284 379 294 388.5 c 128,-1,57
 304 398 304 398 317 404 c 257,58,59
 330 410 330 410 345 410 c 256,30,31
567 631 m 256,60,61
 582 631 582 631 596 626 c 1,62,63
 610 619 610 619 619.5 610 c 128,-1,64
 629 601 629 601 635 587 c 0,65,66
 641 574 641 574 641 560 c 2,67,-1
 641 558 l 2,68,69
 641 543 641 543 635 531 c 0,70,71
 629 517 629 517 619 507.5 c 128,-1,72
 609 498 609 498 596 492 c 1,73,74
 583 487 583 487 567 486 c 0,75,76
 552 486 552 486 539 492 c 1,77,78
 526 499 526 499 516.5 508 c 128,-1,79
 507 517 507 517 501 531 c 0,80,81
 495 544 495 544 495 557 c 2,82,-1
 495 558 l 2,83,84
 495 574 495 574 501 587 c 0,85,86
 507 601 507 601 517 610.5 c 128,-1,87
 527 620 527 620 539 626 c 1,88,89
 552 631 552 631 567 631 c 256,60,61
567 853 m 256,90,91
 582 853 582 853 596 847 c 256,92,93
 610 841 610 841 619.5 831.5 c 128,-1,94
 629 822 629 822 635 809 c 0,95,96
 641 795 641 795 641 781 c 2,97,-1
 641 780 l 2,98,99
 641 765 641 765 635 753 c 0,100,101
 629 739 629 739 619 729 c 128,-1,102
 609 719 609 719 596 713 c 256,103,104
 583 707 583 707 567 707 c 0,105,106
 552 707 552 707 539 713 c 256,107,108
 526 719 526 719 516.5 729 c 128,-1,109
 507 739 507 739 501 753 c 0,110,111
 495 766 495 766 495 779 c 2,112,-1
 495 780 l 2,113,114
 495 795 495 795 501 809 c 0,115,116
 507 822 507 822 517 831.5 c 128,-1,117
 527 841 527 841 539 847 c 0,118,119
 552 853 552 853 567 853 c 256,90,91
346 853 m 256,120,121
 361 853 361 853 374 848 c 1,122,123
 388 841 388 841 397.5 832 c 128,-1,124
 407 823 407 823 413 809 c 0,125,126
 419 796 419 796 419 782 c 2,127,-1
 419 780 l 2,128,129
 419 765 419 765 413 753 c 0,130,131
 407 739 407 739 397 729.5 c 128,-1,132
 387 720 387 720 374 713 c 1,133,134
 361 708 361 708 346 708 c 256,135,136
 331 708 331 708 317 713 c 1,137,138
 304 720 304 720 294.5 729.5 c 128,-1,139
 285 739 285 739 279 753 c 0,140,141
 273 766 273 766 273 779 c 2,142,-1
 273 780 l 2,143,144
 273 796 273 796 279 809 c 0,145,146
 285 823 285 823 295 832 c 128,-1,147
 305 841 305 841 317 848 c 1,148,149
 331 853 331 853 346 853 c 256,120,121
EndSplineSet
Validated: 1
EndChar

StartChar: uni28DE
Encoding: 10302 10302 257
Width: 682
Flags: W
LayerCount: 2
Fore
SplineSet
567 410 m 256,0,1
 582 410 582 410 596 404 c 1,2,3
 610 397 610 397 619.5 388 c 128,-1,4
 629 379 629 379 635 365 c 0,5,6
 641 352 641 352 641 338 c 2,7,-1
 641 336 l 2,8,9
 641 321 641 321 635 309 c 0,10,11
 629 295 629 295 619 285.5 c 128,-1,12
 609 276 609 276 596 270 c 1,13,14
 583 265 583 265 567 265 c 0,15,16
 552 265 552 265 539 270 c 1,17,18
 526 277 526 277 516.5 286 c 128,-1,19
 507 295 507 295 501 309 c 0,20,21
 495 322 495 322 495 335 c 2,22,-1
 495 336 l 2,23,24
 495 352 495 352 501 365 c 0,25,26
 507 379 507 379 517 388.5 c 128,-1,27
 527 398 527 398 539 404 c 1,28,29
 552 410 552 410 567 410 c 256,0,1
345 410 m 256,30,31
 360 410 360 410 374 404 c 1,32,33
 387 397 387 397 396.5 388 c 128,-1,34
 406 379 406 379 412 365 c 0,35,36
 418 352 418 352 418 338 c 2,37,-1
 418 336 l 2,38,39
 418 321 418 321 412 309 c 0,40,41
 406 295 406 295 396.5 285.5 c 128,-1,42
 387 276 387 276 374 270 c 1,43,44
 360 265 360 265 345 265 c 256,45,46
 330 265 330 265 317 270 c 1,47,48
 303 277 303 277 293.5 286 c 128,-1,49
 284 295 284 295 278 309 c 0,50,51
 272 322 272 322 272 335 c 2,52,-1
 272 336 l 2,53,54
 272 352 272 352 278 365 c 0,55,56
 284 379 284 379 294 388.5 c 128,-1,57
 304 398 304 398 317 404 c 257,58,59
 330 410 330 410 345 410 c 256,30,31
567 631 m 256,60,61
 582 631 582 631 596 626 c 1,62,63
 610 619 610 619 619.5 610 c 128,-1,64
 629 601 629 601 635 587 c 0,65,66
 641 574 641 574 641 560 c 2,67,-1
 641 558 l 2,68,69
 641 543 641 543 635 531 c 0,70,71
 629 517 629 517 619 507.5 c 128,-1,72
 609 498 609 498 596 492 c 1,73,74
 583 487 583 487 567 486 c 0,75,76
 552 486 552 486 539 492 c 1,77,78
 526 499 526 499 516.5 508 c 128,-1,79
 507 517 507 517 501 531 c 0,80,81
 495 544 495 544 495 557 c 2,82,-1
 495 558 l 2,83,84
 495 574 495 574 501 587 c 0,85,86
 507 601 507 601 517 610.5 c 128,-1,87
 527 620 527 620 539 626 c 1,88,89
 552 631 552 631 567 631 c 256,60,61
345 631 m 0,90,91
 361 631 361 631 374 625 c 0,92,93
 388 619 388 619 397 609.5 c 128,-1,94
 406 600 406 600 413 587 c 1,95,96
 418 573 418 573 418 559 c 2,97,-1
 418 558 l 2,98,99
 418 543 418 543 413 531 c 1,100,101
 406 517 406 517 396.5 507 c 128,-1,102
 387 497 387 497 374 492 c 0,103,104
 361 486 361 486 345 486 c 0,105,106
 330 486 330 486 317 492 c 0,107,108
 303 498 303 498 294 507.5 c 128,-1,109
 285 517 285 517 278 531 c 1,110,111
 273 544 273 544 273 557 c 2,112,-1
 273 558 l 2,113,114
 273 573 273 573 278 587 c 1,115,116
 285 600 285 600 294.5 610 c 128,-1,117
 304 620 304 620 317 625 c 0,118,119
 330 631 330 631 345 631 c 0,90,91
567 853 m 256,120,121
 582 853 582 853 596 847 c 256,122,123
 610 841 610 841 619.5 831.5 c 128,-1,124
 629 822 629 822 635 809 c 0,125,126
 641 795 641 795 641 781 c 2,127,-1
 641 780 l 2,128,129
 641 765 641 765 635 753 c 0,130,131
 629 739 629 739 619 729 c 128,-1,132
 609 719 609 719 596 713 c 256,133,134
 583 707 583 707 567 707 c 0,135,136
 552 707 552 707 539 713 c 256,137,138
 526 719 526 719 516.5 729 c 128,-1,139
 507 739 507 739 501 753 c 0,140,141
 495 766 495 766 495 779 c 2,142,-1
 495 780 l 2,143,144
 495 795 495 795 501 809 c 0,145,146
 507 822 507 822 517 831.5 c 128,-1,147
 527 841 527 841 539 847 c 0,148,149
 552 853 552 853 567 853 c 256,120,121
EndSplineSet
Validated: 1
EndChar

StartChar: uni28DF
Encoding: 10303 10303 258
Width: 682
Flags: W
LayerCount: 2
Fore
SplineSet
567 410 m 256,0,1
 582 410 582 410 596 404 c 1,2,3
 610 397 610 397 619.5 388 c 128,-1,4
 629 379 629 379 635 365 c 0,5,6
 641 352 641 352 641 338 c 2,7,-1
 641 336 l 2,8,9
 641 321 641 321 635 309 c 0,10,11
 629 295 629 295 619 285.5 c 128,-1,12
 609 276 609 276 596 270 c 1,13,14
 583 265 583 265 567 265 c 0,15,16
 552 265 552 265 539 270 c 1,17,18
 526 277 526 277 516.5 286 c 128,-1,19
 507 295 507 295 501 309 c 0,20,21
 495 322 495 322 495 335 c 2,22,-1
 495 336 l 2,23,24
 495 352 495 352 501 365 c 0,25,26
 507 379 507 379 517 388.5 c 128,-1,27
 527 398 527 398 539 404 c 1,28,29
 552 410 552 410 567 410 c 256,0,1
345 410 m 256,30,31
 360 410 360 410 374 404 c 1,32,33
 387 397 387 397 396.5 388 c 128,-1,34
 406 379 406 379 412 365 c 0,35,36
 418 352 418 352 418 338 c 2,37,-1
 418 336 l 2,38,39
 418 321 418 321 412 309 c 0,40,41
 406 295 406 295 396.5 285.5 c 128,-1,42
 387 276 387 276 374 270 c 1,43,44
 360 265 360 265 345 265 c 256,45,46
 330 265 330 265 317 270 c 1,47,48
 303 277 303 277 293.5 286 c 128,-1,49
 284 295 284 295 278 309 c 0,50,51
 272 322 272 322 272 335 c 2,52,-1
 272 336 l 2,53,54
 272 352 272 352 278 365 c 0,55,56
 284 379 284 379 294 388.5 c 128,-1,57
 304 398 304 398 317 404 c 257,58,59
 330 410 330 410 345 410 c 256,30,31
567 631 m 256,60,61
 582 631 582 631 596 626 c 1,62,63
 610 619 610 619 619.5 610 c 128,-1,64
 629 601 629 601 635 587 c 0,65,66
 641 574 641 574 641 560 c 2,67,-1
 641 558 l 2,68,69
 641 543 641 543 635 531 c 0,70,71
 629 517 629 517 619 507.5 c 128,-1,72
 609 498 609 498 596 492 c 1,73,74
 583 487 583 487 567 486 c 0,75,76
 552 486 552 486 539 492 c 1,77,78
 526 499 526 499 516.5 508 c 128,-1,79
 507 517 507 517 501 531 c 0,80,81
 495 544 495 544 495 557 c 2,82,-1
 495 558 l 2,83,84
 495 574 495 574 501 587 c 0,85,86
 507 601 507 601 517 610.5 c 128,-1,87
 527 620 527 620 539 626 c 1,88,89
 552 631 552 631 567 631 c 256,60,61
345 631 m 0,90,91
 361 631 361 631 374 625 c 0,92,93
 388 619 388 619 397 609.5 c 128,-1,94
 406 600 406 600 413 587 c 1,95,96
 418 573 418 573 418 559 c 2,97,-1
 418 558 l 2,98,99
 418 543 418 543 413 531 c 1,100,101
 406 517 406 517 396.5 507 c 128,-1,102
 387 497 387 497 374 492 c 0,103,104
 361 486 361 486 345 486 c 0,105,106
 330 486 330 486 317 492 c 0,107,108
 303 498 303 498 294 507.5 c 128,-1,109
 285 517 285 517 278 531 c 1,110,111
 273 544 273 544 273 557 c 2,112,-1
 273 558 l 2,113,114
 273 573 273 573 278 587 c 1,115,116
 285 600 285 600 294.5 610 c 128,-1,117
 304 620 304 620 317 625 c 0,118,119
 330 631 330 631 345 631 c 0,90,91
567 853 m 256,120,121
 582 853 582 853 596 847 c 256,122,123
 610 841 610 841 619.5 831.5 c 128,-1,124
 629 822 629 822 635 809 c 0,125,126
 641 795 641 795 641 781 c 2,127,-1
 641 780 l 2,128,129
 641 765 641 765 635 753 c 0,130,131
 629 739 629 739 619 729 c 128,-1,132
 609 719 609 719 596 713 c 256,133,134
 583 707 583 707 567 707 c 0,135,136
 552 707 552 707 539 713 c 256,137,138
 526 719 526 719 516.5 729 c 128,-1,139
 507 739 507 739 501 753 c 0,140,141
 495 766 495 766 495 779 c 2,142,-1
 495 780 l 2,143,144
 495 795 495 795 501 809 c 0,145,146
 507 822 507 822 517 831.5 c 128,-1,147
 527 841 527 841 539 847 c 0,148,149
 552 853 552 853 567 853 c 256,120,121
346 853 m 256,150,151
 361 853 361 853 374 848 c 1,152,153
 388 841 388 841 397.5 832 c 128,-1,154
 407 823 407 823 413 809 c 0,155,156
 419 796 419 796 419 782 c 2,157,-1
 419 780 l 2,158,159
 419 765 419 765 413 753 c 0,160,161
 407 739 407 739 397 729.5 c 128,-1,162
 387 720 387 720 374 713 c 1,163,164
 361 708 361 708 346 708 c 256,165,166
 331 708 331 708 317 713 c 1,167,168
 304 720 304 720 294.5 729.5 c 128,-1,169
 285 739 285 739 279 753 c 0,170,171
 273 766 273 766 273 779 c 2,172,-1
 273 780 l 2,173,174
 273 796 273 796 279 809 c 0,175,176
 285 823 285 823 295 832 c 128,-1,177
 305 841 305 841 317 848 c 1,178,179
 331 853 331 853 346 853 c 256,150,151
EndSplineSet
Validated: 1
EndChar

StartChar: uni28E0
Encoding: 10304 10304 259
Width: 682
Flags: W
LayerCount: 2
Fore
SplineSet
345 188 m 0,0,1
 361 188 361 188 374 182 c 0,2,3
 388 176 388 176 397 166 c 0,4,5
 406 157 406 157 413 143 c 1,6,7
 418 129 418 129 418 115 c 2,8,-1
 418 114 l 2,9,10
 418 99 418 99 413 87 c 1,11,12
 406 73 406 73 397 63 c 0,13,14
 388 54 388 54 374 48 c 0,15,16
 361 42 361 42 345 42 c 0,17,18
 330 42 330 42 317 48 c 256,19,20
 304 54 304 54 295 63 c 1,21,-1
 294 63 l 1,22,23
 285 73 285 73 278 87 c 1,24,25
 273 100 273 100 273 113 c 2,26,-1
 273 114 l 2,27,28
 273 129 273 129 278 143 c 1,29,30
 285 156 285 156 294 166 c 256,31,32
 303 176 303 176 317 182 c 0,33,34
 330 188 330 188 345 188 c 0,0,1
EndSplineSet
Validated: 1
EndChar

StartChar: uni28E1
Encoding: 10305 10305 260
Width: 682
Flags: W
LayerCount: 2
Fore
SplineSet
345 188 m 0,0,1
 361 188 361 188 374 182 c 0,2,3
 388 176 388 176 397 166 c 0,4,5
 406 157 406 157 413 143 c 1,6,7
 418 129 418 129 418 115 c 2,8,-1
 418 114 l 2,9,10
 418 99 418 99 413 87 c 1,11,12
 406 73 406 73 397 63 c 0,13,14
 388 54 388 54 374 48 c 0,15,16
 361 42 361 42 345 42 c 0,17,18
 330 42 330 42 317 48 c 256,19,20
 304 54 304 54 295 63 c 1,21,-1
 294 63 l 1,22,23
 285 73 285 73 278 87 c 1,24,25
 273 100 273 100 273 113 c 2,26,-1
 273 114 l 2,27,28
 273 129 273 129 278 143 c 1,29,30
 285 156 285 156 294 166 c 256,31,32
 303 176 303 176 317 182 c 0,33,34
 330 188 330 188 345 188 c 0,0,1
346 853 m 256,35,36
 361 853 361 853 374 848 c 1,37,38
 388 841 388 841 397.5 832 c 128,-1,39
 407 823 407 823 413 809 c 0,40,41
 419 796 419 796 419 782 c 2,42,-1
 419 780 l 2,43,44
 419 765 419 765 413 753 c 0,45,46
 407 739 407 739 397 729.5 c 128,-1,47
 387 720 387 720 374 713 c 1,48,49
 361 708 361 708 346 708 c 256,50,51
 331 708 331 708 317 713 c 1,52,53
 304 720 304 720 294.5 729.5 c 128,-1,54
 285 739 285 739 279 753 c 0,55,56
 273 766 273 766 273 779 c 2,57,-1
 273 780 l 2,58,59
 273 796 273 796 279 809 c 0,60,61
 285 823 285 823 295 832 c 128,-1,62
 305 841 305 841 317 848 c 1,63,64
 331 853 331 853 346 853 c 256,35,36
EndSplineSet
Validated: 1
EndChar

StartChar: uni28E2
Encoding: 10306 10306 261
Width: 682
Flags: W
LayerCount: 2
Fore
SplineSet
345 188 m 0,0,1
 361 188 361 188 374 182 c 0,2,3
 388 176 388 176 397 166 c 0,4,5
 406 157 406 157 413 143 c 1,6,7
 418 129 418 129 418 115 c 2,8,-1
 418 114 l 2,9,10
 418 99 418 99 413 87 c 1,11,12
 406 73 406 73 397 63 c 0,13,14
 388 54 388 54 374 48 c 0,15,16
 361 42 361 42 345 42 c 0,17,18
 330 42 330 42 317 48 c 256,19,20
 304 54 304 54 295 63 c 1,21,-1
 294 63 l 1,22,23
 285 73 285 73 278 87 c 1,24,25
 273 100 273 100 273 113 c 2,26,-1
 273 114 l 2,27,28
 273 129 273 129 278 143 c 1,29,30
 285 156 285 156 294 166 c 256,31,32
 303 176 303 176 317 182 c 0,33,34
 330 188 330 188 345 188 c 0,0,1
345 631 m 0,35,36
 361 631 361 631 374 625 c 0,37,38
 388 619 388 619 397 609.5 c 128,-1,39
 406 600 406 600 413 587 c 1,40,41
 418 573 418 573 418 559 c 2,42,-1
 418 558 l 2,43,44
 418 543 418 543 413 531 c 1,45,46
 406 517 406 517 396.5 507 c 128,-1,47
 387 497 387 497 374 492 c 0,48,49
 361 486 361 486 345 486 c 0,50,51
 330 486 330 486 317 492 c 0,52,53
 303 498 303 498 294 507.5 c 128,-1,54
 285 517 285 517 278 531 c 1,55,56
 273 544 273 544 273 557 c 2,57,-1
 273 558 l 2,58,59
 273 573 273 573 278 587 c 1,60,61
 285 600 285 600 294.5 610 c 128,-1,62
 304 620 304 620 317 625 c 0,63,64
 330 631 330 631 345 631 c 0,35,36
EndSplineSet
Validated: 1
EndChar

StartChar: uni28E3
Encoding: 10307 10307 262
Width: 682
Flags: W
LayerCount: 2
Fore
SplineSet
345 188 m 0,0,1
 361 188 361 188 374 182 c 0,2,3
 388 176 388 176 397 166 c 0,4,5
 406 157 406 157 413 143 c 1,6,7
 418 129 418 129 418 115 c 2,8,-1
 418 114 l 2,9,10
 418 99 418 99 413 87 c 1,11,12
 406 73 406 73 397 63 c 0,13,14
 388 54 388 54 374 48 c 0,15,16
 361 42 361 42 345 42 c 0,17,18
 330 42 330 42 317 48 c 256,19,20
 304 54 304 54 295 63 c 1,21,-1
 294 63 l 1,22,23
 285 73 285 73 278 87 c 1,24,25
 273 100 273 100 273 113 c 2,26,-1
 273 114 l 2,27,28
 273 129 273 129 278 143 c 1,29,30
 285 156 285 156 294 166 c 256,31,32
 303 176 303 176 317 182 c 0,33,34
 330 188 330 188 345 188 c 0,0,1
345 631 m 0,35,36
 361 631 361 631 374 625 c 0,37,38
 388 619 388 619 397 609.5 c 128,-1,39
 406 600 406 600 413 587 c 1,40,41
 418 573 418 573 418 559 c 2,42,-1
 418 558 l 2,43,44
 418 543 418 543 413 531 c 1,45,46
 406 517 406 517 396.5 507 c 128,-1,47
 387 497 387 497 374 492 c 0,48,49
 361 486 361 486 345 486 c 0,50,51
 330 486 330 486 317 492 c 0,52,53
 303 498 303 498 294 507.5 c 128,-1,54
 285 517 285 517 278 531 c 1,55,56
 273 544 273 544 273 557 c 2,57,-1
 273 558 l 2,58,59
 273 573 273 573 278 587 c 1,60,61
 285 600 285 600 294.5 610 c 128,-1,62
 304 620 304 620 317 625 c 0,63,64
 330 631 330 631 345 631 c 0,35,36
346 853 m 256,65,66
 361 853 361 853 374 848 c 1,67,68
 388 841 388 841 397.5 832 c 128,-1,69
 407 823 407 823 413 809 c 0,70,71
 419 796 419 796 419 782 c 2,72,-1
 419 780 l 2,73,74
 419 765 419 765 413 753 c 0,75,76
 407 739 407 739 397 729.5 c 128,-1,77
 387 720 387 720 374 713 c 1,78,79
 361 708 361 708 346 708 c 256,80,81
 331 708 331 708 317 713 c 1,82,83
 304 720 304 720 294.5 729.5 c 128,-1,84
 285 739 285 739 279 753 c 0,85,86
 273 766 273 766 273 779 c 2,87,-1
 273 780 l 2,88,89
 273 796 273 796 279 809 c 0,90,91
 285 823 285 823 295 832 c 128,-1,92
 305 841 305 841 317 848 c 1,93,94
 331 853 331 853 346 853 c 256,65,66
EndSplineSet
Validated: 1
EndChar

StartChar: uni28E4
Encoding: 10308 10308 263
Width: 682
Flags: W
LayerCount: 2
Fore
SplineSet
345 188 m 0,0,1
 361 188 361 188 374 182 c 0,2,3
 388 176 388 176 397 166 c 0,4,5
 406 157 406 157 413 143 c 1,6,7
 418 129 418 129 418 115 c 2,8,-1
 418 114 l 2,9,10
 418 99 418 99 413 87 c 1,11,12
 406 73 406 73 397 63 c 0,13,14
 388 54 388 54 374 48 c 0,15,16
 361 42 361 42 345 42 c 0,17,18
 330 42 330 42 317 48 c 256,19,20
 304 54 304 54 295 63 c 1,21,-1
 294 63 l 1,22,23
 285 73 285 73 278 87 c 1,24,25
 273 100 273 100 273 113 c 2,26,-1
 273 114 l 2,27,28
 273 129 273 129 278 143 c 1,29,30
 285 156 285 156 294 166 c 256,31,32
 303 176 303 176 317 182 c 0,33,34
 330 188 330 188 345 188 c 0,0,1
345 410 m 256,35,36
 360 410 360 410 374 404 c 1,37,38
 387 397 387 397 396.5 388 c 128,-1,39
 406 379 406 379 412 365 c 0,40,41
 418 352 418 352 418 338 c 2,42,-1
 418 336 l 2,43,44
 418 321 418 321 412 309 c 0,45,46
 406 295 406 295 396.5 285.5 c 128,-1,47
 387 276 387 276 374 270 c 1,48,49
 360 265 360 265 345 265 c 256,50,51
 330 265 330 265 317 270 c 1,52,53
 303 277 303 277 293.5 286 c 128,-1,54
 284 295 284 295 278 309 c 0,55,56
 272 322 272 322 272 335 c 2,57,-1
 272 336 l 2,58,59
 272 352 272 352 278 365 c 0,60,61
 284 379 284 379 294 388.5 c 128,-1,62
 304 398 304 398 317 404 c 257,63,64
 330 410 330 410 345 410 c 256,35,36
EndSplineSet
Validated: 1
EndChar

StartChar: uni28E5
Encoding: 10309 10309 264
Width: 682
Flags: W
LayerCount: 2
Fore
SplineSet
345 188 m 0,0,1
 361 188 361 188 374 182 c 0,2,3
 388 176 388 176 397 166 c 0,4,5
 406 157 406 157 413 143 c 1,6,7
 418 129 418 129 418 115 c 2,8,-1
 418 114 l 2,9,10
 418 99 418 99 413 87 c 1,11,12
 406 73 406 73 397 63 c 0,13,14
 388 54 388 54 374 48 c 0,15,16
 361 42 361 42 345 42 c 0,17,18
 330 42 330 42 317 48 c 256,19,20
 304 54 304 54 295 63 c 1,21,-1
 294 63 l 1,22,23
 285 73 285 73 278 87 c 1,24,25
 273 100 273 100 273 113 c 2,26,-1
 273 114 l 2,27,28
 273 129 273 129 278 143 c 1,29,30
 285 156 285 156 294 166 c 256,31,32
 303 176 303 176 317 182 c 0,33,34
 330 188 330 188 345 188 c 0,0,1
345 410 m 256,35,36
 360 410 360 410 374 404 c 1,37,38
 387 397 387 397 396.5 388 c 128,-1,39
 406 379 406 379 412 365 c 0,40,41
 418 352 418 352 418 338 c 2,42,-1
 418 336 l 2,43,44
 418 321 418 321 412 309 c 0,45,46
 406 295 406 295 396.5 285.5 c 128,-1,47
 387 276 387 276 374 270 c 1,48,49
 360 265 360 265 345 265 c 256,50,51
 330 265 330 265 317 270 c 1,52,53
 303 277 303 277 293.5 286 c 128,-1,54
 284 295 284 295 278 309 c 0,55,56
 272 322 272 322 272 335 c 2,57,-1
 272 336 l 2,58,59
 272 352 272 352 278 365 c 0,60,61
 284 379 284 379 294 388.5 c 128,-1,62
 304 398 304 398 317 404 c 257,63,64
 330 410 330 410 345 410 c 256,35,36
346 853 m 256,65,66
 361 853 361 853 374 848 c 1,67,68
 388 841 388 841 397.5 832 c 128,-1,69
 407 823 407 823 413 809 c 0,70,71
 419 796 419 796 419 782 c 2,72,-1
 419 780 l 2,73,74
 419 765 419 765 413 753 c 0,75,76
 407 739 407 739 397 729.5 c 128,-1,77
 387 720 387 720 374 713 c 1,78,79
 361 708 361 708 346 708 c 256,80,81
 331 708 331 708 317 713 c 1,82,83
 304 720 304 720 294.5 729.5 c 128,-1,84
 285 739 285 739 279 753 c 0,85,86
 273 766 273 766 273 779 c 2,87,-1
 273 780 l 2,88,89
 273 796 273 796 279 809 c 0,90,91
 285 823 285 823 295 832 c 128,-1,92
 305 841 305 841 317 848 c 1,93,94
 331 853 331 853 346 853 c 256,65,66
EndSplineSet
Validated: 1
EndChar

StartChar: uni28E6
Encoding: 10310 10310 265
Width: 682
Flags: W
LayerCount: 2
Fore
SplineSet
345 188 m 0,0,1
 361 188 361 188 374 182 c 0,2,3
 388 176 388 176 397 166 c 0,4,5
 406 157 406 157 413 143 c 1,6,7
 418 129 418 129 418 115 c 2,8,-1
 418 114 l 2,9,10
 418 99 418 99 413 87 c 1,11,12
 406 73 406 73 397 63 c 0,13,14
 388 54 388 54 374 48 c 0,15,16
 361 42 361 42 345 42 c 0,17,18
 330 42 330 42 317 48 c 256,19,20
 304 54 304 54 295 63 c 1,21,-1
 294 63 l 1,22,23
 285 73 285 73 278 87 c 1,24,25
 273 100 273 100 273 113 c 2,26,-1
 273 114 l 2,27,28
 273 129 273 129 278 143 c 1,29,30
 285 156 285 156 294 166 c 256,31,32
 303 176 303 176 317 182 c 0,33,34
 330 188 330 188 345 188 c 0,0,1
345 410 m 256,35,36
 360 410 360 410 374 404 c 1,37,38
 387 397 387 397 396.5 388 c 128,-1,39
 406 379 406 379 412 365 c 0,40,41
 418 352 418 352 418 338 c 2,42,-1
 418 336 l 2,43,44
 418 321 418 321 412 309 c 0,45,46
 406 295 406 295 396.5 285.5 c 128,-1,47
 387 276 387 276 374 270 c 1,48,49
 360 265 360 265 345 265 c 256,50,51
 330 265 330 265 317 270 c 1,52,53
 303 277 303 277 293.5 286 c 128,-1,54
 284 295 284 295 278 309 c 0,55,56
 272 322 272 322 272 335 c 2,57,-1
 272 336 l 2,58,59
 272 352 272 352 278 365 c 0,60,61
 284 379 284 379 294 388.5 c 128,-1,62
 304 398 304 398 317 404 c 257,63,64
 330 410 330 410 345 410 c 256,35,36
345 631 m 0,65,66
 361 631 361 631 374 625 c 0,67,68
 388 619 388 619 397 609.5 c 128,-1,69
 406 600 406 600 413 587 c 1,70,71
 418 573 418 573 418 559 c 2,72,-1
 418 558 l 2,73,74
 418 543 418 543 413 531 c 1,75,76
 406 517 406 517 396.5 507 c 128,-1,77
 387 497 387 497 374 492 c 0,78,79
 361 486 361 486 345 486 c 0,80,81
 330 486 330 486 317 492 c 0,82,83
 303 498 303 498 294 507.5 c 128,-1,84
 285 517 285 517 278 531 c 1,85,86
 273 544 273 544 273 557 c 2,87,-1
 273 558 l 2,88,89
 273 573 273 573 278 587 c 1,90,91
 285 600 285 600 294.5 610 c 128,-1,92
 304 620 304 620 317 625 c 0,93,94
 330 631 330 631 345 631 c 0,65,66
EndSplineSet
Validated: 1
EndChar

StartChar: uni28E7
Encoding: 10311 10311 266
Width: 682
Flags: W
LayerCount: 2
Fore
SplineSet
345 188 m 0,0,1
 361 188 361 188 374 182 c 0,2,3
 388 176 388 176 397 166 c 0,4,5
 406 157 406 157 413 143 c 1,6,7
 418 129 418 129 418 115 c 2,8,-1
 418 114 l 2,9,10
 418 99 418 99 413 87 c 1,11,12
 406 73 406 73 397 63 c 0,13,14
 388 54 388 54 374 48 c 0,15,16
 361 42 361 42 345 42 c 0,17,18
 330 42 330 42 317 48 c 256,19,20
 304 54 304 54 295 63 c 1,21,-1
 294 63 l 1,22,23
 285 73 285 73 278 87 c 1,24,25
 273 100 273 100 273 113 c 2,26,-1
 273 114 l 2,27,28
 273 129 273 129 278 143 c 1,29,30
 285 156 285 156 294 166 c 256,31,32
 303 176 303 176 317 182 c 0,33,34
 330 188 330 188 345 188 c 0,0,1
345 410 m 256,35,36
 360 410 360 410 374 404 c 1,37,38
 387 397 387 397 396.5 388 c 128,-1,39
 406 379 406 379 412 365 c 0,40,41
 418 352 418 352 418 338 c 2,42,-1
 418 336 l 2,43,44
 418 321 418 321 412 309 c 0,45,46
 406 295 406 295 396.5 285.5 c 128,-1,47
 387 276 387 276 374 270 c 1,48,49
 360 265 360 265 345 265 c 256,50,51
 330 265 330 265 317 270 c 1,52,53
 303 277 303 277 293.5 286 c 128,-1,54
 284 295 284 295 278 309 c 0,55,56
 272 322 272 322 272 335 c 2,57,-1
 272 336 l 2,58,59
 272 352 272 352 278 365 c 0,60,61
 284 379 284 379 294 388.5 c 128,-1,62
 304 398 304 398 317 404 c 257,63,64
 330 410 330 410 345 410 c 256,35,36
345 631 m 0,65,66
 361 631 361 631 374 625 c 0,67,68
 388 619 388 619 397 609.5 c 128,-1,69
 406 600 406 600 413 587 c 1,70,71
 418 573 418 573 418 559 c 2,72,-1
 418 558 l 2,73,74
 418 543 418 543 413 531 c 1,75,76
 406 517 406 517 396.5 507 c 128,-1,77
 387 497 387 497 374 492 c 0,78,79
 361 486 361 486 345 486 c 0,80,81
 330 486 330 486 317 492 c 0,82,83
 303 498 303 498 294 507.5 c 128,-1,84
 285 517 285 517 278 531 c 1,85,86
 273 544 273 544 273 557 c 2,87,-1
 273 558 l 2,88,89
 273 573 273 573 278 587 c 1,90,91
 285 600 285 600 294.5 610 c 128,-1,92
 304 620 304 620 317 625 c 0,93,94
 330 631 330 631 345 631 c 0,65,66
346 853 m 256,95,96
 361 853 361 853 374 848 c 1,97,98
 388 841 388 841 397.5 832 c 128,-1,99
 407 823 407 823 413 809 c 0,100,101
 419 796 419 796 419 782 c 2,102,-1
 419 780 l 2,103,104
 419 765 419 765 413 753 c 0,105,106
 407 739 407 739 397 729.5 c 128,-1,107
 387 720 387 720 374 713 c 1,108,109
 361 708 361 708 346 708 c 256,110,111
 331 708 331 708 317 713 c 1,112,113
 304 720 304 720 294.5 729.5 c 128,-1,114
 285 739 285 739 279 753 c 0,115,116
 273 766 273 766 273 779 c 2,117,-1
 273 780 l 2,118,119
 273 796 273 796 279 809 c 0,120,121
 285 823 285 823 295 832 c 128,-1,122
 305 841 305 841 317 848 c 1,123,124
 331 853 331 853 346 853 c 256,95,96
EndSplineSet
Validated: 1
EndChar

StartChar: uni28E8
Encoding: 10312 10312 267
Width: 682
Flags: W
LayerCount: 2
Fore
SplineSet
345 188 m 0,0,1
 361 188 361 188 374 182 c 0,2,3
 388 176 388 176 397 166 c 0,4,5
 406 157 406 157 413 143 c 1,6,7
 418 129 418 129 418 115 c 2,8,-1
 418 114 l 2,9,10
 418 99 418 99 413 87 c 1,11,12
 406 73 406 73 397 63 c 0,13,14
 388 54 388 54 374 48 c 0,15,16
 361 42 361 42 345 42 c 0,17,18
 330 42 330 42 317 48 c 256,19,20
 304 54 304 54 295 63 c 1,21,-1
 294 63 l 1,22,23
 285 73 285 73 278 87 c 1,24,25
 273 100 273 100 273 113 c 2,26,-1
 273 114 l 2,27,28
 273 129 273 129 278 143 c 1,29,30
 285 156 285 156 294 166 c 256,31,32
 303 176 303 176 317 182 c 0,33,34
 330 188 330 188 345 188 c 0,0,1
567 853 m 256,35,36
 582 853 582 853 596 847 c 256,37,38
 610 841 610 841 619.5 831.5 c 128,-1,39
 629 822 629 822 635 809 c 0,40,41
 641 795 641 795 641 781 c 2,42,-1
 641 780 l 2,43,44
 641 765 641 765 635 753 c 0,45,46
 629 739 629 739 619 729 c 128,-1,47
 609 719 609 719 596 713 c 256,48,49
 583 707 583 707 567 707 c 0,50,51
 552 707 552 707 539 713 c 256,52,53
 526 719 526 719 516.5 729 c 128,-1,54
 507 739 507 739 501 753 c 0,55,56
 495 766 495 766 495 779 c 2,57,-1
 495 780 l 2,58,59
 495 795 495 795 501 809 c 0,60,61
 507 822 507 822 517 831.5 c 128,-1,62
 527 841 527 841 539 847 c 0,63,64
 552 853 552 853 567 853 c 256,35,36
EndSplineSet
Validated: 1
EndChar

StartChar: uni28E9
Encoding: 10313 10313 268
Width: 682
Flags: W
LayerCount: 2
Fore
SplineSet
345 188 m 0,0,1
 361 188 361 188 374 182 c 0,2,3
 388 176 388 176 397 166 c 0,4,5
 406 157 406 157 413 143 c 1,6,7
 418 129 418 129 418 115 c 2,8,-1
 418 114 l 2,9,10
 418 99 418 99 413 87 c 1,11,12
 406 73 406 73 397 63 c 0,13,14
 388 54 388 54 374 48 c 0,15,16
 361 42 361 42 345 42 c 0,17,18
 330 42 330 42 317 48 c 256,19,20
 304 54 304 54 295 63 c 1,21,-1
 294 63 l 1,22,23
 285 73 285 73 278 87 c 1,24,25
 273 100 273 100 273 113 c 2,26,-1
 273 114 l 2,27,28
 273 129 273 129 278 143 c 1,29,30
 285 156 285 156 294 166 c 256,31,32
 303 176 303 176 317 182 c 0,33,34
 330 188 330 188 345 188 c 0,0,1
567 853 m 256,35,36
 582 853 582 853 596 847 c 256,37,38
 610 841 610 841 619.5 831.5 c 128,-1,39
 629 822 629 822 635 809 c 0,40,41
 641 795 641 795 641 781 c 2,42,-1
 641 780 l 2,43,44
 641 765 641 765 635 753 c 0,45,46
 629 739 629 739 619 729 c 128,-1,47
 609 719 609 719 596 713 c 256,48,49
 583 707 583 707 567 707 c 0,50,51
 552 707 552 707 539 713 c 256,52,53
 526 719 526 719 516.5 729 c 128,-1,54
 507 739 507 739 501 753 c 0,55,56
 495 766 495 766 495 779 c 2,57,-1
 495 780 l 2,58,59
 495 795 495 795 501 809 c 0,60,61
 507 822 507 822 517 831.5 c 128,-1,62
 527 841 527 841 539 847 c 0,63,64
 552 853 552 853 567 853 c 256,35,36
346 853 m 256,65,66
 361 853 361 853 374 848 c 1,67,68
 388 841 388 841 397.5 832 c 128,-1,69
 407 823 407 823 413 809 c 0,70,71
 419 796 419 796 419 782 c 2,72,-1
 419 780 l 2,73,74
 419 765 419 765 413 753 c 0,75,76
 407 739 407 739 397 729.5 c 128,-1,77
 387 720 387 720 374 713 c 1,78,79
 361 708 361 708 346 708 c 256,80,81
 331 708 331 708 317 713 c 1,82,83
 304 720 304 720 294.5 729.5 c 128,-1,84
 285 739 285 739 279 753 c 0,85,86
 273 766 273 766 273 779 c 2,87,-1
 273 780 l 2,88,89
 273 796 273 796 279 809 c 0,90,91
 285 823 285 823 295 832 c 128,-1,92
 305 841 305 841 317 848 c 1,93,94
 331 853 331 853 346 853 c 256,65,66
EndSplineSet
Validated: 1
EndChar

StartChar: uni28EA
Encoding: 10314 10314 269
Width: 682
Flags: W
LayerCount: 2
Fore
SplineSet
345 188 m 0,0,1
 361 188 361 188 374 182 c 0,2,3
 388 176 388 176 397 166 c 0,4,5
 406 157 406 157 413 143 c 1,6,7
 418 129 418 129 418 115 c 2,8,-1
 418 114 l 2,9,10
 418 99 418 99 413 87 c 1,11,12
 406 73 406 73 397 63 c 0,13,14
 388 54 388 54 374 48 c 0,15,16
 361 42 361 42 345 42 c 0,17,18
 330 42 330 42 317 48 c 256,19,20
 304 54 304 54 295 63 c 1,21,-1
 294 63 l 1,22,23
 285 73 285 73 278 87 c 1,24,25
 273 100 273 100 273 113 c 2,26,-1
 273 114 l 2,27,28
 273 129 273 129 278 143 c 1,29,30
 285 156 285 156 294 166 c 256,31,32
 303 176 303 176 317 182 c 0,33,34
 330 188 330 188 345 188 c 0,0,1
345 631 m 0,35,36
 361 631 361 631 374 625 c 0,37,38
 388 619 388 619 397 609.5 c 128,-1,39
 406 600 406 600 413 587 c 1,40,41
 418 573 418 573 418 559 c 2,42,-1
 418 558 l 2,43,44
 418 543 418 543 413 531 c 1,45,46
 406 517 406 517 396.5 507 c 128,-1,47
 387 497 387 497 374 492 c 0,48,49
 361 486 361 486 345 486 c 0,50,51
 330 486 330 486 317 492 c 0,52,53
 303 498 303 498 294 507.5 c 128,-1,54
 285 517 285 517 278 531 c 1,55,56
 273 544 273 544 273 557 c 2,57,-1
 273 558 l 2,58,59
 273 573 273 573 278 587 c 1,60,61
 285 600 285 600 294.5 610 c 128,-1,62
 304 620 304 620 317 625 c 0,63,64
 330 631 330 631 345 631 c 0,35,36
567 853 m 256,65,66
 582 853 582 853 596 847 c 256,67,68
 610 841 610 841 619.5 831.5 c 128,-1,69
 629 822 629 822 635 809 c 0,70,71
 641 795 641 795 641 781 c 2,72,-1
 641 780 l 2,73,74
 641 765 641 765 635 753 c 0,75,76
 629 739 629 739 619 729 c 128,-1,77
 609 719 609 719 596 713 c 256,78,79
 583 707 583 707 567 707 c 0,80,81
 552 707 552 707 539 713 c 256,82,83
 526 719 526 719 516.5 729 c 128,-1,84
 507 739 507 739 501 753 c 0,85,86
 495 766 495 766 495 779 c 2,87,-1
 495 780 l 2,88,89
 495 795 495 795 501 809 c 0,90,91
 507 822 507 822 517 831.5 c 128,-1,92
 527 841 527 841 539 847 c 0,93,94
 552 853 552 853 567 853 c 256,65,66
EndSplineSet
Validated: 1
EndChar

StartChar: uni28EB
Encoding: 10315 10315 270
Width: 682
Flags: W
LayerCount: 2
Fore
SplineSet
345 188 m 0,0,1
 361 188 361 188 374 182 c 0,2,3
 388 176 388 176 397 166 c 0,4,5
 406 157 406 157 413 143 c 1,6,7
 418 129 418 129 418 115 c 2,8,-1
 418 114 l 2,9,10
 418 99 418 99 413 87 c 1,11,12
 406 73 406 73 397 63 c 0,13,14
 388 54 388 54 374 48 c 0,15,16
 361 42 361 42 345 42 c 0,17,18
 330 42 330 42 317 48 c 256,19,20
 304 54 304 54 295 63 c 1,21,-1
 294 63 l 1,22,23
 285 73 285 73 278 87 c 1,24,25
 273 100 273 100 273 113 c 2,26,-1
 273 114 l 2,27,28
 273 129 273 129 278 143 c 1,29,30
 285 156 285 156 294 166 c 256,31,32
 303 176 303 176 317 182 c 0,33,34
 330 188 330 188 345 188 c 0,0,1
345 631 m 0,35,36
 361 631 361 631 374 625 c 0,37,38
 388 619 388 619 397 609.5 c 128,-1,39
 406 600 406 600 413 587 c 1,40,41
 418 573 418 573 418 559 c 2,42,-1
 418 558 l 2,43,44
 418 543 418 543 413 531 c 1,45,46
 406 517 406 517 396.5 507 c 128,-1,47
 387 497 387 497 374 492 c 0,48,49
 361 486 361 486 345 486 c 0,50,51
 330 486 330 486 317 492 c 0,52,53
 303 498 303 498 294 507.5 c 128,-1,54
 285 517 285 517 278 531 c 1,55,56
 273 544 273 544 273 557 c 2,57,-1
 273 558 l 2,58,59
 273 573 273 573 278 587 c 1,60,61
 285 600 285 600 294.5 610 c 128,-1,62
 304 620 304 620 317 625 c 0,63,64
 330 631 330 631 345 631 c 0,35,36
567 853 m 256,65,66
 582 853 582 853 596 847 c 256,67,68
 610 841 610 841 619.5 831.5 c 128,-1,69
 629 822 629 822 635 809 c 0,70,71
 641 795 641 795 641 781 c 2,72,-1
 641 780 l 2,73,74
 641 765 641 765 635 753 c 0,75,76
 629 739 629 739 619 729 c 128,-1,77
 609 719 609 719 596 713 c 256,78,79
 583 707 583 707 567 707 c 0,80,81
 552 707 552 707 539 713 c 256,82,83
 526 719 526 719 516.5 729 c 128,-1,84
 507 739 507 739 501 753 c 0,85,86
 495 766 495 766 495 779 c 2,87,-1
 495 780 l 2,88,89
 495 795 495 795 501 809 c 0,90,91
 507 822 507 822 517 831.5 c 128,-1,92
 527 841 527 841 539 847 c 0,93,94
 552 853 552 853 567 853 c 256,65,66
346 853 m 256,95,96
 361 853 361 853 374 848 c 1,97,98
 388 841 388 841 397.5 832 c 128,-1,99
 407 823 407 823 413 809 c 0,100,101
 419 796 419 796 419 782 c 2,102,-1
 419 780 l 2,103,104
 419 765 419 765 413 753 c 0,105,106
 407 739 407 739 397 729.5 c 128,-1,107
 387 720 387 720 374 713 c 1,108,109
 361 708 361 708 346 708 c 256,110,111
 331 708 331 708 317 713 c 1,112,113
 304 720 304 720 294.5 729.5 c 128,-1,114
 285 739 285 739 279 753 c 0,115,116
 273 766 273 766 273 779 c 2,117,-1
 273 780 l 2,118,119
 273 796 273 796 279 809 c 0,120,121
 285 823 285 823 295 832 c 128,-1,122
 305 841 305 841 317 848 c 1,123,124
 331 853 331 853 346 853 c 256,95,96
EndSplineSet
Validated: 1
EndChar

StartChar: uni28EC
Encoding: 10316 10316 271
Width: 682
Flags: W
LayerCount: 2
Fore
SplineSet
345 188 m 0,0,1
 361 188 361 188 374 182 c 0,2,3
 388 176 388 176 397 166 c 0,4,5
 406 157 406 157 413 143 c 1,6,7
 418 129 418 129 418 115 c 2,8,-1
 418 114 l 2,9,10
 418 99 418 99 413 87 c 1,11,12
 406 73 406 73 397 63 c 0,13,14
 388 54 388 54 374 48 c 0,15,16
 361 42 361 42 345 42 c 0,17,18
 330 42 330 42 317 48 c 256,19,20
 304 54 304 54 295 63 c 1,21,-1
 294 63 l 1,22,23
 285 73 285 73 278 87 c 1,24,25
 273 100 273 100 273 113 c 2,26,-1
 273 114 l 2,27,28
 273 129 273 129 278 143 c 1,29,30
 285 156 285 156 294 166 c 256,31,32
 303 176 303 176 317 182 c 0,33,34
 330 188 330 188 345 188 c 0,0,1
345 410 m 256,35,36
 360 410 360 410 374 404 c 1,37,38
 387 397 387 397 396.5 388 c 128,-1,39
 406 379 406 379 412 365 c 0,40,41
 418 352 418 352 418 338 c 2,42,-1
 418 336 l 2,43,44
 418 321 418 321 412 309 c 0,45,46
 406 295 406 295 396.5 285.5 c 128,-1,47
 387 276 387 276 374 270 c 1,48,49
 360 265 360 265 345 265 c 256,50,51
 330 265 330 265 317 270 c 1,52,53
 303 277 303 277 293.5 286 c 128,-1,54
 284 295 284 295 278 309 c 0,55,56
 272 322 272 322 272 335 c 2,57,-1
 272 336 l 2,58,59
 272 352 272 352 278 365 c 0,60,61
 284 379 284 379 294 388.5 c 128,-1,62
 304 398 304 398 317 404 c 257,63,64
 330 410 330 410 345 410 c 256,35,36
567 853 m 256,65,66
 582 853 582 853 596 847 c 256,67,68
 610 841 610 841 619.5 831.5 c 128,-1,69
 629 822 629 822 635 809 c 0,70,71
 641 795 641 795 641 781 c 2,72,-1
 641 780 l 2,73,74
 641 765 641 765 635 753 c 0,75,76
 629 739 629 739 619 729 c 128,-1,77
 609 719 609 719 596 713 c 256,78,79
 583 707 583 707 567 707 c 0,80,81
 552 707 552 707 539 713 c 256,82,83
 526 719 526 719 516.5 729 c 128,-1,84
 507 739 507 739 501 753 c 0,85,86
 495 766 495 766 495 779 c 2,87,-1
 495 780 l 2,88,89
 495 795 495 795 501 809 c 0,90,91
 507 822 507 822 517 831.5 c 128,-1,92
 527 841 527 841 539 847 c 0,93,94
 552 853 552 853 567 853 c 256,65,66
EndSplineSet
Validated: 1
EndChar

StartChar: uni28ED
Encoding: 10317 10317 272
Width: 682
Flags: W
LayerCount: 2
Fore
SplineSet
345 188 m 0,0,1
 361 188 361 188 374 182 c 0,2,3
 388 176 388 176 397 166 c 0,4,5
 406 157 406 157 413 143 c 1,6,7
 418 129 418 129 418 115 c 2,8,-1
 418 114 l 2,9,10
 418 99 418 99 413 87 c 1,11,12
 406 73 406 73 397 63 c 0,13,14
 388 54 388 54 374 48 c 0,15,16
 361 42 361 42 345 42 c 0,17,18
 330 42 330 42 317 48 c 256,19,20
 304 54 304 54 295 63 c 1,21,-1
 294 63 l 1,22,23
 285 73 285 73 278 87 c 1,24,25
 273 100 273 100 273 113 c 2,26,-1
 273 114 l 2,27,28
 273 129 273 129 278 143 c 1,29,30
 285 156 285 156 294 166 c 256,31,32
 303 176 303 176 317 182 c 0,33,34
 330 188 330 188 345 188 c 0,0,1
345 410 m 256,35,36
 360 410 360 410 374 404 c 1,37,38
 387 397 387 397 396.5 388 c 128,-1,39
 406 379 406 379 412 365 c 0,40,41
 418 352 418 352 418 338 c 2,42,-1
 418 336 l 2,43,44
 418 321 418 321 412 309 c 0,45,46
 406 295 406 295 396.5 285.5 c 128,-1,47
 387 276 387 276 374 270 c 1,48,49
 360 265 360 265 345 265 c 256,50,51
 330 265 330 265 317 270 c 1,52,53
 303 277 303 277 293.5 286 c 128,-1,54
 284 295 284 295 278 309 c 0,55,56
 272 322 272 322 272 335 c 2,57,-1
 272 336 l 2,58,59
 272 352 272 352 278 365 c 0,60,61
 284 379 284 379 294 388.5 c 128,-1,62
 304 398 304 398 317 404 c 257,63,64
 330 410 330 410 345 410 c 256,35,36
567 853 m 256,65,66
 582 853 582 853 596 847 c 256,67,68
 610 841 610 841 619.5 831.5 c 128,-1,69
 629 822 629 822 635 809 c 0,70,71
 641 795 641 795 641 781 c 2,72,-1
 641 780 l 2,73,74
 641 765 641 765 635 753 c 0,75,76
 629 739 629 739 619 729 c 128,-1,77
 609 719 609 719 596 713 c 256,78,79
 583 707 583 707 567 707 c 0,80,81
 552 707 552 707 539 713 c 256,82,83
 526 719 526 719 516.5 729 c 128,-1,84
 507 739 507 739 501 753 c 0,85,86
 495 766 495 766 495 779 c 2,87,-1
 495 780 l 2,88,89
 495 795 495 795 501 809 c 0,90,91
 507 822 507 822 517 831.5 c 128,-1,92
 527 841 527 841 539 847 c 0,93,94
 552 853 552 853 567 853 c 256,65,66
346 853 m 256,95,96
 361 853 361 853 374 848 c 1,97,98
 388 841 388 841 397.5 832 c 128,-1,99
 407 823 407 823 413 809 c 0,100,101
 419 796 419 796 419 782 c 2,102,-1
 419 780 l 2,103,104
 419 765 419 765 413 753 c 0,105,106
 407 739 407 739 397 729.5 c 128,-1,107
 387 720 387 720 374 713 c 1,108,109
 361 708 361 708 346 708 c 256,110,111
 331 708 331 708 317 713 c 1,112,113
 304 720 304 720 294.5 729.5 c 128,-1,114
 285 739 285 739 279 753 c 0,115,116
 273 766 273 766 273 779 c 2,117,-1
 273 780 l 2,118,119
 273 796 273 796 279 809 c 0,120,121
 285 823 285 823 295 832 c 128,-1,122
 305 841 305 841 317 848 c 1,123,124
 331 853 331 853 346 853 c 256,95,96
EndSplineSet
Validated: 1
EndChar

StartChar: uni28EE
Encoding: 10318 10318 273
Width: 682
Flags: W
LayerCount: 2
Fore
SplineSet
345 188 m 0,0,1
 361 188 361 188 374 182 c 0,2,3
 388 176 388 176 397 166 c 0,4,5
 406 157 406 157 413 143 c 1,6,7
 418 129 418 129 418 115 c 2,8,-1
 418 114 l 2,9,10
 418 99 418 99 413 87 c 1,11,12
 406 73 406 73 397 63 c 0,13,14
 388 54 388 54 374 48 c 0,15,16
 361 42 361 42 345 42 c 0,17,18
 330 42 330 42 317 48 c 256,19,20
 304 54 304 54 295 63 c 1,21,-1
 294 63 l 1,22,23
 285 73 285 73 278 87 c 1,24,25
 273 100 273 100 273 113 c 2,26,-1
 273 114 l 2,27,28
 273 129 273 129 278 143 c 1,29,30
 285 156 285 156 294 166 c 256,31,32
 303 176 303 176 317 182 c 0,33,34
 330 188 330 188 345 188 c 0,0,1
345 410 m 256,35,36
 360 410 360 410 374 404 c 1,37,38
 387 397 387 397 396.5 388 c 128,-1,39
 406 379 406 379 412 365 c 0,40,41
 418 352 418 352 418 338 c 2,42,-1
 418 336 l 2,43,44
 418 321 418 321 412 309 c 0,45,46
 406 295 406 295 396.5 285.5 c 128,-1,47
 387 276 387 276 374 270 c 1,48,49
 360 265 360 265 345 265 c 256,50,51
 330 265 330 265 317 270 c 1,52,53
 303 277 303 277 293.5 286 c 128,-1,54
 284 295 284 295 278 309 c 0,55,56
 272 322 272 322 272 335 c 2,57,-1
 272 336 l 2,58,59
 272 352 272 352 278 365 c 0,60,61
 284 379 284 379 294 388.5 c 128,-1,62
 304 398 304 398 317 404 c 257,63,64
 330 410 330 410 345 410 c 256,35,36
345 631 m 0,65,66
 361 631 361 631 374 625 c 0,67,68
 388 619 388 619 397 609.5 c 128,-1,69
 406 600 406 600 413 587 c 1,70,71
 418 573 418 573 418 559 c 2,72,-1
 418 558 l 2,73,74
 418 543 418 543 413 531 c 1,75,76
 406 517 406 517 396.5 507 c 128,-1,77
 387 497 387 497 374 492 c 0,78,79
 361 486 361 486 345 486 c 0,80,81
 330 486 330 486 317 492 c 0,82,83
 303 498 303 498 294 507.5 c 128,-1,84
 285 517 285 517 278 531 c 1,85,86
 273 544 273 544 273 557 c 2,87,-1
 273 558 l 2,88,89
 273 573 273 573 278 587 c 1,90,91
 285 600 285 600 294.5 610 c 128,-1,92
 304 620 304 620 317 625 c 0,93,94
 330 631 330 631 345 631 c 0,65,66
567 853 m 256,95,96
 582 853 582 853 596 847 c 256,97,98
 610 841 610 841 619.5 831.5 c 128,-1,99
 629 822 629 822 635 809 c 0,100,101
 641 795 641 795 641 781 c 2,102,-1
 641 780 l 2,103,104
 641 765 641 765 635 753 c 0,105,106
 629 739 629 739 619 729 c 128,-1,107
 609 719 609 719 596 713 c 256,108,109
 583 707 583 707 567 707 c 0,110,111
 552 707 552 707 539 713 c 256,112,113
 526 719 526 719 516.5 729 c 128,-1,114
 507 739 507 739 501 753 c 0,115,116
 495 766 495 766 495 779 c 2,117,-1
 495 780 l 2,118,119
 495 795 495 795 501 809 c 0,120,121
 507 822 507 822 517 831.5 c 128,-1,122
 527 841 527 841 539 847 c 0,123,124
 552 853 552 853 567 853 c 256,95,96
EndSplineSet
Validated: 1
EndChar

StartChar: uni28EF
Encoding: 10319 10319 274
Width: 682
Flags: W
LayerCount: 2
Fore
SplineSet
345 188 m 0,0,1
 361 188 361 188 374 182 c 0,2,3
 388 176 388 176 397 166 c 0,4,5
 406 157 406 157 413 143 c 1,6,7
 418 129 418 129 418 115 c 2,8,-1
 418 114 l 2,9,10
 418 99 418 99 413 87 c 1,11,12
 406 73 406 73 397 63 c 0,13,14
 388 54 388 54 374 48 c 0,15,16
 361 42 361 42 345 42 c 0,17,18
 330 42 330 42 317 48 c 256,19,20
 304 54 304 54 295 63 c 1,21,-1
 294 63 l 1,22,23
 285 73 285 73 278 87 c 1,24,25
 273 100 273 100 273 113 c 2,26,-1
 273 114 l 2,27,28
 273 129 273 129 278 143 c 1,29,30
 285 156 285 156 294 166 c 256,31,32
 303 176 303 176 317 182 c 0,33,34
 330 188 330 188 345 188 c 0,0,1
345 410 m 256,35,36
 360 410 360 410 374 404 c 1,37,38
 387 397 387 397 396.5 388 c 128,-1,39
 406 379 406 379 412 365 c 0,40,41
 418 352 418 352 418 338 c 2,42,-1
 418 336 l 2,43,44
 418 321 418 321 412 309 c 0,45,46
 406 295 406 295 396.5 285.5 c 128,-1,47
 387 276 387 276 374 270 c 1,48,49
 360 265 360 265 345 265 c 256,50,51
 330 265 330 265 317 270 c 1,52,53
 303 277 303 277 293.5 286 c 128,-1,54
 284 295 284 295 278 309 c 0,55,56
 272 322 272 322 272 335 c 2,57,-1
 272 336 l 2,58,59
 272 352 272 352 278 365 c 0,60,61
 284 379 284 379 294 388.5 c 128,-1,62
 304 398 304 398 317 404 c 257,63,64
 330 410 330 410 345 410 c 256,35,36
345 631 m 0,65,66
 361 631 361 631 374 625 c 0,67,68
 388 619 388 619 397 609.5 c 128,-1,69
 406 600 406 600 413 587 c 1,70,71
 418 573 418 573 418 559 c 2,72,-1
 418 558 l 2,73,74
 418 543 418 543 413 531 c 1,75,76
 406 517 406 517 396.5 507 c 128,-1,77
 387 497 387 497 374 492 c 0,78,79
 361 486 361 486 345 486 c 0,80,81
 330 486 330 486 317 492 c 0,82,83
 303 498 303 498 294 507.5 c 128,-1,84
 285 517 285 517 278 531 c 1,85,86
 273 544 273 544 273 557 c 2,87,-1
 273 558 l 2,88,89
 273 573 273 573 278 587 c 1,90,91
 285 600 285 600 294.5 610 c 128,-1,92
 304 620 304 620 317 625 c 0,93,94
 330 631 330 631 345 631 c 0,65,66
567 853 m 256,95,96
 582 853 582 853 596 847 c 256,97,98
 610 841 610 841 619.5 831.5 c 128,-1,99
 629 822 629 822 635 809 c 0,100,101
 641 795 641 795 641 781 c 2,102,-1
 641 780 l 2,103,104
 641 765 641 765 635 753 c 0,105,106
 629 739 629 739 619 729 c 128,-1,107
 609 719 609 719 596 713 c 256,108,109
 583 707 583 707 567 707 c 0,110,111
 552 707 552 707 539 713 c 256,112,113
 526 719 526 719 516.5 729 c 128,-1,114
 507 739 507 739 501 753 c 0,115,116
 495 766 495 766 495 779 c 2,117,-1
 495 780 l 2,118,119
 495 795 495 795 501 809 c 0,120,121
 507 822 507 822 517 831.5 c 128,-1,122
 527 841 527 841 539 847 c 0,123,124
 552 853 552 853 567 853 c 256,95,96
346 853 m 256,125,126
 361 853 361 853 374 848 c 1,127,128
 388 841 388 841 397.5 832 c 128,-1,129
 407 823 407 823 413 809 c 0,130,131
 419 796 419 796 419 782 c 2,132,-1
 419 780 l 2,133,134
 419 765 419 765 413 753 c 0,135,136
 407 739 407 739 397 729.5 c 128,-1,137
 387 720 387 720 374 713 c 1,138,139
 361 708 361 708 346 708 c 256,140,141
 331 708 331 708 317 713 c 1,142,143
 304 720 304 720 294.5 729.5 c 128,-1,144
 285 739 285 739 279 753 c 0,145,146
 273 766 273 766 273 779 c 2,147,-1
 273 780 l 2,148,149
 273 796 273 796 279 809 c 0,150,151
 285 823 285 823 295 832 c 128,-1,152
 305 841 305 841 317 848 c 1,153,154
 331 853 331 853 346 853 c 256,125,126
EndSplineSet
Validated: 1
EndChar

StartChar: uni28F0
Encoding: 10320 10320 275
Width: 682
Flags: W
LayerCount: 2
Fore
SplineSet
345 188 m 0,0,1
 361 188 361 188 374 182 c 0,2,3
 388 176 388 176 397 166 c 0,4,5
 406 157 406 157 413 143 c 1,6,7
 418 129 418 129 418 115 c 2,8,-1
 418 114 l 2,9,10
 418 99 418 99 413 87 c 1,11,12
 406 73 406 73 397 63 c 0,13,14
 388 54 388 54 374 48 c 0,15,16
 361 42 361 42 345 42 c 0,17,18
 330 42 330 42 317 48 c 256,19,20
 304 54 304 54 295 63 c 1,21,-1
 294 63 l 1,22,23
 285 73 285 73 278 87 c 1,24,25
 273 100 273 100 273 113 c 2,26,-1
 273 114 l 2,27,28
 273 129 273 129 278 143 c 1,29,30
 285 156 285 156 294 166 c 256,31,32
 303 176 303 176 317 182 c 0,33,34
 330 188 330 188 345 188 c 0,0,1
567 631 m 256,35,36
 582 631 582 631 596 626 c 1,37,38
 610 619 610 619 619.5 610 c 128,-1,39
 629 601 629 601 635 587 c 0,40,41
 641 574 641 574 641 560 c 2,42,-1
 641 558 l 2,43,44
 641 543 641 543 635 531 c 0,45,46
 629 517 629 517 619 507.5 c 128,-1,47
 609 498 609 498 596 492 c 1,48,49
 583 487 583 487 567 486 c 0,50,51
 552 486 552 486 539 492 c 1,52,53
 526 499 526 499 516.5 508 c 128,-1,54
 507 517 507 517 501 531 c 0,55,56
 495 544 495 544 495 557 c 2,57,-1
 495 558 l 2,58,59
 495 574 495 574 501 587 c 0,60,61
 507 601 507 601 517 610.5 c 128,-1,62
 527 620 527 620 539 626 c 1,63,64
 552 631 552 631 567 631 c 256,35,36
EndSplineSet
Validated: 1
EndChar

StartChar: uni28F1
Encoding: 10321 10321 276
Width: 682
Flags: W
LayerCount: 2
Fore
SplineSet
345 188 m 0,0,1
 361 188 361 188 374 182 c 0,2,3
 388 176 388 176 397 166 c 0,4,5
 406 157 406 157 413 143 c 1,6,7
 418 129 418 129 418 115 c 2,8,-1
 418 114 l 2,9,10
 418 99 418 99 413 87 c 1,11,12
 406 73 406 73 397 63 c 0,13,14
 388 54 388 54 374 48 c 0,15,16
 361 42 361 42 345 42 c 0,17,18
 330 42 330 42 317 48 c 256,19,20
 304 54 304 54 295 63 c 1,21,-1
 294 63 l 1,22,23
 285 73 285 73 278 87 c 1,24,25
 273 100 273 100 273 113 c 2,26,-1
 273 114 l 2,27,28
 273 129 273 129 278 143 c 1,29,30
 285 156 285 156 294 166 c 256,31,32
 303 176 303 176 317 182 c 0,33,34
 330 188 330 188 345 188 c 0,0,1
567 631 m 256,35,36
 582 631 582 631 596 626 c 1,37,38
 610 619 610 619 619.5 610 c 128,-1,39
 629 601 629 601 635 587 c 0,40,41
 641 574 641 574 641 560 c 2,42,-1
 641 558 l 2,43,44
 641 543 641 543 635 531 c 0,45,46
 629 517 629 517 619 507.5 c 128,-1,47
 609 498 609 498 596 492 c 1,48,49
 583 487 583 487 567 486 c 0,50,51
 552 486 552 486 539 492 c 1,52,53
 526 499 526 499 516.5 508 c 128,-1,54
 507 517 507 517 501 531 c 0,55,56
 495 544 495 544 495 557 c 2,57,-1
 495 558 l 2,58,59
 495 574 495 574 501 587 c 0,60,61
 507 601 507 601 517 610.5 c 128,-1,62
 527 620 527 620 539 626 c 1,63,64
 552 631 552 631 567 631 c 256,35,36
346 853 m 256,65,66
 361 853 361 853 374 848 c 1,67,68
 388 841 388 841 397.5 832 c 128,-1,69
 407 823 407 823 413 809 c 0,70,71
 419 796 419 796 419 782 c 2,72,-1
 419 780 l 2,73,74
 419 765 419 765 413 753 c 0,75,76
 407 739 407 739 397 729.5 c 128,-1,77
 387 720 387 720 374 713 c 1,78,79
 361 708 361 708 346 708 c 256,80,81
 331 708 331 708 317 713 c 1,82,83
 304 720 304 720 294.5 729.5 c 128,-1,84
 285 739 285 739 279 753 c 0,85,86
 273 766 273 766 273 779 c 2,87,-1
 273 780 l 2,88,89
 273 796 273 796 279 809 c 0,90,91
 285 823 285 823 295 832 c 128,-1,92
 305 841 305 841 317 848 c 1,93,94
 331 853 331 853 346 853 c 256,65,66
EndSplineSet
Validated: 1
EndChar

StartChar: uni28F2
Encoding: 10322 10322 277
Width: 682
Flags: W
LayerCount: 2
Fore
SplineSet
345 188 m 0,0,1
 361 188 361 188 374 182 c 0,2,3
 388 176 388 176 397 166 c 0,4,5
 406 157 406 157 413 143 c 1,6,7
 418 129 418 129 418 115 c 2,8,-1
 418 114 l 2,9,10
 418 99 418 99 413 87 c 1,11,12
 406 73 406 73 397 63 c 0,13,14
 388 54 388 54 374 48 c 0,15,16
 361 42 361 42 345 42 c 0,17,18
 330 42 330 42 317 48 c 256,19,20
 304 54 304 54 295 63 c 1,21,-1
 294 63 l 1,22,23
 285 73 285 73 278 87 c 1,24,25
 273 100 273 100 273 113 c 2,26,-1
 273 114 l 2,27,28
 273 129 273 129 278 143 c 1,29,30
 285 156 285 156 294 166 c 256,31,32
 303 176 303 176 317 182 c 0,33,34
 330 188 330 188 345 188 c 0,0,1
567 631 m 256,35,36
 582 631 582 631 596 626 c 1,37,38
 610 619 610 619 619.5 610 c 128,-1,39
 629 601 629 601 635 587 c 0,40,41
 641 574 641 574 641 560 c 2,42,-1
 641 558 l 2,43,44
 641 543 641 543 635 531 c 0,45,46
 629 517 629 517 619 507.5 c 128,-1,47
 609 498 609 498 596 492 c 1,48,49
 583 487 583 487 567 486 c 0,50,51
 552 486 552 486 539 492 c 1,52,53
 526 499 526 499 516.5 508 c 128,-1,54
 507 517 507 517 501 531 c 0,55,56
 495 544 495 544 495 557 c 2,57,-1
 495 558 l 2,58,59
 495 574 495 574 501 587 c 0,60,61
 507 601 507 601 517 610.5 c 128,-1,62
 527 620 527 620 539 626 c 1,63,64
 552 631 552 631 567 631 c 256,35,36
345 631 m 0,65,66
 361 631 361 631 374 625 c 0,67,68
 388 619 388 619 397 609.5 c 128,-1,69
 406 600 406 600 413 587 c 1,70,71
 418 573 418 573 418 559 c 2,72,-1
 418 558 l 2,73,74
 418 543 418 543 413 531 c 1,75,76
 406 517 406 517 396.5 507 c 128,-1,77
 387 497 387 497 374 492 c 0,78,79
 361 486 361 486 345 486 c 0,80,81
 330 486 330 486 317 492 c 0,82,83
 303 498 303 498 294 507.5 c 128,-1,84
 285 517 285 517 278 531 c 1,85,86
 273 544 273 544 273 557 c 2,87,-1
 273 558 l 2,88,89
 273 573 273 573 278 587 c 1,90,91
 285 600 285 600 294.5 610 c 128,-1,92
 304 620 304 620 317 625 c 0,93,94
 330 631 330 631 345 631 c 0,65,66
EndSplineSet
Validated: 1
EndChar

StartChar: uni28F3
Encoding: 10323 10323 278
Width: 682
Flags: W
LayerCount: 2
Fore
SplineSet
345 188 m 0,0,1
 361 188 361 188 374 182 c 0,2,3
 388 176 388 176 397 166 c 0,4,5
 406 157 406 157 413 143 c 1,6,7
 418 129 418 129 418 115 c 2,8,-1
 418 114 l 2,9,10
 418 99 418 99 413 87 c 1,11,12
 406 73 406 73 397 63 c 0,13,14
 388 54 388 54 374 48 c 0,15,16
 361 42 361 42 345 42 c 0,17,18
 330 42 330 42 317 48 c 256,19,20
 304 54 304 54 295 63 c 1,21,-1
 294 63 l 1,22,23
 285 73 285 73 278 87 c 1,24,25
 273 100 273 100 273 113 c 2,26,-1
 273 114 l 2,27,28
 273 129 273 129 278 143 c 1,29,30
 285 156 285 156 294 166 c 256,31,32
 303 176 303 176 317 182 c 0,33,34
 330 188 330 188 345 188 c 0,0,1
567 631 m 256,35,36
 582 631 582 631 596 626 c 1,37,38
 610 619 610 619 619.5 610 c 128,-1,39
 629 601 629 601 635 587 c 0,40,41
 641 574 641 574 641 560 c 2,42,-1
 641 558 l 2,43,44
 641 543 641 543 635 531 c 0,45,46
 629 517 629 517 619 507.5 c 128,-1,47
 609 498 609 498 596 492 c 1,48,49
 583 487 583 487 567 486 c 0,50,51
 552 486 552 486 539 492 c 1,52,53
 526 499 526 499 516.5 508 c 128,-1,54
 507 517 507 517 501 531 c 0,55,56
 495 544 495 544 495 557 c 2,57,-1
 495 558 l 2,58,59
 495 574 495 574 501 587 c 0,60,61
 507 601 507 601 517 610.5 c 128,-1,62
 527 620 527 620 539 626 c 1,63,64
 552 631 552 631 567 631 c 256,35,36
345 631 m 0,65,66
 361 631 361 631 374 625 c 0,67,68
 388 619 388 619 397 609.5 c 128,-1,69
 406 600 406 600 413 587 c 1,70,71
 418 573 418 573 418 559 c 2,72,-1
 418 558 l 2,73,74
 418 543 418 543 413 531 c 1,75,76
 406 517 406 517 396.5 507 c 128,-1,77
 387 497 387 497 374 492 c 0,78,79
 361 486 361 486 345 486 c 0,80,81
 330 486 330 486 317 492 c 0,82,83
 303 498 303 498 294 507.5 c 128,-1,84
 285 517 285 517 278 531 c 1,85,86
 273 544 273 544 273 557 c 2,87,-1
 273 558 l 2,88,89
 273 573 273 573 278 587 c 1,90,91
 285 600 285 600 294.5 610 c 128,-1,92
 304 620 304 620 317 625 c 0,93,94
 330 631 330 631 345 631 c 0,65,66
346 853 m 256,95,96
 361 853 361 853 374 848 c 1,97,98
 388 841 388 841 397.5 832 c 128,-1,99
 407 823 407 823 413 809 c 0,100,101
 419 796 419 796 419 782 c 2,102,-1
 419 780 l 2,103,104
 419 765 419 765 413 753 c 0,105,106
 407 739 407 739 397 729.5 c 128,-1,107
 387 720 387 720 374 713 c 1,108,109
 361 708 361 708 346 708 c 256,110,111
 331 708 331 708 317 713 c 1,112,113
 304 720 304 720 294.5 729.5 c 128,-1,114
 285 739 285 739 279 753 c 0,115,116
 273 766 273 766 273 779 c 2,117,-1
 273 780 l 2,118,119
 273 796 273 796 279 809 c 0,120,121
 285 823 285 823 295 832 c 128,-1,122
 305 841 305 841 317 848 c 1,123,124
 331 853 331 853 346 853 c 256,95,96
EndSplineSet
Validated: 1
EndChar

StartChar: uni28F4
Encoding: 10324 10324 279
Width: 682
Flags: W
LayerCount: 2
Fore
SplineSet
345 188 m 0,0,1
 361 188 361 188 374 182 c 0,2,3
 388 176 388 176 397 166 c 0,4,5
 406 157 406 157 413 143 c 1,6,7
 418 129 418 129 418 115 c 2,8,-1
 418 114 l 2,9,10
 418 99 418 99 413 87 c 1,11,12
 406 73 406 73 397 63 c 0,13,14
 388 54 388 54 374 48 c 0,15,16
 361 42 361 42 345 42 c 0,17,18
 330 42 330 42 317 48 c 256,19,20
 304 54 304 54 295 63 c 1,21,-1
 294 63 l 1,22,23
 285 73 285 73 278 87 c 1,24,25
 273 100 273 100 273 113 c 2,26,-1
 273 114 l 2,27,28
 273 129 273 129 278 143 c 1,29,30
 285 156 285 156 294 166 c 256,31,32
 303 176 303 176 317 182 c 0,33,34
 330 188 330 188 345 188 c 0,0,1
345 410 m 256,35,36
 360 410 360 410 374 404 c 1,37,38
 387 397 387 397 396.5 388 c 128,-1,39
 406 379 406 379 412 365 c 0,40,41
 418 352 418 352 418 338 c 2,42,-1
 418 336 l 2,43,44
 418 321 418 321 412 309 c 0,45,46
 406 295 406 295 396.5 285.5 c 128,-1,47
 387 276 387 276 374 270 c 1,48,49
 360 265 360 265 345 265 c 256,50,51
 330 265 330 265 317 270 c 1,52,53
 303 277 303 277 293.5 286 c 128,-1,54
 284 295 284 295 278 309 c 0,55,56
 272 322 272 322 272 335 c 2,57,-1
 272 336 l 2,58,59
 272 352 272 352 278 365 c 0,60,61
 284 379 284 379 294 388.5 c 128,-1,62
 304 398 304 398 317 404 c 257,63,64
 330 410 330 410 345 410 c 256,35,36
567 631 m 256,65,66
 582 631 582 631 596 626 c 1,67,68
 610 619 610 619 619.5 610 c 128,-1,69
 629 601 629 601 635 587 c 0,70,71
 641 574 641 574 641 560 c 2,72,-1
 641 558 l 2,73,74
 641 543 641 543 635 531 c 0,75,76
 629 517 629 517 619 507.5 c 128,-1,77
 609 498 609 498 596 492 c 1,78,79
 583 487 583 487 567 486 c 0,80,81
 552 486 552 486 539 492 c 1,82,83
 526 499 526 499 516.5 508 c 128,-1,84
 507 517 507 517 501 531 c 0,85,86
 495 544 495 544 495 557 c 2,87,-1
 495 558 l 2,88,89
 495 574 495 574 501 587 c 0,90,91
 507 601 507 601 517 610.5 c 128,-1,92
 527 620 527 620 539 626 c 1,93,94
 552 631 552 631 567 631 c 256,65,66
EndSplineSet
Validated: 1
EndChar

StartChar: uni28F5
Encoding: 10325 10325 280
Width: 682
Flags: W
LayerCount: 2
Fore
SplineSet
345 188 m 0,0,1
 361 188 361 188 374 182 c 0,2,3
 388 176 388 176 397 166 c 0,4,5
 406 157 406 157 413 143 c 1,6,7
 418 129 418 129 418 115 c 2,8,-1
 418 114 l 2,9,10
 418 99 418 99 413 87 c 1,11,12
 406 73 406 73 397 63 c 0,13,14
 388 54 388 54 374 48 c 0,15,16
 361 42 361 42 345 42 c 0,17,18
 330 42 330 42 317 48 c 256,19,20
 304 54 304 54 295 63 c 1,21,-1
 294 63 l 1,22,23
 285 73 285 73 278 87 c 1,24,25
 273 100 273 100 273 113 c 2,26,-1
 273 114 l 2,27,28
 273 129 273 129 278 143 c 1,29,30
 285 156 285 156 294 166 c 256,31,32
 303 176 303 176 317 182 c 0,33,34
 330 188 330 188 345 188 c 0,0,1
345 410 m 256,35,36
 360 410 360 410 374 404 c 1,37,38
 387 397 387 397 396.5 388 c 128,-1,39
 406 379 406 379 412 365 c 0,40,41
 418 352 418 352 418 338 c 2,42,-1
 418 336 l 2,43,44
 418 321 418 321 412 309 c 0,45,46
 406 295 406 295 396.5 285.5 c 128,-1,47
 387 276 387 276 374 270 c 1,48,49
 360 265 360 265 345 265 c 256,50,51
 330 265 330 265 317 270 c 1,52,53
 303 277 303 277 293.5 286 c 128,-1,54
 284 295 284 295 278 309 c 0,55,56
 272 322 272 322 272 335 c 2,57,-1
 272 336 l 2,58,59
 272 352 272 352 278 365 c 0,60,61
 284 379 284 379 294 388.5 c 128,-1,62
 304 398 304 398 317 404 c 257,63,64
 330 410 330 410 345 410 c 256,35,36
567 631 m 256,65,66
 582 631 582 631 596 626 c 1,67,68
 610 619 610 619 619.5 610 c 128,-1,69
 629 601 629 601 635 587 c 0,70,71
 641 574 641 574 641 560 c 2,72,-1
 641 558 l 2,73,74
 641 543 641 543 635 531 c 0,75,76
 629 517 629 517 619 507.5 c 128,-1,77
 609 498 609 498 596 492 c 1,78,79
 583 487 583 487 567 486 c 0,80,81
 552 486 552 486 539 492 c 1,82,83
 526 499 526 499 516.5 508 c 128,-1,84
 507 517 507 517 501 531 c 0,85,86
 495 544 495 544 495 557 c 2,87,-1
 495 558 l 2,88,89
 495 574 495 574 501 587 c 0,90,91
 507 601 507 601 517 610.5 c 128,-1,92
 527 620 527 620 539 626 c 1,93,94
 552 631 552 631 567 631 c 256,65,66
346 853 m 256,95,96
 361 853 361 853 374 848 c 1,97,98
 388 841 388 841 397.5 832 c 128,-1,99
 407 823 407 823 413 809 c 0,100,101
 419 796 419 796 419 782 c 2,102,-1
 419 780 l 2,103,104
 419 765 419 765 413 753 c 0,105,106
 407 739 407 739 397 729.5 c 128,-1,107
 387 720 387 720 374 713 c 1,108,109
 361 708 361 708 346 708 c 256,110,111
 331 708 331 708 317 713 c 1,112,113
 304 720 304 720 294.5 729.5 c 128,-1,114
 285 739 285 739 279 753 c 0,115,116
 273 766 273 766 273 779 c 2,117,-1
 273 780 l 2,118,119
 273 796 273 796 279 809 c 0,120,121
 285 823 285 823 295 832 c 128,-1,122
 305 841 305 841 317 848 c 1,123,124
 331 853 331 853 346 853 c 256,95,96
EndSplineSet
Validated: 1
EndChar

StartChar: uni28F6
Encoding: 10326 10326 281
Width: 682
Flags: W
LayerCount: 2
Fore
SplineSet
345 188 m 0,0,1
 361 188 361 188 374 182 c 0,2,3
 388 176 388 176 397 166 c 0,4,5
 406 157 406 157 413 143 c 1,6,7
 418 129 418 129 418 115 c 2,8,-1
 418 114 l 2,9,10
 418 99 418 99 413 87 c 1,11,12
 406 73 406 73 397 63 c 0,13,14
 388 54 388 54 374 48 c 0,15,16
 361 42 361 42 345 42 c 0,17,18
 330 42 330 42 317 48 c 256,19,20
 304 54 304 54 295 63 c 1,21,-1
 294 63 l 1,22,23
 285 73 285 73 278 87 c 1,24,25
 273 100 273 100 273 113 c 2,26,-1
 273 114 l 2,27,28
 273 129 273 129 278 143 c 1,29,30
 285 156 285 156 294 166 c 256,31,32
 303 176 303 176 317 182 c 0,33,34
 330 188 330 188 345 188 c 0,0,1
345 410 m 256,35,36
 360 410 360 410 374 404 c 1,37,38
 387 397 387 397 396.5 388 c 128,-1,39
 406 379 406 379 412 365 c 0,40,41
 418 352 418 352 418 338 c 2,42,-1
 418 336 l 2,43,44
 418 321 418 321 412 309 c 0,45,46
 406 295 406 295 396.5 285.5 c 128,-1,47
 387 276 387 276 374 270 c 1,48,49
 360 265 360 265 345 265 c 256,50,51
 330 265 330 265 317 270 c 1,52,53
 303 277 303 277 293.5 286 c 128,-1,54
 284 295 284 295 278 309 c 0,55,56
 272 322 272 322 272 335 c 2,57,-1
 272 336 l 2,58,59
 272 352 272 352 278 365 c 0,60,61
 284 379 284 379 294 388.5 c 128,-1,62
 304 398 304 398 317 404 c 257,63,64
 330 410 330 410 345 410 c 256,35,36
567 631 m 256,65,66
 582 631 582 631 596 626 c 1,67,68
 610 619 610 619 619.5 610 c 128,-1,69
 629 601 629 601 635 587 c 0,70,71
 641 574 641 574 641 560 c 2,72,-1
 641 558 l 2,73,74
 641 543 641 543 635 531 c 0,75,76
 629 517 629 517 619 507.5 c 128,-1,77
 609 498 609 498 596 492 c 1,78,79
 583 487 583 487 567 486 c 0,80,81
 552 486 552 486 539 492 c 1,82,83
 526 499 526 499 516.5 508 c 128,-1,84
 507 517 507 517 501 531 c 0,85,86
 495 544 495 544 495 557 c 2,87,-1
 495 558 l 2,88,89
 495 574 495 574 501 587 c 0,90,91
 507 601 507 601 517 610.5 c 128,-1,92
 527 620 527 620 539 626 c 1,93,94
 552 631 552 631 567 631 c 256,65,66
345 631 m 0,95,96
 361 631 361 631 374 625 c 0,97,98
 388 619 388 619 397 609.5 c 128,-1,99
 406 600 406 600 413 587 c 1,100,101
 418 573 418 573 418 559 c 2,102,-1
 418 558 l 2,103,104
 418 543 418 543 413 531 c 1,105,106
 406 517 406 517 396.5 507 c 128,-1,107
 387 497 387 497 374 492 c 0,108,109
 361 486 361 486 345 486 c 0,110,111
 330 486 330 486 317 492 c 0,112,113
 303 498 303 498 294 507.5 c 128,-1,114
 285 517 285 517 278 531 c 1,115,116
 273 544 273 544 273 557 c 2,117,-1
 273 558 l 2,118,119
 273 573 273 573 278 587 c 1,120,121
 285 600 285 600 294.5 610 c 128,-1,122
 304 620 304 620 317 625 c 0,123,124
 330 631 330 631 345 631 c 0,95,96
EndSplineSet
Validated: 1
EndChar

StartChar: uni28F7
Encoding: 10327 10327 282
Width: 682
Flags: W
LayerCount: 2
Fore
SplineSet
345 188 m 0,0,1
 361 188 361 188 374 182 c 0,2,3
 388 176 388 176 397 166 c 0,4,5
 406 157 406 157 413 143 c 1,6,7
 418 129 418 129 418 115 c 2,8,-1
 418 114 l 2,9,10
 418 99 418 99 413 87 c 1,11,12
 406 73 406 73 397 63 c 0,13,14
 388 54 388 54 374 48 c 0,15,16
 361 42 361 42 345 42 c 0,17,18
 330 42 330 42 317 48 c 256,19,20
 304 54 304 54 295 63 c 1,21,-1
 294 63 l 1,22,23
 285 73 285 73 278 87 c 1,24,25
 273 100 273 100 273 113 c 2,26,-1
 273 114 l 2,27,28
 273 129 273 129 278 143 c 1,29,30
 285 156 285 156 294 166 c 256,31,32
 303 176 303 176 317 182 c 0,33,34
 330 188 330 188 345 188 c 0,0,1
345 410 m 256,35,36
 360 410 360 410 374 404 c 1,37,38
 387 397 387 397 396.5 388 c 128,-1,39
 406 379 406 379 412 365 c 0,40,41
 418 352 418 352 418 338 c 2,42,-1
 418 336 l 2,43,44
 418 321 418 321 412 309 c 0,45,46
 406 295 406 295 396.5 285.5 c 128,-1,47
 387 276 387 276 374 270 c 1,48,49
 360 265 360 265 345 265 c 256,50,51
 330 265 330 265 317 270 c 1,52,53
 303 277 303 277 293.5 286 c 128,-1,54
 284 295 284 295 278 309 c 0,55,56
 272 322 272 322 272 335 c 2,57,-1
 272 336 l 2,58,59
 272 352 272 352 278 365 c 0,60,61
 284 379 284 379 294 388.5 c 128,-1,62
 304 398 304 398 317 404 c 257,63,64
 330 410 330 410 345 410 c 256,35,36
567 631 m 256,65,66
 582 631 582 631 596 626 c 1,67,68
 610 619 610 619 619.5 610 c 128,-1,69
 629 601 629 601 635 587 c 0,70,71
 641 574 641 574 641 560 c 2,72,-1
 641 558 l 2,73,74
 641 543 641 543 635 531 c 0,75,76
 629 517 629 517 619 507.5 c 128,-1,77
 609 498 609 498 596 492 c 1,78,79
 583 487 583 487 567 486 c 0,80,81
 552 486 552 486 539 492 c 1,82,83
 526 499 526 499 516.5 508 c 128,-1,84
 507 517 507 517 501 531 c 0,85,86
 495 544 495 544 495 557 c 2,87,-1
 495 558 l 2,88,89
 495 574 495 574 501 587 c 0,90,91
 507 601 507 601 517 610.5 c 128,-1,92
 527 620 527 620 539 626 c 1,93,94
 552 631 552 631 567 631 c 256,65,66
345 631 m 0,95,96
 361 631 361 631 374 625 c 0,97,98
 388 619 388 619 397 609.5 c 128,-1,99
 406 600 406 600 413 587 c 1,100,101
 418 573 418 573 418 559 c 2,102,-1
 418 558 l 2,103,104
 418 543 418 543 413 531 c 1,105,106
 406 517 406 517 396.5 507 c 128,-1,107
 387 497 387 497 374 492 c 0,108,109
 361 486 361 486 345 486 c 0,110,111
 330 486 330 486 317 492 c 0,112,113
 303 498 303 498 294 507.5 c 128,-1,114
 285 517 285 517 278 531 c 1,115,116
 273 544 273 544 273 557 c 2,117,-1
 273 558 l 2,118,119
 273 573 273 573 278 587 c 1,120,121
 285 600 285 600 294.5 610 c 128,-1,122
 304 620 304 620 317 625 c 0,123,124
 330 631 330 631 345 631 c 0,95,96
346 853 m 256,125,126
 361 853 361 853 374 848 c 1,127,128
 388 841 388 841 397.5 832 c 128,-1,129
 407 823 407 823 413 809 c 0,130,131
 419 796 419 796 419 782 c 2,132,-1
 419 780 l 2,133,134
 419 765 419 765 413 753 c 0,135,136
 407 739 407 739 397 729.5 c 128,-1,137
 387 720 387 720 374 713 c 1,138,139
 361 708 361 708 346 708 c 256,140,141
 331 708 331 708 317 713 c 1,142,143
 304 720 304 720 294.5 729.5 c 128,-1,144
 285 739 285 739 279 753 c 0,145,146
 273 766 273 766 273 779 c 2,147,-1
 273 780 l 2,148,149
 273 796 273 796 279 809 c 0,150,151
 285 823 285 823 295 832 c 128,-1,152
 305 841 305 841 317 848 c 1,153,154
 331 853 331 853 346 853 c 256,125,126
EndSplineSet
Validated: 1
EndChar

StartChar: uni28F8
Encoding: 10328 10328 283
Width: 682
Flags: W
LayerCount: 2
Fore
SplineSet
345 188 m 0,0,1
 361 188 361 188 374 182 c 0,2,3
 388 176 388 176 397 166 c 0,4,5
 406 157 406 157 413 143 c 1,6,7
 418 129 418 129 418 115 c 2,8,-1
 418 114 l 2,9,10
 418 99 418 99 413 87 c 1,11,12
 406 73 406 73 397 63 c 0,13,14
 388 54 388 54 374 48 c 0,15,16
 361 42 361 42 345 42 c 0,17,18
 330 42 330 42 317 48 c 256,19,20
 304 54 304 54 295 63 c 1,21,-1
 294 63 l 1,22,23
 285 73 285 73 278 87 c 1,24,25
 273 100 273 100 273 113 c 2,26,-1
 273 114 l 2,27,28
 273 129 273 129 278 143 c 1,29,30
 285 156 285 156 294 166 c 256,31,32
 303 176 303 176 317 182 c 0,33,34
 330 188 330 188 345 188 c 0,0,1
567 631 m 256,35,36
 582 631 582 631 596 626 c 1,37,38
 610 619 610 619 619.5 610 c 128,-1,39
 629 601 629 601 635 587 c 0,40,41
 641 574 641 574 641 560 c 2,42,-1
 641 558 l 2,43,44
 641 543 641 543 635 531 c 0,45,46
 629 517 629 517 619 507.5 c 128,-1,47
 609 498 609 498 596 492 c 1,48,49
 583 487 583 487 567 486 c 0,50,51
 552 486 552 486 539 492 c 1,52,53
 526 499 526 499 516.5 508 c 128,-1,54
 507 517 507 517 501 531 c 0,55,56
 495 544 495 544 495 557 c 2,57,-1
 495 558 l 2,58,59
 495 574 495 574 501 587 c 0,60,61
 507 601 507 601 517 610.5 c 128,-1,62
 527 620 527 620 539 626 c 1,63,64
 552 631 552 631 567 631 c 256,35,36
567 853 m 256,65,66
 582 853 582 853 596 847 c 256,67,68
 610 841 610 841 619.5 831.5 c 128,-1,69
 629 822 629 822 635 809 c 0,70,71
 641 795 641 795 641 781 c 2,72,-1
 641 780 l 2,73,74
 641 765 641 765 635 753 c 0,75,76
 629 739 629 739 619 729 c 128,-1,77
 609 719 609 719 596 713 c 256,78,79
 583 707 583 707 567 707 c 0,80,81
 552 707 552 707 539 713 c 256,82,83
 526 719 526 719 516.5 729 c 128,-1,84
 507 739 507 739 501 753 c 0,85,86
 495 766 495 766 495 779 c 2,87,-1
 495 780 l 2,88,89
 495 795 495 795 501 809 c 0,90,91
 507 822 507 822 517 831.5 c 128,-1,92
 527 841 527 841 539 847 c 0,93,94
 552 853 552 853 567 853 c 256,65,66
EndSplineSet
Validated: 1
EndChar

StartChar: uni28F9
Encoding: 10329 10329 284
Width: 682
Flags: W
LayerCount: 2
Fore
SplineSet
345 188 m 0,0,1
 361 188 361 188 374 182 c 0,2,3
 388 176 388 176 397 166 c 0,4,5
 406 157 406 157 413 143 c 1,6,7
 418 129 418 129 418 115 c 2,8,-1
 418 114 l 2,9,10
 418 99 418 99 413 87 c 1,11,12
 406 73 406 73 397 63 c 0,13,14
 388 54 388 54 374 48 c 0,15,16
 361 42 361 42 345 42 c 0,17,18
 330 42 330 42 317 48 c 256,19,20
 304 54 304 54 295 63 c 1,21,-1
 294 63 l 1,22,23
 285 73 285 73 278 87 c 1,24,25
 273 100 273 100 273 113 c 2,26,-1
 273 114 l 2,27,28
 273 129 273 129 278 143 c 1,29,30
 285 156 285 156 294 166 c 256,31,32
 303 176 303 176 317 182 c 0,33,34
 330 188 330 188 345 188 c 0,0,1
567 631 m 256,35,36
 582 631 582 631 596 626 c 1,37,38
 610 619 610 619 619.5 610 c 128,-1,39
 629 601 629 601 635 587 c 0,40,41
 641 574 641 574 641 560 c 2,42,-1
 641 558 l 2,43,44
 641 543 641 543 635 531 c 0,45,46
 629 517 629 517 619 507.5 c 128,-1,47
 609 498 609 498 596 492 c 1,48,49
 583 487 583 487 567 486 c 0,50,51
 552 486 552 486 539 492 c 1,52,53
 526 499 526 499 516.5 508 c 128,-1,54
 507 517 507 517 501 531 c 0,55,56
 495 544 495 544 495 557 c 2,57,-1
 495 558 l 2,58,59
 495 574 495 574 501 587 c 0,60,61
 507 601 507 601 517 610.5 c 128,-1,62
 527 620 527 620 539 626 c 1,63,64
 552 631 552 631 567 631 c 256,35,36
567 853 m 256,65,66
 582 853 582 853 596 847 c 256,67,68
 610 841 610 841 619.5 831.5 c 128,-1,69
 629 822 629 822 635 809 c 0,70,71
 641 795 641 795 641 781 c 2,72,-1
 641 780 l 2,73,74
 641 765 641 765 635 753 c 0,75,76
 629 739 629 739 619 729 c 128,-1,77
 609 719 609 719 596 713 c 256,78,79
 583 707 583 707 567 707 c 0,80,81
 552 707 552 707 539 713 c 256,82,83
 526 719 526 719 516.5 729 c 128,-1,84
 507 739 507 739 501 753 c 0,85,86
 495 766 495 766 495 779 c 2,87,-1
 495 780 l 2,88,89
 495 795 495 795 501 809 c 0,90,91
 507 822 507 822 517 831.5 c 128,-1,92
 527 841 527 841 539 847 c 0,93,94
 552 853 552 853 567 853 c 256,65,66
346 853 m 256,95,96
 361 853 361 853 374 848 c 1,97,98
 388 841 388 841 397.5 832 c 128,-1,99
 407 823 407 823 413 809 c 0,100,101
 419 796 419 796 419 782 c 2,102,-1
 419 780 l 2,103,104
 419 765 419 765 413 753 c 0,105,106
 407 739 407 739 397 729.5 c 128,-1,107
 387 720 387 720 374 713 c 1,108,109
 361 708 361 708 346 708 c 256,110,111
 331 708 331 708 317 713 c 1,112,113
 304 720 304 720 294.5 729.5 c 128,-1,114
 285 739 285 739 279 753 c 0,115,116
 273 766 273 766 273 779 c 2,117,-1
 273 780 l 2,118,119
 273 796 273 796 279 809 c 0,120,121
 285 823 285 823 295 832 c 128,-1,122
 305 841 305 841 317 848 c 1,123,124
 331 853 331 853 346 853 c 256,95,96
EndSplineSet
Validated: 1
EndChar

StartChar: uni28FA
Encoding: 10330 10330 285
Width: 682
Flags: W
LayerCount: 2
Fore
SplineSet
345 188 m 0,0,1
 361 188 361 188 374 182 c 0,2,3
 388 176 388 176 397 166 c 0,4,5
 406 157 406 157 413 143 c 1,6,7
 418 129 418 129 418 115 c 2,8,-1
 418 114 l 2,9,10
 418 99 418 99 413 87 c 1,11,12
 406 73 406 73 397 63 c 0,13,14
 388 54 388 54 374 48 c 0,15,16
 361 42 361 42 345 42 c 0,17,18
 330 42 330 42 317 48 c 256,19,20
 304 54 304 54 295 63 c 1,21,-1
 294 63 l 1,22,23
 285 73 285 73 278 87 c 1,24,25
 273 100 273 100 273 113 c 2,26,-1
 273 114 l 2,27,28
 273 129 273 129 278 143 c 1,29,30
 285 156 285 156 294 166 c 256,31,32
 303 176 303 176 317 182 c 0,33,34
 330 188 330 188 345 188 c 0,0,1
567 631 m 256,35,36
 582 631 582 631 596 626 c 1,37,38
 610 619 610 619 619.5 610 c 128,-1,39
 629 601 629 601 635 587 c 0,40,41
 641 574 641 574 641 560 c 2,42,-1
 641 558 l 2,43,44
 641 543 641 543 635 531 c 0,45,46
 629 517 629 517 619 507.5 c 128,-1,47
 609 498 609 498 596 492 c 1,48,49
 583 487 583 487 567 486 c 0,50,51
 552 486 552 486 539 492 c 1,52,53
 526 499 526 499 516.5 508 c 128,-1,54
 507 517 507 517 501 531 c 0,55,56
 495 544 495 544 495 557 c 2,57,-1
 495 558 l 2,58,59
 495 574 495 574 501 587 c 0,60,61
 507 601 507 601 517 610.5 c 128,-1,62
 527 620 527 620 539 626 c 1,63,64
 552 631 552 631 567 631 c 256,35,36
345 631 m 0,65,66
 361 631 361 631 374 625 c 0,67,68
 388 619 388 619 397 609.5 c 128,-1,69
 406 600 406 600 413 587 c 1,70,71
 418 573 418 573 418 559 c 2,72,-1
 418 558 l 2,73,74
 418 543 418 543 413 531 c 1,75,76
 406 517 406 517 396.5 507 c 128,-1,77
 387 497 387 497 374 492 c 0,78,79
 361 486 361 486 345 486 c 0,80,81
 330 486 330 486 317 492 c 0,82,83
 303 498 303 498 294 507.5 c 128,-1,84
 285 517 285 517 278 531 c 1,85,86
 273 544 273 544 273 557 c 2,87,-1
 273 558 l 2,88,89
 273 573 273 573 278 587 c 1,90,91
 285 600 285 600 294.5 610 c 128,-1,92
 304 620 304 620 317 625 c 0,93,94
 330 631 330 631 345 631 c 0,65,66
567 853 m 256,95,96
 582 853 582 853 596 847 c 256,97,98
 610 841 610 841 619.5 831.5 c 128,-1,99
 629 822 629 822 635 809 c 0,100,101
 641 795 641 795 641 781 c 2,102,-1
 641 780 l 2,103,104
 641 765 641 765 635 753 c 0,105,106
 629 739 629 739 619 729 c 128,-1,107
 609 719 609 719 596 713 c 256,108,109
 583 707 583 707 567 707 c 0,110,111
 552 707 552 707 539 713 c 256,112,113
 526 719 526 719 516.5 729 c 128,-1,114
 507 739 507 739 501 753 c 0,115,116
 495 766 495 766 495 779 c 2,117,-1
 495 780 l 2,118,119
 495 795 495 795 501 809 c 0,120,121
 507 822 507 822 517 831.5 c 128,-1,122
 527 841 527 841 539 847 c 0,123,124
 552 853 552 853 567 853 c 256,95,96
EndSplineSet
Validated: 1
EndChar

StartChar: uni28FB
Encoding: 10331 10331 286
Width: 682
Flags: W
LayerCount: 2
Fore
SplineSet
345 188 m 0,0,1
 361 188 361 188 374 182 c 0,2,3
 388 176 388 176 397 166 c 0,4,5
 406 157 406 157 413 143 c 1,6,7
 418 129 418 129 418 115 c 2,8,-1
 418 114 l 2,9,10
 418 99 418 99 413 87 c 1,11,12
 406 73 406 73 397 63 c 0,13,14
 388 54 388 54 374 48 c 0,15,16
 361 42 361 42 345 42 c 0,17,18
 330 42 330 42 317 48 c 256,19,20
 304 54 304 54 295 63 c 1,21,-1
 294 63 l 1,22,23
 285 73 285 73 278 87 c 1,24,25
 273 100 273 100 273 113 c 2,26,-1
 273 114 l 2,27,28
 273 129 273 129 278 143 c 1,29,30
 285 156 285 156 294 166 c 256,31,32
 303 176 303 176 317 182 c 0,33,34
 330 188 330 188 345 188 c 0,0,1
567 631 m 256,35,36
 582 631 582 631 596 626 c 1,37,38
 610 619 610 619 619.5 610 c 128,-1,39
 629 601 629 601 635 587 c 0,40,41
 641 574 641 574 641 560 c 2,42,-1
 641 558 l 2,43,44
 641 543 641 543 635 531 c 0,45,46
 629 517 629 517 619 507.5 c 128,-1,47
 609 498 609 498 596 492 c 1,48,49
 583 487 583 487 567 486 c 0,50,51
 552 486 552 486 539 492 c 1,52,53
 526 499 526 499 516.5 508 c 128,-1,54
 507 517 507 517 501 531 c 0,55,56
 495 544 495 544 495 557 c 2,57,-1
 495 558 l 2,58,59
 495 574 495 574 501 587 c 0,60,61
 507 601 507 601 517 610.5 c 128,-1,62
 527 620 527 620 539 626 c 1,63,64
 552 631 552 631 567 631 c 256,35,36
345 631 m 0,65,66
 361 631 361 631 374 625 c 0,67,68
 388 619 388 619 397 609.5 c 128,-1,69
 406 600 406 600 413 587 c 1,70,71
 418 573 418 573 418 559 c 2,72,-1
 418 558 l 2,73,74
 418 543 418 543 413 531 c 1,75,76
 406 517 406 517 396.5 507 c 128,-1,77
 387 497 387 497 374 492 c 0,78,79
 361 486 361 486 345 486 c 0,80,81
 330 486 330 486 317 492 c 0,82,83
 303 498 303 498 294 507.5 c 128,-1,84
 285 517 285 517 278 531 c 1,85,86
 273 544 273 544 273 557 c 2,87,-1
 273 558 l 2,88,89
 273 573 273 573 278 587 c 1,90,91
 285 600 285 600 294.5 610 c 128,-1,92
 304 620 304 620 317 625 c 0,93,94
 330 631 330 631 345 631 c 0,65,66
567 853 m 256,95,96
 582 853 582 853 596 847 c 256,97,98
 610 841 610 841 619.5 831.5 c 128,-1,99
 629 822 629 822 635 809 c 0,100,101
 641 795 641 795 641 781 c 2,102,-1
 641 780 l 2,103,104
 641 765 641 765 635 753 c 0,105,106
 629 739 629 739 619 729 c 128,-1,107
 609 719 609 719 596 713 c 256,108,109
 583 707 583 707 567 707 c 0,110,111
 552 707 552 707 539 713 c 256,112,113
 526 719 526 719 516.5 729 c 128,-1,114
 507 739 507 739 501 753 c 0,115,116
 495 766 495 766 495 779 c 2,117,-1
 495 780 l 2,118,119
 495 795 495 795 501 809 c 0,120,121
 507 822 507 822 517 831.5 c 128,-1,122
 527 841 527 841 539 847 c 0,123,124
 552 853 552 853 567 853 c 256,95,96
346 853 m 256,125,126
 361 853 361 853 374 848 c 1,127,128
 388 841 388 841 397.5 832 c 128,-1,129
 407 823 407 823 413 809 c 0,130,131
 419 796 419 796 419 782 c 2,132,-1
 419 780 l 2,133,134
 419 765 419 765 413 753 c 0,135,136
 407 739 407 739 397 729.5 c 128,-1,137
 387 720 387 720 374 713 c 1,138,139
 361 708 361 708 346 708 c 256,140,141
 331 708 331 708 317 713 c 1,142,143
 304 720 304 720 294.5 729.5 c 128,-1,144
 285 739 285 739 279 753 c 0,145,146
 273 766 273 766 273 779 c 2,147,-1
 273 780 l 2,148,149
 273 796 273 796 279 809 c 0,150,151
 285 823 285 823 295 832 c 128,-1,152
 305 841 305 841 317 848 c 1,153,154
 331 853 331 853 346 853 c 256,125,126
EndSplineSet
Validated: 1
EndChar

StartChar: uni28FC
Encoding: 10332 10332 287
Width: 682
Flags: W
LayerCount: 2
Fore
SplineSet
345 188 m 0,0,1
 361 188 361 188 374 182 c 0,2,3
 388 176 388 176 397 166 c 0,4,5
 406 157 406 157 413 143 c 1,6,7
 418 129 418 129 418 115 c 2,8,-1
 418 114 l 2,9,10
 418 99 418 99 413 87 c 1,11,12
 406 73 406 73 397 63 c 0,13,14
 388 54 388 54 374 48 c 0,15,16
 361 42 361 42 345 42 c 0,17,18
 330 42 330 42 317 48 c 256,19,20
 304 54 304 54 295 63 c 1,21,-1
 294 63 l 1,22,23
 285 73 285 73 278 87 c 1,24,25
 273 100 273 100 273 113 c 2,26,-1
 273 114 l 2,27,28
 273 129 273 129 278 143 c 1,29,30
 285 156 285 156 294 166 c 256,31,32
 303 176 303 176 317 182 c 0,33,34
 330 188 330 188 345 188 c 0,0,1
345 410 m 256,35,36
 360 410 360 410 374 404 c 1,37,38
 387 397 387 397 396.5 388 c 128,-1,39
 406 379 406 379 412 365 c 0,40,41
 418 352 418 352 418 338 c 2,42,-1
 418 336 l 2,43,44
 418 321 418 321 412 309 c 0,45,46
 406 295 406 295 396.5 285.5 c 128,-1,47
 387 276 387 276 374 270 c 1,48,49
 360 265 360 265 345 265 c 256,50,51
 330 265 330 265 317 270 c 1,52,53
 303 277 303 277 293.5 286 c 128,-1,54
 284 295 284 295 278 309 c 0,55,56
 272 322 272 322 272 335 c 2,57,-1
 272 336 l 2,58,59
 272 352 272 352 278 365 c 0,60,61
 284 379 284 379 294 388.5 c 128,-1,62
 304 398 304 398 317 404 c 257,63,64
 330 410 330 410 345 410 c 256,35,36
567 631 m 256,65,66
 582 631 582 631 596 626 c 1,67,68
 610 619 610 619 619.5 610 c 128,-1,69
 629 601 629 601 635 587 c 0,70,71
 641 574 641 574 641 560 c 2,72,-1
 641 558 l 2,73,74
 641 543 641 543 635 531 c 0,75,76
 629 517 629 517 619 507.5 c 128,-1,77
 609 498 609 498 596 492 c 1,78,79
 583 487 583 487 567 486 c 0,80,81
 552 486 552 486 539 492 c 1,82,83
 526 499 526 499 516.5 508 c 128,-1,84
 507 517 507 517 501 531 c 0,85,86
 495 544 495 544 495 557 c 2,87,-1
 495 558 l 2,88,89
 495 574 495 574 501 587 c 0,90,91
 507 601 507 601 517 610.5 c 128,-1,92
 527 620 527 620 539 626 c 1,93,94
 552 631 552 631 567 631 c 256,65,66
567 853 m 256,95,96
 582 853 582 853 596 847 c 256,97,98
 610 841 610 841 619.5 831.5 c 128,-1,99
 629 822 629 822 635 809 c 0,100,101
 641 795 641 795 641 781 c 2,102,-1
 641 780 l 2,103,104
 641 765 641 765 635 753 c 0,105,106
 629 739 629 739 619 729 c 128,-1,107
 609 719 609 719 596 713 c 256,108,109
 583 707 583 707 567 707 c 0,110,111
 552 707 552 707 539 713 c 256,112,113
 526 719 526 719 516.5 729 c 128,-1,114
 507 739 507 739 501 753 c 0,115,116
 495 766 495 766 495 779 c 2,117,-1
 495 780 l 2,118,119
 495 795 495 795 501 809 c 0,120,121
 507 822 507 822 517 831.5 c 128,-1,122
 527 841 527 841 539 847 c 0,123,124
 552 853 552 853 567 853 c 256,95,96
EndSplineSet
Validated: 1
EndChar

